<svg width="48" height="46" viewBox="0 0 48 46" fill="none" xmlns="http://www.w3.org/2000/svg">
<mask id="path-1-inside-1" fill="white">
<path d="M42 1.57361e-06C45.3137 1.71846e-06 48 2.68629 48 6L48 32.1538C48 35.4676 45.3137 38.1538 42 38.1538L6 38.1538C2.68629 38.1538 -1.44847e-07 35.4676 0 32.1538L1.14322e-06 6.00001C1.28807e-06 2.6863 2.68629 -1.44847e-07 6 0L42 1.57361e-06Z"/>
</mask>
<path d="M1.14322e-06 6.00001L-0.999999 6.00001L1.14322e-06 6.00001ZM6 0L6 -1L6 0ZM6 38.1538L6 37.1538L6 38.1538ZM0 32.1538L1 32.1538L0 32.1538ZM48 32.1538L49 32.1538L48 32.1538ZM42 38.1538L42 39.1538L42 38.1538ZM48 6L47 6L48 6ZM42 1.57361e-06L42 1L42 1.57361e-06ZM47 6L47 32.1538L49 32.1538L49 6L47 6ZM42 37.1538L6 37.1538L6 39.1538L42 39.1538L42 37.1538ZM1 32.1538L1 6.00001L-0.999999 6.00001L-1 32.1538L1 32.1538ZM6 1L42 1L42 -0.999998L6 -1L6 1ZM1 6.00001C1 3.23858 3.23858 1 6 1L6 -1C2.13401 -1 -0.999999 2.13401 -0.999999 6.00001L1 6.00001ZM6 37.1538C3.23858 37.1538 1 34.9153 1 32.1538L-1 32.1538C-1 36.0198 2.13401 39.1538 6 39.1538L6 37.1538ZM47 32.1538C47 34.9153 44.7614 37.1538 42 37.1538L42 39.1538C45.866 39.1538 49 36.0198 49 32.1538L47 32.1538ZM49 6C49 2.13401 45.866 -0.999998 42 -0.999998L42 1C44.7614 1 47 3.23858 47 6L49 6Z" fill="#979797" mask="url(#path-1-inside-1)"/>
<rect x="35.9082" y="43.6523" width="1.61225" height="23.8163" rx="0.806123" transform="rotate(90 35.9082 43.6523)" fill="#979797" stroke="#979797"/>
<rect x="18.9492" y="38.4277" width="10.102" height="6.83673" fill="#979797" stroke="#979797"/>
<path fill-rule="evenodd" clip-rule="evenodd" d="M27.5036 21.9873H28.1707L32.3845 26.2095L31.1263 27.4677L26.9041 23.254V22.5869L26.6761 22.3504C25.7134 23.178 24.4636 23.6762 23.1041 23.6762C20.0726 23.6762 17.6152 21.2189 17.6152 18.1873C17.6152 15.1558 20.0726 12.6985 23.1041 12.6985C26.1356 12.6985 28.5929 15.1558 28.5929 18.1873C28.5929 19.5469 28.0947 20.7967 27.2672 21.7593L27.5036 21.9873ZM19.3051 18.1874C19.3051 20.29 21.0025 21.9874 23.1051 21.9874C25.2078 21.9874 26.9051 20.29 26.9051 18.1874C26.9051 16.0847 25.2078 14.3874 23.1051 14.3874C21.0025 14.3874 19.3051 16.0847 19.3051 18.1874Z" fill="#979797"/>
</svg>
