<svg width="500" height="151" viewBox="0 0 500 151" fill="none" xmlns="http://www.w3.org/2000/svg">
<path d="M111.899 16.0693V17.726C111.128 17.8079 110.364 17.9411 109.611 18.1247C108.617 18.3887 108.22 18.6863 108.005 18.9194C107.439 19.5455 107.49 22.0081 107.49 24.2095V48.894C107.49 53.6675 106.249 57.8232 103.553 61.3499C100.857 64.8767 97.4247 66.685 93.256 66.6373C89.8407 66.6064 89.5745 64.4948 89.5745 63.6244C89.5745 62.7539 89.9001 61.5409 91.6276 61.0214C93.004 60.6087 94.774 61.3584 95.4537 62.0042C96.3032 62.8185 96.9914 63.2256 97.4898 63.2256C97.9883 63.2256 98.5688 62.9589 99.1239 62.4282C99.79 61.7423 100.342 60.9556 100.758 60.0976C101.464 58.7284 101.959 57.2624 102.228 55.7481C102.591 53.6344 102.763 51.4929 102.743 49.3489V23.9736C102.743 21.6234 102.837 19.5203 102.341 18.9194C102.228 18.6161 101.681 18.3409 100.707 18.0938C99.9303 17.9214 99.1433 17.7986 98.3508 17.726V16.0693H111.899Z" fill="white"/>
<path d="M133.541 16.5771L144.869 46.2092C145.557 47.9922 146.112 49.7977 146.534 50.7468C146.763 51.3084 147.355 51.7801 148.31 52.1508C149 52.3923 149.711 52.5727 150.434 52.6899L150.547 53.9001H137.605L137.661 52.6899C138.241 52.638 138.817 52.5442 139.383 52.4091C140.071 52.2209 140.411 51.943 140.587 51.6706C141.388 50.4267 139.899 46.3945 139.899 46.3945L137.545 39.9363H125.345L122.796 46.2822C122.145 48.1775 121.822 49.9325 121.822 50.6457C121.8 50.8579 121.831 51.0721 121.911 51.2701C121.991 51.4682 122.118 51.6441 122.281 51.7829C122.783 52.1141 123.349 52.337 123.943 52.4372C124.492 52.5521 125.047 52.6374 125.606 52.6927L125.722 53.9029H113.859V52.6927C114.457 52.6396 115.051 52.5458 115.637 52.4119C116.365 52.2238 116.861 51.957 117.13 51.6144C117.931 50.5924 118.829 48.3685 119.826 45.8301L129.806 20.4072C129.882 20.219 131.34 16.8972 131.474 16.6782C131.603 16.4401 131.806 16.249 132.052 16.1324C132.299 16.0158 132.576 15.9798 132.844 16.0296C132.995 16.0622 133.136 16.1285 133.257 16.2234C133.377 16.3183 133.475 16.4393 133.541 16.5771V16.5771ZM136.288 36.4938L131.575 23.8047L126.642 36.4853L136.288 36.4938Z" fill="white"/>
<path d="M198.124 16.5773L209.452 46.2094C210.14 47.9924 210.695 49.8456 211.117 50.7919C211.346 51.3535 211.939 51.8215 212.896 52.1959C213.585 52.4393 214.295 52.6207 215.017 52.7378L215.13 53.9003H202.168L202.228 52.7378C202.807 52.6843 203.381 52.5905 203.947 52.457C204.635 52.2661 204.975 51.9909 205.15 51.7157C205.955 50.4746 204.462 46.3947 204.462 46.3947L202.112 39.9365H189.909L187.36 46.2824C186.709 48.1777 186.386 49.972 186.386 50.6936C186.364 50.9058 186.394 51.12 186.474 51.3181C186.554 51.5161 186.681 51.692 186.844 51.8308C187.347 52.1609 187.913 52.3837 188.507 52.4851C189.056 52.6001 189.611 52.6854 190.169 52.7406L190.285 53.9031H178.436V52.7406C179.034 52.6861 179.627 52.5923 180.212 52.4598C180.94 52.2689 181.435 52.0049 181.704 51.6624C182.506 50.6375 183.404 48.3687 184.4 45.8303L194.38 20.4073C194.457 20.2192 195.918 16.8974 196.051 16.6784C196.18 16.4402 196.382 16.2489 196.628 16.1323C196.874 16.0157 197.151 15.9798 197.419 16.0298C197.571 16.0612 197.714 16.127 197.836 16.2219C197.958 16.3169 198.057 16.4385 198.124 16.5773V16.5773ZM200.871 36.4939L196.159 23.8049L191.226 36.4855L200.871 36.4939Z" fill="white"/>
<path d="M352.594 16.5773L363.922 46.2094C364.613 47.9924 365.367 49.7979 365.786 50.747C366.018 51.3086 366.409 51.7803 367.366 52.1509C368.056 52.3926 368.765 52.573 369.487 52.6901L369.603 53.9003H356.638L356.698 52.6901C357.277 52.6381 357.852 52.5443 358.417 52.4093C358.887 52.2933 359.308 52.0352 359.623 51.6708C360.64 50.6066 358.932 46.3947 358.932 46.3947L356.582 39.9365H344.379L341.83 46.2824C341.179 48.1777 340.856 49.9327 340.856 50.6459C340.834 50.8581 340.865 51.0723 340.944 51.2703C341.024 51.4683 341.151 51.6443 341.315 51.7831C341.816 52.1143 342.383 52.3372 342.977 52.4373C343.526 52.5523 344.081 52.6376 344.639 52.6929L344.755 53.9031H332.912V52.6929C333.51 52.6399 334.103 52.5461 334.688 52.4121C335.416 52.2239 335.911 51.9572 336.18 51.6146C336.982 50.5925 337.879 48.3687 338.876 45.8303L348.856 20.4073C348.933 20.2192 350.394 16.8974 350.527 16.6784C350.656 16.4402 350.858 16.2489 351.104 16.1323C351.35 16.0157 351.627 15.9798 351.895 16.0298C352.046 16.062 352.188 16.1281 352.309 16.223C352.43 16.3179 352.528 16.4391 352.594 16.5773V16.5773ZM355.344 36.4939L350.629 23.8049L345.696 36.4855L355.344 36.4939Z" fill="white"/>
<path d="M153.614 16.2965C153.614 16.2965 167.491 16.215 168.59 16.2656C172.753 16.4565 174.922 17.7004 176.125 18.4586C177.376 19.2675 178.394 20.3839 179.079 21.6989C179.89 23.2005 180.286 24.8881 180.226 26.5903C180.184 28.4604 179.289 34.211 173.713 36.7999C171.164 37.9792 168.898 37.8108 166.729 37.1256C165.744 36.8372 164.845 36.317 164.107 35.6094C163.823 35.1657 164.234 34.8681 164.48 35.0309C165.609 35.4475 166.808 35.644 168.012 35.6094C168.961 35.6209 169.902 35.4375 170.776 35.0708C171.65 34.704 172.437 34.1617 173.09 33.4781C174.54 32.0377 175.803 29.4151 175.803 27.2165C175.803 24.5237 175.069 22.8979 173.883 21.3198C172.696 19.7418 170.147 18.6804 167.652 18.6804C165.93 18.6804 164.592 18.8133 163.636 19.0791C163.535 19.1039 163.443 19.1576 163.373 19.2334C163.302 19.3092 163.255 19.4039 163.237 19.5059C163.117 20.0761 163.05 20.656 163.036 21.2384C162.976 22.1482 162.946 23.5138 162.948 25.3352V45.6365C162.948 48.1776 163.101 50.2667 163.407 51.0249C163.6 51.5191 164.277 51.915 165.443 52.2182C166.265 52.4198 167.098 52.5718 167.938 52.6731L168.054 53.8833H153.611V52.7124C154.363 52.6441 155.11 52.5306 155.849 52.3727C156.803 52.1452 157.378 51.7128 157.568 51.3731C157.837 50.9154 157.97 48.6943 157.97 45.5859V24.0884C157.97 21.8421 157.916 19.9496 157.568 19.197C157.454 18.8938 156.848 18.276 155.868 17.8885C155.149 17.6004 154.379 17.4581 153.603 17.4702L153.614 16.2965Z" fill="white"/>
<path d="M247.831 23.9175C247.831 21.6056 247.697 19.9377 247.429 18.9138C247.276 18.3887 246.67 18.0714 245.466 17.7766C244.622 17.5951 243.764 17.489 242.901 17.4593V16.0693H256.092L256.069 17.4593C255.198 17.5089 254.332 17.6301 253.481 17.8215C252.201 18.1247 251.64 18.4196 251.445 18.9138C251.139 20.0894 250.986 21.8527 250.986 24.2039V53.9904H249.021L248.049 52.6819L225.92 21.4156V45.6986C225.92 48.2004 225.963 49.9638 226.232 50.9859C226.515 51.7749 227.05 51.9069 228.245 52.2298C229.063 52.4425 229.895 52.6011 230.734 52.7043V53.8893H217.543V52.6959C217.543 52.6959 218.959 52.5134 220.151 52.2298C221.344 51.9462 221.921 51.7525 222.25 50.9859C222.632 50.0003 222.703 48.1078 222.703 45.5273V23.179C222.703 21.322 222.57 19.9003 222.304 18.9138C222.187 18.6105 221.536 18.3353 220.352 18.0882C219.166 17.8439 217.772 17.7204 217.772 17.7204V16.0693H228.211C228.211 16.0693 236.104 27.9384 247.653 43.9352C247.778 43.1647 247.836 42.385 247.825 41.6046L247.831 23.9175Z" fill="white"/>
<path d="M275.347 26.1915C275.412 23.246 276.479 20.6206 278.768 18.7281C281.056 16.8355 283.69 16.083 286.697 16.083C287.847 16.1082 288.994 16.202 290.132 16.3638C291.928 16.7058 293.701 17.1502 295.445 17.6948L296.139 25.9079L294.53 25.8742C294.209 24.0019 293.347 22.2619 292.05 20.8649C290.614 19.2672 288.728 18.5456 286.292 18.4417C283.978 18.3434 282.143 19.1128 281.195 20.2612C280.246 21.4096 279.974 22.7294 279.974 24.4141C279.974 27.5422 281.956 29.123 282.67 29.6986C283.384 30.2743 283.905 30.6758 284.233 30.9032C284.562 31.1307 285.219 31.5575 286.202 32.1668C287.184 32.7761 287.813 33.1636 288.085 33.3152L290.112 34.5507C291.27 35.2602 292.062 35.7581 292.488 36.0446C293.178 36.5234 293.84 37.0409 294.471 37.5945C297.6 40.2986 298.152 43.4912 298.152 44.4009C298.152 47.4644 297.02 50.1066 294.61 52.0778C292.2 54.049 289.291 54.911 286.046 54.911C285.058 54.9065 284.071 54.8399 283.092 54.7116C282.05 54.5769 281.181 54.4421 280.487 54.3073C279.792 54.1725 278.913 53.9853 277.85 53.7457C276.788 53.4958 275.618 53.2571 275.618 53.2571L274.316 44.1201L275.995 44.1061C275.995 44.1061 276.278 45.8049 277.694 48.1664C279.393 50.9743 282.543 52.5636 286.19 52.5636C287.99 52.6093 289.743 51.9955 291.115 50.8395C292.467 49.692 293.142 48.0653 293.14 45.9593C293.116 44.9932 292.89 44.0424 292.477 43.1671C292.063 42.2918 291.471 41.5111 290.738 40.8742C290.274 40.4836 289.779 40.1288 289.26 39.8128C288.912 39.5825 288.274 39.2203 287.348 38.7205C286.422 38.2207 285.785 37.8781 285.437 37.6872C284.315 37.0357 283.534 36.5762 283.092 36.3085C282.678 36.0586 281.942 35.5925 280.892 34.9045C280.076 34.4049 279.327 33.807 278.66 33.1243C278.187 32.6077 275.259 30.2771 275.347 26.1915Z" fill="white"/>
<path d="M306.524 50.9321V18.9386C306.546 18.8123 305.881 18.2872 304.57 17.8632C303.831 17.6517 303.071 17.519 302.304 17.4673V16.2964L327.792 16.3441L329.324 23.6897H327.625C327.163 22.1944 326.285 20.8584 325.093 19.8344C324.184 19.0734 322.646 18.9527 320.845 18.9527H311.344L311.361 33.391H320.517C322.499 33.391 323.006 32.8603 323.244 32.3998C323.623 31.667 324.065 29.9036 324.065 29.9036H325.317V40.189H324.065C323.967 39.3947 323.738 38.6217 323.388 37.9006C322.904 36.8785 321.972 36.4517 320.468 36.4517H311.361V50.8732L318.843 50.9237C318.843 50.9237 324.79 50.9041 326.042 50.261C326.608 49.9578 327.095 49.4187 327.789 48.0681C328.312 46.9083 328.774 45.7228 329.174 44.516H331.009L328.803 53.9479L302.304 53.8917V52.7292C304.193 52.4709 305.751 51.7015 306.524 50.9321Z" fill="white"/>
<path d="M387.569 16.2715C391.894 16.2715 394.27 17.7007 395.573 18.4589C396.904 19.2495 398.01 20.365 398.784 21.6992C399.646 23.1852 400.082 24.8767 400.044 26.5906C400.044 28.1836 399.442 29.8515 398.237 31.5943C397.034 33.3409 394.955 34.8487 392.891 35.8062C392.508 35.9607 392.392 36.1488 392.548 36.3678C394.46 40.3494 396.533 44.1486 399.019 46.8386C403.244 52.0108 406.082 53.2378 409.18 54.521C409.786 54.7709 409.594 55.1528 409.124 55.1641C408.089 55.1787 407.055 55.095 406.037 54.9142C400.976 54.0381 396.722 50.7275 393.18 45.8165C392.568 44.9835 391.869 43.9876 391.084 42.8288C390.302 41.6748 387.813 37.5893 387.45 37.286C387.088 36.9827 387.043 36.7244 386.275 36.5447C385.328 36.3981 384.371 36.3221 383.412 36.3173C383.182 36.3148 382.953 36.3241 382.724 36.3453C382.547 36.3799 382.386 36.4705 382.265 36.6037C382.183 36.6965 382.12 36.8047 382.081 36.9219C382.041 37.039 382.026 37.1628 382.036 37.286C382.036 37.286 382.189 50.0115 382.494 50.764C382.687 51.2582 383.409 51.7833 384.576 52.0866C385.743 52.3898 387.125 52.679 387.125 52.679V53.8893H372.495V52.6847C372.495 52.6847 373.911 52.3898 374.84 52.1371C376.38 51.7159 376.896 51.379 376.972 50.604V19.1973C376.972 19.1973 376.689 18.383 374.933 17.8776C374.19 17.683 373.432 17.5496 372.667 17.4789V16.2968L387.569 16.2715ZM386.74 18.6863C385.018 18.6863 384.296 18.6695 383.423 18.8239C383.27 18.8604 382.036 18.9165 382.036 20.8287V32.2205C382.036 33.3212 383.699 33.8706 387.026 33.8687H388.459C389.799 33.8687 391.186 33.2061 392.619 31.8807C394.052 30.5554 394.768 28.792 394.768 26.5906C394.759 21.3229 392.076 18.6882 386.72 18.6863H386.74Z" fill="white"/>
<path d="M440.015 43.6316L438.092 51.7606C437.316 52.1656 436.517 52.5265 435.699 52.8416C432.977 53.7654 430.06 54.473 424.58 54.2259C419.608 54.0041 415.371 52.4148 411.888 48.7898C410.196 47.0817 408.862 45.058 407.964 42.8356C407.067 40.6132 406.622 38.2363 406.657 35.8424C406.657 30.5355 408.591 25.908 412.072 22.0218C414.402 19.4161 419.327 16.5015 425.201 16.5015C433.091 16.5015 437.823 18.7983 437.823 18.7983L438.825 25.9754L436.905 26.537C436.905 26.537 436.65 25.557 436.48 25.0516C436.311 24.5462 435.294 21.5052 430.148 19.5031C428.772 18.9668 427.141 18.8573 425.371 18.8573C422.737 18.8573 418.959 20.4747 416.359 23.7066C413.815 26.8629 412.448 30.7939 412.491 34.8344C412.444 37.6368 412.968 40.4197 414.031 43.0167C415.088 45.5579 416.368 47.5318 418.648 49.1941C420.975 50.9218 423.811 51.8432 426.719 51.8167C430.451 51.8167 433.028 50.907 435.064 48.728C435.723 48.0219 436.264 47.2162 436.667 46.3413C437.064 45.4259 438.14 43.1178 438.14 43.1178L440.015 43.6316Z" fill="white"/>
<path d="M475.848 19.0203V51.1907C475.893 51.5501 476.471 52.092 477.655 52.3307C478.646 52.5301 479.807 52.6958 479.807 52.6958V53.847H466.477V52.6958C466.477 52.6958 467.689 52.5497 468.66 52.3588C469.935 52.1089 470.699 51.8449 470.708 51.1907L470.674 36.0279L453.43 36.0588V51.1767V51.2019C453.43 51.6119 454.05 52.1033 455.234 52.342C456.225 52.5413 457.386 52.707 457.386 52.707V53.8582H444.056V52.707C444.056 52.707 445.268 52.561 446.239 52.37C447.514 52.1201 448.264 51.8562 448.273 51.2019V19.0063C448.273 18.4447 447.497 18.1246 446.483 17.841C445.766 17.6611 445.036 17.539 444.3 17.4759V16.4482H457.686V17.4759C456.905 17.5252 456.128 17.6284 455.361 17.7848C454.512 18.0151 453.43 18.3717 453.43 19.0063L453.464 33.0459H470.654L470.716 19.0287V19.0147C470.716 18.4531 469.926 18.133 468.912 17.8494C468.196 17.6695 467.465 17.5474 466.729 17.4844V16.4567H480.116V17.4844C479.334 17.5336 478.557 17.6368 477.79 17.7932C476.941 18.0235 475.859 18.3801 475.859 19.0147L475.848 19.0203Z" fill="white"/>
<path d="M37.7297 55.2122C37.7297 55.5941 38.0021 55.7502 38.3361 55.5603L51.2765 48.1578C51.4528 48.0432 51.5995 47.8892 51.7048 47.7082C51.8101 47.5272 51.8711 47.3243 51.8829 47.1156V32.3126C51.8829 31.9308 51.6106 31.7726 51.2765 31.9646L38.3468 39.3671C38.1701 39.4813 38.0232 39.6352 37.9178 39.8163C37.8125 39.9973 37.7517 40.2005 37.7404 40.4092L37.7297 55.2122Z" fill="#E6C620"/>
<path d="M19.6723 44.8749C19.6723 45.2567 19.9468 45.4128 20.2787 45.223L33.2106 37.8204C33.3871 37.7061 33.534 37.5522 33.6393 37.3712C33.7447 37.1901 33.8055 36.987 33.817 36.7783V21.9753C33.817 21.5935 33.5446 21.4373 33.2106 21.6272L20.2787 29.0298C20.1028 29.1447 19.9564 29.2987 19.8511 29.4797C19.7458 29.6606 19.6846 29.8634 19.6723 30.0719V44.8749Z" fill="#6941A0"/>
<path d="M68.2766 22.2264L58.3489 27.9097C58.0149 28.1016 58.0149 28.4139 58.3489 28.6037L67.6064 33.9051L69.3234 34.8861C69.6553 35.0781 69.9298 34.922 69.9298 34.5401V28.2557C69.9314 26.2515 69.5502 24.2651 68.8064 22.4015C68.7937 22.3475 68.7672 22.2975 68.7294 22.2565C68.6917 22.2154 68.644 22.1846 68.5909 22.1671C68.5377 22.1495 68.4809 22.1457 68.4259 22.1561C68.3709 22.1665 68.3195 22.1907 68.2766 22.2264Z" fill="#CA1B4D"/>
<path d="M3.2702 22.2267C3.55743 22.3934 13.1979 27.9099 13.1979 27.9099C13.5319 28.1019 13.5319 28.4141 13.1979 28.604L3.94041 33.9054L2.22339 34.8864C1.88935 35.0783 1.61701 34.9222 1.61701 34.5404V28.2559C1.61565 26.252 1.99608 24.2658 2.73828 22.4018C2.75134 22.3477 2.7781 22.2978 2.81604 22.2568C2.85399 22.2158 2.90185 22.1851 2.95511 22.1675C3.00837 22.15 3.06526 22.1462 3.1204 22.1566C3.17553 22.1669 3.22709 22.1911 3.2702 22.2267V22.2267Z" fill="#CA1B4D"/>
<path d="M68.2766 54.9611L58.3489 49.2778C58.0149 49.0859 58.0149 48.7736 58.3489 48.5838L67.6064 43.2824L69.3234 42.3014C69.6553 42.1094 69.9298 42.2656 69.9298 42.6474V48.9424C69.9314 50.9466 69.5502 52.933 68.8064 54.7965C68.7923 54.8497 68.7648 54.8985 68.7265 54.9383C68.6882 54.9781 68.6403 55.0077 68.5874 55.0241C68.5344 55.0405 68.4781 55.0434 68.4238 55.0324C68.3694 55.0213 68.3188 54.9968 68.2766 54.9611Z" fill="#CA1B4D"/>
<path d="M3.2702 54.9611C3.55743 54.7944 13.1979 49.2778 13.1979 49.2778C13.5319 49.0859 13.5319 48.7736 13.1979 48.5838L3.94041 43.2824L2.22339 42.3014C1.88935 42.1094 1.61701 42.2656 1.61701 42.6474V48.9424C1.61565 50.9464 1.99608 52.9326 2.73828 54.7965C2.75269 54.8498 2.78045 54.8985 2.81896 54.9383C2.85748 54.978 2.9055 55.0075 2.95858 55.0239C3.01165 55.0403 3.06805 55.0432 3.12253 55.0322C3.17701 55.0212 3.22781 54.9967 3.2702 54.9611V54.9611Z" fill="#CA1B4D"/>
<path d="M5.22768 18.8682L15.1532 24.5514C15.4873 24.7413 15.7596 24.5852 15.7596 24.2033V11.6386C15.7596 11.2568 15.4873 11.1007 15.1532 11.2926L9.66598 14.4338C7.91222 15.4337 6.36514 16.7536 5.1064 18.3239C5.06583 18.3627 5.03598 18.4112 5.01971 18.4648C5.00343 18.5183 5.00128 18.5751 5.01344 18.6297C5.02561 18.6843 5.05169 18.7349 5.0892 18.7766C5.12671 18.8184 5.17439 18.8499 5.22768 18.8682V18.8682Z" fill="#CA1B4D"/>
<path d="M37.7297 74.6794V63.3213C37.7297 62.9374 38.0021 62.7813 38.3361 62.9732L47.5936 68.2725L49.3106 69.2556C49.6425 69.4455 49.6425 69.7577 49.3106 69.9497L43.8298 73.0908C42.0803 74.0948 40.1549 74.7612 38.1553 75.0549C38.0085 75.076 37.7276 75.0717 37.7297 74.6794Z" fill="#CA1B4D"/>
<path d="M33.817 2.50188C33.817 2.83098 33.817 13.8662 33.817 13.8662C33.817 14.2481 33.5425 14.4063 33.2106 14.2143L23.9531 8.91503L22.2361 7.93196C21.9021 7.7421 21.9021 7.42777 22.2361 7.23791L27.7234 4.09673C29.4749 3.0922 31.4025 2.42577 33.4042 2.1327C33.5383 2.1095 33.817 2.1095 33.817 2.50188Z" fill="#CA1B4D"/>
<path d="M66.3192 58.3197L56.383 52.6365C56.049 52.4466 55.7766 52.6027 55.7766 52.9846V65.5493C55.7766 65.9311 56.0511 66.0872 56.383 65.8953L61.8724 62.7541C63.627 61.7519 65.1748 60.4299 66.4341 58.8577C66.4733 58.8192 66.5021 58.7715 66.5179 58.7191C66.5337 58.6667 66.536 58.6111 66.5246 58.5576C66.5132 58.5041 66.4884 58.4543 66.4525 58.4127C66.4166 58.3711 66.3708 58.3392 66.3192 58.3197Z" fill="#CA1B4D"/>
<path d="M51.2766 65.8953C51.6106 66.0872 51.8829 65.9311 51.8829 65.5493V52.9846C51.8829 52.6027 51.6106 52.4466 51.2766 52.6365L40.3021 58.9188C39.9702 59.1108 39.9702 59.423 40.3021 59.6129L51.2766 65.8953Z" fill="#CA1B4D"/>
<path d="M56.383 31.9646C56.0511 31.7726 55.7766 31.9308 55.7766 32.3126V44.8752C55.7766 45.2571 56.0511 45.4132 56.383 45.2233L67.3575 38.941C67.6915 38.7511 67.6915 38.4368 67.3575 38.2469L56.383 31.9646Z" fill="#CA1B4D"/>
<path d="M38.3361 21.6272C38.0021 21.4373 37.7297 21.5935 37.7297 21.9753V34.54C37.7297 34.9218 38.0021 35.078 38.3361 34.886L49.3106 28.6036C49.6425 28.4138 49.6425 28.1015 49.3106 27.9096L38.3361 21.6272Z" fill="white"/>
<path d="M20.2787 11.2926C19.9468 11.1007 19.6723 11.2568 19.6723 11.6386V24.2033C19.6723 24.5852 19.9468 24.7413 20.2787 24.5514L31.2532 18.269C31.5872 18.0771 31.5872 17.7648 31.2532 17.575L20.2787 11.2926Z" fill="#CA1B4D"/>
<path d="M33.2106 55.5602C33.5446 55.7501 33.817 55.5939 33.817 55.2121V42.6474C33.817 42.2656 33.5446 42.1094 33.2106 42.3014L22.2361 48.5838C21.9021 48.7736 21.9021 49.0859 22.2361 49.2778L33.2106 55.5602Z" fill="#666464"/>
<path d="M15.1532 45.2233C15.4872 45.4132 15.7596 45.2571 15.7596 44.8752V32.3126C15.7596 31.9308 15.4872 31.7726 15.1532 31.9646L4.18083 38.2469C3.84679 38.4368 3.84679 38.7511 4.18083 38.941L15.1532 45.2233Z" fill="#CA1B4D"/>
<path d="M33.817 74.6793C33.817 74.3502 33.817 63.315 33.817 63.315C33.817 62.931 33.5425 62.7749 33.2106 62.9669L23.9531 68.2662L22.2361 69.2493C21.9021 69.4391 21.9021 69.7513 22.2361 69.9433L27.7234 73.0845C29.4744 74.0912 31.402 74.7598 33.4042 75.0548C33.5383 75.0759 33.817 75.0717 33.817 74.6793Z" fill="#CA1B4D"/>
<path d="M37.7297 2.50188V13.8662C37.7297 14.2481 38.0021 14.4063 38.3361 14.2143L47.5936 8.91503L49.3106 7.93196C49.6425 7.7421 49.6425 7.42777 49.3106 7.23791L43.8298 4.09673C42.0803 3.09276 40.1549 2.42634 38.1553 2.1327C38.0085 2.1095 37.7276 2.1095 37.7297 2.50188Z" fill="#CA1B4D"/>
<path d="M66.3191 18.8682C66.5681 18.7269 66.5596 18.5581 66.5021 18.4358C65.3648 16.9916 63.9868 15.7508 62.4276 14.7672L62.2574 14.6638C62.0617 14.5436 61.866 14.4276 61.666 14.3158L58.6021 12.5606L54.4362 10.1767C54.2483 10.0821 54.0405 10.0327 53.8298 10.0327C53.619 10.0327 53.4113 10.0821 53.2234 10.1767L40.2915 17.5793C39.9596 17.7691 39.9596 18.0814 40.2915 18.2733L46.7574 21.9736L53.2234 25.6759C53.4116 25.7696 53.6192 25.8184 53.8298 25.8184C54.0403 25.8184 54.248 25.7696 54.4362 25.6759L58.6021 23.2899L66.3085 18.8788L66.3191 18.8682Z" fill="#E6C620"/>
<path d="M31.2531 58.9186L18.3234 51.516C18.1352 51.4223 17.9275 51.3735 17.717 51.3735C17.5064 51.3735 17.2988 51.4223 17.1106 51.516L13.0085 53.864C10.1787 55.4863 5.52336 58.1507 5.24038 58.311H5.22549C4.95314 58.4671 4.99145 58.6528 5.06166 58.7772C5.13187 58.9017 5.24038 59.0072 5.33612 59.1211C5.82914 59.7094 6.36384 60.2621 6.93613 60.775V60.775C7.11485 60.9354 7.29783 61.0893 7.48294 61.2412L7.54889 61.2961C7.71059 61.4248 7.87229 61.5492 8.03825 61.6737L8.19783 61.7918C8.33187 61.8889 8.46804 61.9817 8.60421 62.0766C8.69357 62.1357 8.78081 62.1969 8.8723 62.256C8.96379 62.315 9.08506 62.391 9.19145 62.4564C9.34464 62.5513 9.49783 62.6462 9.65527 62.7369L12.9978 64.6503L17.1 66.9983C17.2878 67.093 17.4956 67.1423 17.7063 67.1423C17.9171 67.1423 18.1249 67.093 18.3127 66.9983L31.2425 59.5958C31.5872 59.4228 31.5872 59.1106 31.2531 58.9186Z" fill="#6941A0"/>
<path d="M311.669 125.552C311.669 121.812 312.285 118.424 313.517 115.388C314.793 112.352 316.553 109.778 318.797 107.666C321.041 105.51 323.703 103.86 326.783 102.716C329.863 101.572 333.229 101 336.881 101C340.533 101 343.899 101.572 346.979 102.716C350.059 103.86 352.721 105.51 354.965 107.666C357.209 109.778 358.947 112.352 360.179 115.388C361.455 118.424 362.093 121.812 362.093 125.552C362.093 129.292 361.455 132.68 360.179 135.716C358.947 138.752 357.209 141.348 354.965 143.504C352.721 145.616 350.059 147.244 346.979 148.388C343.899 149.532 340.533 150.104 336.881 150.104C333.229 150.104 329.863 149.532 326.783 148.388C323.703 147.244 321.041 145.616 318.797 143.504C316.553 141.348 314.793 138.752 313.517 135.716C312.285 132.68 311.669 129.292 311.669 125.552ZM322.361 125.552C322.361 127.752 322.691 129.776 323.351 131.624C324.055 133.428 325.045 135.012 326.321 136.376C327.597 137.696 329.115 138.73 330.875 139.478C332.679 140.226 334.681 140.6 336.881 140.6C339.081 140.6 341.061 140.226 342.821 139.478C344.625 138.73 346.165 137.696 347.441 136.376C348.717 135.012 349.685 133.428 350.345 131.624C351.049 129.776 351.401 127.752 351.401 125.552C351.401 123.396 351.049 121.394 350.345 119.546C349.685 117.698 348.717 116.114 347.441 114.794C346.165 113.43 344.625 112.374 342.821 111.626C341.061 110.878 339.081 110.504 336.881 110.504C334.681 110.504 332.679 110.878 330.875 111.626C329.115 112.374 327.597 113.43 326.321 114.794C325.045 116.114 324.055 117.698 323.351 119.546C322.691 121.394 322.361 123.396 322.361 125.552Z" fill="white"/>
<path d="M254.88 102.188H272.304C274.328 102.188 276.352 102.342 278.376 102.65C280.444 102.914 282.292 103.486 283.92 104.366C285.548 105.202 286.868 106.39 287.88 107.93C288.892 109.47 289.398 111.516 289.398 114.068C289.398 116.708 288.65 118.908 287.154 120.668C285.702 122.384 283.766 123.616 281.346 124.364V124.496C282.886 124.716 284.272 125.156 285.504 125.816C286.78 126.432 287.858 127.246 288.738 128.258C289.662 129.226 290.366 130.37 290.85 131.69C291.334 133.01 291.576 134.418 291.576 135.914C291.576 138.378 291.048 140.446 289.992 142.118C288.936 143.746 287.572 145.066 285.9 146.078C284.228 147.09 282.336 147.816 280.224 148.256C278.156 148.696 276.088 148.916 274.02 148.916H254.88V102.188ZM265.176 120.866H272.634C273.426 120.866 274.196 120.778 274.944 120.602C275.736 120.426 276.44 120.14 277.056 119.744C277.672 119.348 278.156 118.82 278.508 118.16C278.904 117.5 279.102 116.708 279.102 115.784C279.102 114.816 278.882 114.024 278.442 113.408C278.046 112.748 277.518 112.242 276.858 111.89C276.198 111.538 275.45 111.296 274.614 111.164C273.778 110.988 272.964 110.9 272.172 110.9H265.176V120.866ZM265.176 140.204H274.416C275.208 140.204 276 140.116 276.792 139.94C277.628 139.764 278.376 139.456 279.036 139.016C279.696 138.576 280.224 138.004 280.62 137.3C281.06 136.596 281.28 135.738 281.28 134.726C281.28 133.626 280.994 132.746 280.422 132.086C279.894 131.382 279.212 130.854 278.376 130.502C277.54 130.15 276.638 129.908 275.67 129.776C274.702 129.644 273.8 129.578 272.964 129.578H265.176V140.204Z" fill="white"/>
<path d="M204.838 102.188H213.352L233.68 148.916H222.064L218.038 139.016H199.888L195.994 148.916H184.642L204.838 102.188ZM208.798 115.784L203.122 130.304H214.54L208.798 115.784Z" fill="white"/>
<path d="M137.907 102.188H148.203V139.412H167.277V148.916H137.907V102.188Z" fill="white"/>
</svg>
