<svg width="287" height="32" viewBox="0 0 287 32" fill="none" xmlns="http://www.w3.org/2000/svg">
<path d="M46.1085 6.67773V7.36622C45.7908 7.40024 45.4758 7.4556 45.1656 7.53193C44.756 7.64162 44.5926 7.76531 44.5039 7.86217C44.2705 8.12239 44.2915 9.14579 44.2915 10.0607V20.3191C44.2915 22.3029 43.7804 24.03 42.6695 25.4956C41.5586 26.9613 40.1443 27.7128 38.4266 27.693C37.0192 27.6801 36.9095 26.8026 36.9095 26.4409C36.9095 26.0791 37.0437 25.575 37.7556 25.3591C38.3227 25.1876 39.052 25.4991 39.3321 25.7675C39.6822 26.106 39.9657 26.2752 40.1711 26.2752C40.3765 26.2752 40.6157 26.1643 40.8444 25.9438C41.1189 25.6587 41.3462 25.3318 41.5178 24.9752C41.8085 24.4062 42.0126 23.7969 42.1234 23.1676C42.2729 22.2892 42.3439 21.3992 42.3358 20.5082V9.96264C42.3358 8.98592 42.3743 8.11189 42.1701 7.86217C42.1234 7.73614 41.8982 7.62178 41.4967 7.51909C41.1767 7.44744 40.8524 7.39638 40.5259 7.36622V6.67773H46.1085Z" fill="white"/>
<path d="M55.0262 6.88895L59.6939 19.2036C59.9775 19.9446 60.2062 20.6949 60.3801 21.0893C60.4746 21.3227 60.7185 21.5188 61.1117 21.6728C61.3963 21.7732 61.6891 21.8481 61.9869 21.8968L62.0336 22.3998H56.7007L56.7241 21.8968C56.9631 21.8753 57.2002 21.8363 57.4336 21.7801C57.7171 21.702 57.8572 21.5864 57.9295 21.4732C58.2597 20.9563 57.6459 19.2806 57.6459 19.2806L56.6762 16.5966H51.6491L50.5988 19.2339C50.3305 20.0216 50.1974 20.7509 50.1974 21.0473C50.1885 21.1355 50.201 21.2245 50.2339 21.3068C50.2669 21.3891 50.3192 21.4622 50.3865 21.5199C50.5932 21.6576 50.8266 21.7502 51.0715 21.7918C51.2977 21.8396 51.5264 21.875 51.7564 21.898L51.8043 22.401H46.916V21.898C47.1627 21.8759 47.4075 21.837 47.6489 21.7813C47.9488 21.7031 48.153 21.5923 48.2638 21.4499C48.5941 21.0251 48.964 20.1009 49.3747 19.046L53.487 8.48064C53.5185 8.40246 54.1195 7.02198 54.1743 6.93096C54.2278 6.832 54.3113 6.75257 54.4128 6.70412C54.5143 6.65568 54.6286 6.64072 54.7391 6.6614C54.8011 6.67495 54.8593 6.70249 54.909 6.74193C54.9588 6.78137 54.9988 6.83166 55.0262 6.88895V6.88895ZM56.1581 15.166L54.2163 9.89263L52.1835 15.1625L56.1581 15.166Z" fill="white"/>
<path d="M81.638 6.88903L86.3057 19.2036C86.5893 19.9446 86.818 20.7148 86.9919 21.1081C87.086 21.3415 87.3303 21.5359 87.7247 21.6915C88.0087 21.7927 88.3012 21.8681 88.5987 21.9168L88.6454 22.3999H83.3044L83.3289 21.9168C83.5675 21.8945 83.8041 21.8555 84.0372 21.8001C84.3208 21.7207 84.4608 21.6063 84.5332 21.492C84.8646 20.9762 84.2496 19.2807 84.2496 19.2807L83.281 16.5967H78.2527L77.2025 19.234C76.9341 20.0217 76.8011 20.7673 76.8011 21.0672C76.7921 21.1554 76.8047 21.2444 76.8376 21.3267C76.8705 21.409 76.9228 21.4821 76.9901 21.5398C77.1971 21.677 77.4304 21.7696 77.6751 21.8117C77.9013 21.8595 78.13 21.895 78.3601 21.9179L78.4079 22.401H73.5255V21.9179C73.7717 21.8953 74.0161 21.8563 74.2572 21.8012C74.5571 21.7219 74.7613 21.6122 74.8721 21.4698C75.2024 21.0439 75.5723 20.101 75.9831 19.0461L80.0953 8.48072C80.1268 8.40253 80.729 7.02205 80.7838 6.93103C80.8369 6.83204 80.9202 6.75255 81.0215 6.70408C81.1229 6.65561 81.2371 6.64068 81.3475 6.66147C81.4101 6.67453 81.4689 6.70186 81.5193 6.74132C81.5697 6.78078 81.6103 6.83133 81.638 6.88903V6.88903ZM82.7699 15.1661L80.8282 9.8927L78.7954 15.1626L82.7699 15.1661Z" fill="white"/>
<path d="M145.288 6.88903L149.956 19.2036C150.241 19.9446 150.551 20.695 150.724 21.0894C150.819 21.3228 150.98 21.5188 151.375 21.6729C151.659 21.7733 151.951 21.8483 152.249 21.8969L152.297 22.3999H146.955L146.979 21.8969C147.218 21.8753 147.454 21.8363 147.687 21.7802C147.881 21.732 148.055 21.6248 148.184 21.4733C148.603 21.0311 147.9 19.2807 147.9 19.2807L146.931 16.5967H141.903L140.853 19.234C140.584 20.0217 140.451 20.751 140.451 21.0474C140.442 21.1356 140.455 21.2246 140.488 21.3069C140.521 21.3892 140.573 21.4623 140.64 21.52C140.847 21.6576 141.08 21.7503 141.325 21.7919C141.551 21.8397 141.78 21.8751 142.01 21.8981L142.058 22.401H137.178V21.8981C137.424 21.8761 137.669 21.8371 137.91 21.7814C138.21 21.7032 138.414 21.5923 138.525 21.45C138.855 21.0252 139.225 20.101 139.636 19.0461L143.748 8.48072C143.779 8.40253 144.381 7.02205 144.436 6.93103C144.489 6.83204 144.573 6.75255 144.674 6.70408C144.775 6.65561 144.89 6.64068 145 6.66147C145.062 6.67486 145.12 6.70233 145.17 6.74178C145.22 6.78122 145.261 6.8316 145.288 6.88903V6.88903ZM146.421 15.1661L144.478 9.8927L142.446 15.1626L146.421 15.1661Z" fill="white"/>
<path d="M63.2974 6.77215C63.2974 6.77215 69.0153 6.73831 69.4681 6.75931C71.1835 6.83867 72.0774 7.35562 72.5733 7.67069C73.0886 8.00687 73.5079 8.47083 73.7904 9.01732C74.1245 9.64138 74.2875 10.3427 74.263 11.0501C74.2455 11.8273 73.8768 14.2172 71.5791 15.2931C70.5289 15.7832 69.5953 15.7132 68.7014 15.4284C68.2957 15.3086 67.925 15.0924 67.6209 14.7983C67.5042 14.6139 67.6734 14.4902 67.7749 14.5579C68.2399 14.731 68.734 14.8127 69.2301 14.7983C69.6211 14.8031 70.0088 14.7269 70.3689 14.5745C70.729 14.422 71.0537 14.1967 71.3224 13.9126C71.9198 13.314 72.4403 12.224 72.4403 11.3103C72.4403 10.1913 72.1381 9.5156 71.6491 8.85979C71.1602 8.20397 70.1099 7.76287 69.0819 7.76287C68.3724 7.76287 67.8208 7.81811 67.4272 7.92858C67.3854 7.9389 67.3476 7.96118 67.3184 7.99269C67.2892 8.0242 67.2698 8.06357 67.2626 8.10595C67.2131 8.34292 67.1854 8.58393 67.1798 8.82595C67.1549 9.20404 67.1428 9.77155 67.1436 10.5285V18.9654C67.1436 20.0215 67.2066 20.8897 67.3326 21.2047C67.412 21.4101 67.6909 21.5747 68.1717 21.7007C68.5102 21.7845 68.8535 21.8476 69.1997 21.8897L69.2476 22.3927H63.2962V21.9061C63.6061 21.8777 63.9139 21.8305 64.2181 21.7649C64.6114 21.6704 64.8482 21.4906 64.9264 21.3494C65.0373 21.1592 65.0921 20.2362 65.0921 18.9444V10.0104C65.0921 9.07684 65.07 8.29033 64.9264 7.97759C64.8797 7.85156 64.63 7.59484 64.2263 7.4338C63.9298 7.31404 63.6124 7.25492 63.2927 7.25993L63.2974 6.77215Z" fill="white"/>
<path d="M102.12 9.9393C102.12 8.97853 102.065 8.28538 101.954 7.85984C101.891 7.64162 101.642 7.50975 101.146 7.38723C100.798 7.31184 100.444 7.26771 100.088 7.25536V6.67773H105.524L105.515 7.25536C105.156 7.27601 104.799 7.32636 104.448 7.4059C103.921 7.53193 103.689 7.65446 103.609 7.85984C103.483 8.34839 103.42 9.08122 103.42 10.0583V22.4371H102.61L102.21 21.8933L93.0914 8.89957V18.9912C93.0914 20.0309 93.1089 20.7637 93.2198 21.1885C93.3365 21.5164 93.557 21.5713 94.0495 21.7055C94.3866 21.7939 94.7293 21.8598 95.0752 21.9027V22.3951H89.6396V21.8992C89.6396 21.8992 90.2231 21.8233 90.7144 21.7055C91.2057 21.5876 91.4437 21.5071 91.5791 21.1885C91.7366 20.7789 91.7658 19.9924 91.7658 18.92V9.6324C91.7658 8.86067 91.711 8.26982 91.6013 7.85984C91.553 7.73381 91.285 7.61945 90.7972 7.51676C90.3083 7.41523 89.7342 7.36389 89.7342 7.36389V6.67773H94.0355C94.0355 6.67773 97.2877 11.6103 102.046 18.2583C102.098 17.9382 102.122 17.6141 102.118 17.2898L102.12 9.9393Z" fill="white"/>
<path d="M113.458 10.8845C113.485 9.66043 113.925 8.56935 114.868 7.78284C115.81 6.99633 116.896 6.68359 118.135 6.68359C118.609 6.69408 119.081 6.73305 119.55 6.80029C120.29 6.94242 121.021 7.1271 121.74 7.35341L122.025 10.7667L121.363 10.7527C121.23 9.97455 120.875 9.25145 120.34 8.67088C119.749 8.00689 118.972 7.70699 117.968 7.66381C117.015 7.62297 116.258 7.94271 115.868 8.41999C115.477 8.89726 115.365 9.44572 115.365 10.1459C115.365 11.4458 116.181 12.1028 116.476 12.342C116.77 12.5813 116.984 12.7481 117.12 12.8427C117.255 12.9372 117.526 13.1145 117.931 13.3678C118.336 13.621 118.595 13.782 118.707 13.845L119.542 14.3585C120.019 14.6533 120.345 14.8603 120.521 14.9793C120.806 15.1783 121.078 15.3934 121.338 15.6234C122.628 16.7472 122.855 18.074 122.855 18.4521C122.855 19.7252 122.388 20.8233 121.395 21.6425C120.402 22.4617 119.204 22.8199 117.867 22.8199C117.459 22.818 117.053 22.7903 116.649 22.7371C116.22 22.681 115.862 22.625 115.576 22.569C115.29 22.513 114.927 22.4352 114.489 22.3356C114.052 22.2318 113.57 22.1326 113.57 22.1326L113.033 18.3354L113.725 18.3296C113.725 18.3296 113.842 19.0356 114.425 20.0169C115.125 21.1839 116.423 21.8444 117.926 21.8444C118.668 21.8634 119.39 21.6083 119.955 21.1279C120.512 20.651 120.79 19.9749 120.79 19.0997C120.78 18.6982 120.687 18.3031 120.516 17.9393C120.346 17.5756 120.102 17.2511 119.8 16.9864C119.609 16.8241 119.405 16.6766 119.191 16.5453C119.047 16.4496 118.785 16.2991 118.403 16.0914C118.022 15.8837 117.759 15.7413 117.616 15.662C117.154 15.3912 116.831 15.2002 116.649 15.089C116.479 14.9851 116.176 14.7914 115.743 14.5055C115.407 14.2979 115.098 14.0494 114.823 13.7657C114.628 13.551 113.422 12.5824 113.458 10.8845Z" fill="white"/>
<path d="M126.305 21.1665V7.87054C126.314 7.81803 126.04 7.59981 125.499 7.42361C125.195 7.33573 124.882 7.28057 124.566 7.25907V6.77246L135.068 6.7923L135.699 9.84499H134.999C134.809 9.22359 134.447 8.66836 133.956 8.24279C133.581 7.92656 132.948 7.87638 132.206 7.87638H128.291L128.298 13.8767H132.07C132.887 13.8767 133.096 13.6562 133.194 13.4648C133.35 13.1602 133.532 12.4274 133.532 12.4274H134.048V16.7019H133.532C133.492 16.3718 133.398 16.0505 133.254 15.7508C133.054 15.3261 132.67 15.1487 132.05 15.1487H128.298V21.142L131.381 21.163C131.381 21.163 133.831 21.1549 134.347 20.8876C134.58 20.7616 134.781 20.5376 135.067 19.9763C135.282 19.4943 135.473 19.0016 135.638 18.5001H136.394L135.485 22.4198L124.566 22.3965V21.9134C125.344 21.806 125.986 21.4863 126.305 21.1665Z" fill="white"/>
<path d="M159.7 6.76172C161.482 6.76172 162.461 7.35568 162.997 7.67075C163.546 7.99933 164.002 8.46292 164.321 9.01739C164.676 9.63495 164.856 10.3379 164.84 11.0502C164.84 11.7122 164.592 12.4054 164.096 13.1297C163.6 13.8555 162.743 14.4821 161.892 14.8801C161.735 14.9442 161.687 15.0224 161.751 15.1134C162.539 16.7681 163.393 18.347 164.418 19.4649C166.159 21.6144 167.328 22.1244 168.605 22.6576C168.854 22.7615 168.775 22.9202 168.581 22.9249C168.155 22.9309 167.729 22.8962 167.309 22.821C165.224 22.4569 163.471 21.0811 162.011 19.0402C161.759 18.694 161.472 18.2801 161.148 17.7985C160.826 17.3189 159.8 15.6211 159.651 15.495C159.501 15.369 159.483 15.2616 159.166 15.187C158.776 15.126 158.382 15.0944 157.987 15.0924C157.892 15.0914 157.797 15.0953 157.703 15.1041C157.63 15.1184 157.564 15.1561 157.514 15.2115C157.48 15.25 157.454 15.295 157.438 15.3437C157.422 15.3924 157.416 15.4438 157.42 15.495C157.42 15.495 157.483 20.7835 157.609 21.0963C157.688 21.3017 157.986 21.5199 158.466 21.6459C158.947 21.7719 159.517 21.8921 159.517 21.8921V22.3951H153.488V21.8945C153.488 21.8945 154.072 21.7719 154.454 21.6669C155.089 21.4919 155.302 21.3518 155.333 21.0298V7.97766C155.333 7.97766 155.216 7.63925 154.493 7.4292C154.187 7.34831 153.875 7.29289 153.559 7.2635V6.77222L159.7 6.76172ZM159.358 7.76528C158.648 7.76528 158.351 7.75828 157.991 7.82246C157.928 7.83763 157.42 7.86096 157.42 8.65564V13.3899C157.42 13.8473 158.105 14.0756 159.476 14.0749H160.066C160.618 14.0749 161.19 13.7995 161.78 13.2487C162.371 12.6979 162.666 11.9651 162.666 11.0502C162.662 8.86103 161.557 7.76606 159.35 7.76528H159.358Z" fill="white"/>
<path d="M181.31 18.1323L180.518 21.5106C180.198 21.6789 179.869 21.8289 179.532 21.9598C178.41 22.3437 177.208 22.6378 174.95 22.5351C172.901 22.4429 171.156 21.7825 169.72 20.2759C169.023 19.5661 168.474 18.7251 168.104 17.8015C167.734 16.8779 167.551 15.8901 167.565 14.8952C167.565 12.6897 168.362 10.7666 169.796 9.1516C170.756 8.06869 172.786 6.85742 175.206 6.85742C178.457 6.85742 180.407 7.81197 180.407 7.81197L180.82 10.7946L180.029 11.028C180.029 11.028 179.924 10.6208 179.854 10.4107C179.784 10.2007 179.365 8.93689 177.245 8.10487C176.677 7.88198 176.005 7.83647 175.276 7.83647C174.191 7.83647 172.634 8.50862 171.563 9.85176C170.514 11.1635 169.951 12.7971 169.969 14.4763C169.95 15.6409 170.165 16.7975 170.604 17.8767C171.039 18.9328 171.566 19.7532 172.506 20.444C173.465 21.162 174.633 21.5449 175.831 21.5339C177.369 21.5339 178.431 21.1558 179.27 20.2503C179.542 19.9568 179.765 19.622 179.931 19.2584C180.094 18.878 180.538 17.9187 180.538 17.9187L181.31 18.1323Z" fill="white"/>
<path d="M196.075 7.90435V21.2739C196.094 21.4232 196.332 21.6485 196.82 21.7476C197.228 21.8305 197.707 21.8994 197.707 21.8994V22.3778H192.214V21.8994C192.214 21.8994 192.713 21.8387 193.114 21.7593C193.639 21.6555 193.954 21.5458 193.957 21.2739L193.943 14.9725L186.838 14.9853V21.268V21.2785C186.838 21.4489 187.093 21.6531 187.581 21.7523C187.99 21.8352 188.468 21.904 188.468 21.904V22.3825H182.975V21.904C182.975 21.904 183.475 21.8433 183.875 21.764C184.4 21.6601 184.709 21.5504 184.713 21.2785V7.89852C184.713 7.66513 184.393 7.53211 183.975 7.41425C183.68 7.33948 183.379 7.28874 183.076 7.26254V6.83545H188.592V7.26254C188.27 7.28301 187.95 7.3259 187.634 7.39091C187.284 7.48659 186.838 7.63479 186.838 7.89852L186.852 13.7332H193.935L193.961 7.90786V7.90202C193.961 7.66864 193.635 7.53561 193.217 7.41775C192.922 7.34298 192.621 7.29225 192.318 7.26605V6.83895H197.834V7.26605C197.512 7.28651 197.192 7.3294 196.876 7.39441C196.526 7.49009 196.08 7.6383 196.08 7.90202L196.075 7.90435Z" fill="white"/>
<path d="M15.5468 22.9453C15.5468 23.104 15.659 23.1689 15.7966 23.09L21.1288 20.0136C21.2014 19.966 21.2619 19.902 21.3053 19.8268C21.3487 19.7516 21.3738 19.6672 21.3786 19.5805V13.4286C21.3786 13.2699 21.2664 13.2042 21.1288 13.284L15.801 16.3604C15.7282 16.4078 15.6677 16.4718 15.6243 16.547C15.5808 16.6223 15.5558 16.7067 15.5511 16.7935L15.5468 22.9453Z" fill="#E6C620"/>
<path d="M8.10608 18.6491C8.10608 18.8077 8.21918 18.8726 8.35594 18.7937L13.6846 15.7173C13.7573 15.6698 13.8178 15.6059 13.8613 15.5306C13.9047 15.4554 13.9297 15.371 13.9345 15.2842V9.13235C13.9345 8.97367 13.8222 8.90879 13.6846 8.98769L8.35594 12.0641C8.28346 12.1118 8.22312 12.1759 8.17974 12.251C8.13637 12.3262 8.11114 12.4105 8.10608 12.4972V18.6491Z" fill="#6941A0"/>
<path d="M28.1337 9.23668L24.0429 11.5985C23.9053 11.6783 23.9053 11.8081 24.0429 11.887L27.8575 14.0902L28.565 14.4978C28.7018 14.5776 28.8149 14.5127 28.8149 14.3541V11.7423C28.8156 10.9094 28.6585 10.0839 28.352 9.30945C28.3467 9.28698 28.3358 9.26622 28.3203 9.24916C28.3047 9.2321 28.2851 9.2193 28.2632 9.21201C28.2413 9.20471 28.2179 9.20314 28.1952 9.20747C28.1725 9.21179 28.1513 9.22184 28.1337 9.23668Z" fill="#CA1B4D"/>
<path d="M1.34747 9.23708C1.46582 9.30634 5.43821 11.5989 5.43821 11.5989C5.57585 11.6787 5.57585 11.8085 5.43821 11.8874L1.62363 14.0906L0.916123 14.4982C0.77848 14.578 0.666261 14.5131 0.666261 14.3545V11.7427C0.665704 10.9099 0.82246 10.0845 1.12829 9.30985C1.13367 9.28736 1.1447 9.26661 1.16033 9.24958C1.17596 9.23254 1.19569 9.21977 1.21763 9.21249C1.23958 9.2052 1.26302 9.20364 1.28574 9.20794C1.30846 9.21224 1.3297 9.22227 1.34747 9.23708V9.23708Z" fill="#CA1B4D"/>
<path d="M28.1337 22.8407L24.0429 20.4789C23.9053 20.3991 23.9053 20.2693 24.0429 20.1904L27.8575 17.9872L28.565 17.5796C28.7018 17.4998 28.8149 17.5647 28.8149 17.7233V20.3395C28.8156 21.1724 28.6585 21.9979 28.352 22.7723C28.3462 22.7944 28.3348 22.8147 28.3191 22.8313C28.3033 22.8478 28.2836 22.8601 28.2617 22.8669C28.2399 22.8737 28.2167 22.8749 28.1943 22.8703C28.1719 22.8658 28.1511 22.8556 28.1337 22.8407Z" fill="#CA1B4D"/>
<path d="M1.34747 22.8407C1.46582 22.7715 5.43821 20.4789 5.43821 20.4789C5.57585 20.3991 5.57585 20.2693 5.43821 20.1904L1.62363 17.9872L0.916123 17.5796C0.77848 17.4998 0.666261 17.5647 0.666261 17.7233V20.3395C0.665704 21.1723 0.82246 21.9977 1.12829 22.7723C1.13423 22.7945 1.14566 22.8147 1.16153 22.8312C1.1774 22.8478 1.19719 22.86 1.21906 22.8668C1.24093 22.8737 1.26417 22.8748 1.28662 22.8703C1.30907 22.8657 1.33 22.8555 1.34747 22.8407V22.8407Z" fill="#CA1B4D"/>
<path d="M2.1541 7.84112L6.24396 10.203C6.38161 10.2819 6.49383 10.217 6.49383 10.0583V4.83663C6.49383 4.67794 6.38161 4.61306 6.24396 4.69284L3.98292 5.99827C3.26028 6.41381 2.6228 6.96234 2.10413 7.61492C2.08741 7.63106 2.07511 7.65122 2.0684 7.67347C2.0617 7.69572 2.06081 7.71932 2.06582 7.74201C2.07084 7.7647 2.08158 7.78572 2.09704 7.80307C2.11249 7.82042 2.13214 7.83352 2.1541 7.84112V7.84112Z" fill="#CA1B4D"/>
<path d="M15.5468 31.0357V26.3155C15.5468 26.1559 15.659 26.0911 15.7966 26.1709L19.6112 28.3732L20.3187 28.7817C20.4555 28.8606 20.4555 28.9904 20.3187 29.0701L18.0603 30.3756C17.3394 30.7928 16.546 31.0698 15.7221 31.1918C15.6616 31.2005 15.5459 31.1988 15.5468 31.0357Z" fill="#CA1B4D"/>
<path d="M13.9344 1.03964C13.9344 1.17641 13.9344 5.76249 13.9344 5.76249C13.9344 5.92118 13.8213 5.98693 13.6845 5.90715L9.86994 3.70485L9.16244 3.2963C9.02479 3.21739 9.02479 3.08676 9.16244 3.00786L11.4235 1.70244C12.1452 1.28497 12.9395 1.00801 13.7643 0.886216C13.8195 0.876573 13.9344 0.876573 13.9344 1.03964Z" fill="#CA1B4D"/>
<path d="M27.3271 24.2368L23.2329 21.8749C23.0953 21.796 22.983 21.8609 22.983 22.0196V27.2413C22.983 27.3999 23.0961 27.4648 23.2329 27.385L25.4948 26.0796C26.2178 25.6631 26.8556 25.1137 27.3745 24.4603C27.3906 24.4443 27.4025 24.4245 27.409 24.4027C27.4156 24.3809 27.4165 24.3579 27.4118 24.3356C27.4071 24.3134 27.3969 24.2927 27.3821 24.2754C27.3673 24.2581 27.3484 24.2448 27.3271 24.2368Z" fill="#CA1B4D"/>
<path d="M21.1287 27.385C21.2663 27.4648 21.3785 27.3999 21.3785 27.2413V22.0196C21.3785 21.8609 21.2663 21.796 21.1287 21.8749L16.6066 24.4857C16.4698 24.5655 16.4698 24.6953 16.6066 24.7742L21.1287 27.385Z" fill="#CA1B4D"/>
<path d="M23.2329 13.284C23.0961 13.2042 22.983 13.2699 22.983 13.4286V18.6495C22.983 18.8081 23.0961 18.873 23.2329 18.7941L27.755 16.1833C27.8926 16.1044 27.8926 15.9737 27.755 15.8948L23.2329 13.284Z" fill="#CA1B4D"/>
<path d="M15.7966 8.98769C15.659 8.90879 15.5468 8.97367 15.5468 9.13235V14.354C15.5468 14.5127 15.659 14.5776 15.7966 14.4978L20.3187 11.887C20.4555 11.8081 20.4555 11.6783 20.3187 11.5985L15.7966 8.98769Z" fill="white"/>
<path d="M8.35594 4.69284C8.21918 4.61306 8.10608 4.67794 8.10608 4.83663V10.0583C8.10608 10.217 8.21918 10.2819 8.35594 10.203L12.878 7.59213C13.0157 7.51235 13.0157 7.3826 12.878 7.30369L8.35594 4.69284Z" fill="#CA1B4D"/>
<path d="M13.6845 23.0897C13.8222 23.1686 13.9344 23.1037 13.9344 22.945V17.7233C13.9344 17.5647 13.8222 17.4998 13.6845 17.5796L9.16244 20.1904C9.02479 20.2693 9.02479 20.3991 9.16244 20.4789L13.6845 23.0897Z" fill="#666464"/>
<path d="M6.24395 18.7941C6.38159 18.873 6.49381 18.8081 6.49381 18.6495V13.4286C6.49381 13.2699 6.38159 13.2042 6.24395 13.284L1.72274 15.8948C1.5851 15.9737 1.5851 16.1044 1.72274 16.1833L6.24395 18.7941Z" fill="#CA1B4D"/>
<path d="M13.9344 31.0354C13.9344 30.8987 13.9344 26.3126 13.9344 26.3126C13.9344 26.153 13.8213 26.0881 13.6845 26.1679L9.86994 28.3702L9.16244 28.7788C9.02479 28.8577 9.02479 28.9874 9.16244 29.0672L11.4235 30.3726C12.145 30.791 12.9393 31.0689 13.7643 31.1915C13.8195 31.2003 13.9344 31.1985 13.9344 31.0354Z" fill="#CA1B4D"/>
<path d="M15.5468 1.03964V5.76249C15.5468 5.92118 15.659 5.98693 15.7966 5.90715L19.6112 3.70485L20.3187 3.2963C20.4555 3.21739 20.4555 3.08676 20.3187 3.00786L18.0603 1.70244C17.3394 1.2852 16.546 1.00825 15.7221 0.886216C15.6616 0.876573 15.5459 0.876573 15.5468 1.03964Z" fill="#CA1B4D"/>
<path d="M27.327 7.84134C27.4296 7.7826 27.4261 7.71247 27.4024 7.66162C26.9338 7.06142 26.366 6.54579 25.7235 6.13701L25.6534 6.09406C25.5727 6.04408 25.4921 5.99586 25.4097 5.9494L24.1472 5.21997L22.4306 4.22929C22.3532 4.18994 22.2676 4.16943 22.1807 4.16943C22.0939 4.16943 22.0083 4.18994 21.9309 4.22929L16.6022 7.30567C16.4654 7.38457 16.4654 7.51433 16.6022 7.59411L19.2665 9.13186L21.9309 10.6705C22.0084 10.7094 22.094 10.7297 22.1807 10.7297C22.2675 10.7297 22.3531 10.7094 22.4306 10.6705L24.1472 9.67893L27.3227 7.84573L27.327 7.84134Z" fill="#E6C620"/>
<path d="M12.878 24.4857L7.55018 21.4093C7.47264 21.3704 7.38708 21.3501 7.30031 21.3501C7.21355 21.3501 7.12799 21.3704 7.05045 21.4093L5.36015 22.3851C4.19412 23.0593 2.27588 24.1666 2.15927 24.2332H2.15314C2.04092 24.2981 2.0567 24.3752 2.08563 24.427C2.11456 24.4787 2.15927 24.5225 2.19872 24.5699C2.40188 24.8144 2.6222 25.0441 2.85801 25.2572V25.2572C2.93166 25.3238 3.00706 25.3878 3.08333 25.451L3.11051 25.4738C3.17714 25.5272 3.24377 25.579 3.31215 25.6307L3.3779 25.6798C3.43314 25.7201 3.48925 25.7587 3.54536 25.7981C3.58218 25.8227 3.61812 25.8481 3.65582 25.8727C3.69352 25.8972 3.74349 25.9288 3.78733 25.9559C3.85045 25.9954 3.91358 26.0349 3.97845 26.0726L5.35577 26.8677L7.04607 27.8435C7.12348 27.8829 7.20909 27.9034 7.29593 27.9034C7.38277 27.9034 7.46838 27.8829 7.5458 27.8435L12.8736 24.7671C13.0156 24.6952 13.0156 24.5655 12.878 24.4857Z" fill="#6941A0"/>
<path d="M263.568 14.5C263.568 13.4337 263.744 12.4677 264.095 11.6022C264.459 10.7366 264.961 10.0027 265.6 9.40054C266.24 8.78584 266.999 8.31541 267.877 7.98925C268.756 7.66308 269.715 7.5 270.756 7.5C271.798 7.5 272.757 7.66308 273.635 7.98925C274.514 8.31541 275.273 8.78584 275.912 9.40054C276.552 10.0027 277.048 10.7366 277.399 11.6022C277.763 12.4677 277.945 13.4337 277.945 14.5C277.945 15.5663 277.763 16.5323 277.399 17.3978C277.048 18.2634 276.552 19.0036 275.912 19.6183C275.273 20.2204 274.514 20.6846 273.635 21.0108C272.757 21.3369 271.798 21.5 270.756 21.5C269.715 21.5 268.756 21.3369 267.877 21.0108C266.999 20.6846 266.24 20.2204 265.6 19.6183C264.961 19.0036 264.459 18.2634 264.095 17.3978C263.744 16.5323 263.568 15.5663 263.568 14.5ZM266.617 14.5C266.617 15.1272 266.711 15.7043 266.899 16.2312C267.1 16.7455 267.382 17.1971 267.746 17.586C268.109 17.9624 268.542 18.2572 269.044 18.4704C269.558 18.6837 270.129 18.7903 270.756 18.7903C271.384 18.7903 271.948 18.6837 272.45 18.4704C272.964 18.2572 273.403 17.9624 273.767 17.586C274.131 17.1971 274.407 16.7455 274.595 16.2312C274.796 15.7043 274.896 15.1272 274.896 14.5C274.896 13.8853 274.796 13.3145 274.595 12.7876C274.407 12.2608 274.131 11.8091 273.767 11.4328C273.403 11.0439 272.964 10.7428 272.45 10.5296C271.948 10.3163 271.384 10.2097 270.756 10.2097C270.129 10.2097 269.558 10.3163 269.044 10.5296C268.542 10.7428 268.109 11.0439 267.746 11.4328C267.382 11.8091 267.1 12.2608 266.899 12.7876C266.711 13.3145 266.617 13.8853 266.617 14.5Z" fill="white"/>
<path d="M247.377 7.83838H252.345C252.922 7.83838 253.499 7.88229 254.076 7.9701C254.666 8.04537 255.193 8.20845 255.657 8.45935C256.121 8.6977 256.497 9.03641 256.786 9.47547C257.074 9.91454 257.219 10.4979 257.219 11.2255C257.219 11.9782 257.005 12.6054 256.579 13.1072C256.165 13.5964 255.613 13.9477 254.923 14.161V14.1986C255.362 14.2613 255.757 14.3868 256.109 14.5749C256.472 14.7506 256.78 14.9826 257.031 15.2712C257.294 15.5472 257.495 15.8733 257.633 16.2497C257.771 16.626 257.84 17.0274 257.84 17.454C257.84 18.1565 257.689 18.7461 257.388 19.2228C257.087 19.6869 256.698 20.0633 256.221 20.3518C255.745 20.6404 255.205 20.8473 254.603 20.9728C254.014 21.0982 253.424 21.161 252.834 21.161H247.377V7.83838ZM250.313 13.1636H252.439C252.665 13.1636 252.884 13.1386 253.098 13.0884C253.324 13.0382 253.524 12.9567 253.7 12.8438C253.876 12.7309 254.014 12.5803 254.114 12.3921C254.227 12.204 254.283 11.9782 254.283 11.7147C254.283 11.4387 254.221 11.2129 254.095 11.0373C253.982 10.8491 253.832 10.7049 253.643 10.6045C253.455 10.5041 253.242 10.4352 253.004 10.3975C252.765 10.3473 252.533 10.3222 252.307 10.3222H250.313V13.1636ZM250.313 18.6771H252.947C253.173 18.6771 253.399 18.652 253.625 18.6018C253.863 18.5516 254.076 18.4638 254.264 18.3384C254.453 18.2129 254.603 18.0498 254.716 17.8491C254.841 17.6484 254.904 17.4038 254.904 17.1153C254.904 16.8016 254.823 16.5507 254.66 16.3626C254.509 16.1619 254.315 16.0113 254.076 15.911C253.838 15.8106 253.581 15.7416 253.305 15.704C253.029 15.6663 252.772 15.6475 252.533 15.6475H250.313V18.6771Z" fill="white"/>
<path d="M233.11 7.83838H235.537L241.333 21.161H238.021L236.873 18.3384H231.699L230.588 21.161H227.352L233.11 7.83838ZM234.239 11.7147L232.621 15.8545H235.876L234.239 11.7147Z" fill="white"/>
<path d="M214.027 7.83838H216.963V18.4513H222.401V21.161H214.027V7.83838Z" fill="white"/>
</svg>
