<svg width="641" height="640" viewBox="0 0 641 640" fill="none" xmlns="http://www.w3.org/2000/svg">
<path d="M335.671 452.09C335.671 455.09 337.821 456.37 340.451 454.85L442.403 396C443.792 395.09 444.948 393.866 445.778 392.428C446.608 390.99 447.09 389.378 447.184 387.72V270C447.184 267 445.034 265.72 442.403 267.24L340.401 326.1C339.012 327.009 337.855 328.232 337.025 329.67C336.194 331.109 335.714 332.722 335.621 334.38L335.671 452.09Z" fill="white"/>
<path d="M193.309 369.9C193.309 372.9 195.459 374.18 198.089 372.66L300.059 313.8C301.448 312.89 302.604 311.666 303.434 310.228C304.264 308.79 304.746 307.178 304.84 305.52V187.8C304.84 184.8 302.69 183.52 300.059 185.04L198.099 243.9C196.709 244.809 195.553 246.032 194.722 247.47C193.892 248.909 193.411 250.522 193.319 252.18L193.309 369.9Z" fill="white"/>
<path d="M442.403 537C445.033 538.52 447.184 537.28 447.184 534.24V434.37C447.184 431.37 445.033 430.09 442.403 431.61L355.875 481.56C353.245 483.08 353.245 485.56 355.875 487.09L442.403 537Z" fill="white"/>
<path d="M482.808 267.23C480.178 265.71 478.027 266.95 478.027 269.99V369.9C478.027 372.9 480.178 374.18 482.808 372.66L569.336 322.66C571.966 321.14 571.966 318.66 569.336 317.13L482.808 267.23Z" fill="white"/>
<path d="M340.464 185C337.834 183.48 335.684 184.72 335.684 187.76V287.67C335.684 290.67 337.834 291.95 340.464 290.43L426.992 240.43C429.622 238.91 429.622 236.43 426.992 234.9L340.464 185Z" fill="white"/>
<path d="M198.089 102.85C195.459 101.33 193.309 102.57 193.309 105.61V205.52C193.309 208.52 195.459 209.8 198.089 208.28L284.617 158.33C287.247 156.81 287.247 154.33 284.617 152.8L198.089 102.85Z" fill="white"/>
<path d="M300.059 454.85C302.69 456.37 304.84 455.13 304.84 452.09V352.18C304.84 349.18 302.69 347.9 300.059 349.42L213.531 399.37C210.901 400.89 210.901 403.37 213.531 404.9L300.059 454.85Z" fill="white"/>
<path d="M157.684 372.66C160.315 374.18 162.465 372.93 162.465 369.9V270C162.465 267 160.315 265.72 157.684 267.24L71.1563 317.19C68.526 318.71 68.526 321.19 71.1563 322.72L157.684 372.66Z" fill="white"/>
<path d="M304.84 606.94C304.84 604.32 304.84 516.56 304.84 516.56C304.84 513.56 302.69 512.28 300.06 513.8L227.061 555.94L213.531 563.76C210.901 565.27 210.901 567.76 213.531 569.28L256.8 594.28C270.597 602.258 285.776 607.557 301.54 609.9C302.65 610 304.85 610 304.84 606.94Z" fill="white"/>
<path d="M335.684 33C335.684 35.62 335.684 123.38 335.684 123.38C335.684 126.38 337.834 127.66 340.464 126.14L413.463 84L426.992 76.18C429.622 74.67 429.622 72.18 426.992 70.66L383.723 45.66C369.928 37.6628 354.745 32.3493 338.974 30C337.874 29.85 335.674 29.88 335.684 33Z" fill="white"/>
<path d="M561.097 163.09C563.097 161.97 562.987 160.63 562.537 159.65C553.565 148.163 542.698 138.291 530.404 130.46C529.964 130.18 529.504 129.92 529.064 129.64C527.524 128.69 525.984 127.76 524.403 126.87L500.231 112.87L467.378 93.87C465.895 93.125 464.258 92.7371 462.598 92.7371C460.938 92.7371 459.301 93.125 457.817 93.87L355.868 152.8C353.247 154.32 353.247 156.8 355.868 158.33L406.872 187.75L457.877 217.18C459.361 217.93 461 218.32 462.663 218.32C464.325 218.32 465.964 217.93 467.448 217.18L500.291 198.18C522.713 185.24 559.017 164.27 561.067 163.1L561.097 163.09Z" fill="white"/>
<path d="M284.621 481.56L182.696 422.71C181.213 421.96 179.574 421.57 177.912 421.57C176.25 421.57 174.611 421.96 173.128 422.71L140.803 441.38L79.5615 476.74L79.4516 476.8C77.3019 478.03 77.5918 479.52 78.1417 480.5C78.8616 481.41 79.5715 482.34 80.3114 483.23L80.3614 483.3C84.2598 487.969 88.4794 492.359 92.9896 496.44V496.44C94.3893 497.71 95.8291 498.94 97.2989 500.15L97.8188 500.58C99.0887 501.58 100.368 502.58 101.678 503.58C102.088 503.9 102.508 504.21 102.928 504.52C103.928 505.29 105.058 506.04 106.138 506.78C106.838 507.26 107.537 507.78 108.247 508.21C108.957 508.64 109.927 509.28 110.767 509.81C111.977 510.56 113.177 511.32 114.416 512.04L140.773 527.26L173.098 545.92C174.581 546.67 176.22 547.06 177.882 547.06C179.544 547.06 181.183 546.67 182.666 545.92L284.591 487.07C287.251 485.57 287.251 483.08 284.621 481.56Z" fill="white"/>
<path d="M576.515 189.81L498.28 235C495.651 236.52 495.651 239 498.28 240.53L571.247 282.67L584.771 290.48C587.4 292 589.559 290.75 589.559 287.72V237.72C589.572 221.784 586.571 205.989 580.713 191.17C580.313 190.15 579.173 188.26 576.515 189.81Z" fill="white"/>
<path d="M64.0046 189.81L142.305 235C144.935 236.52 144.935 239 142.305 240.53L69.3139 282.67L55.7856 290.48C53.1459 292 50.9961 290.75 50.9961 287.72V237.72C50.9823 221.784 53.9848 205.989 59.8451 191.17C60.215 190.15 61.3149 188.26 64.0046 189.81Z" fill="white"/>
<path d="M576.515 450.08L498.28 404.9C495.651 403.38 495.651 400.9 498.28 399.37L571.247 357.23L584.771 349.42C587.4 347.9 589.559 349.15 589.559 352.18V402.18C589.572 418.116 586.571 433.911 580.713 448.73C580.313 449.73 579.173 451.63 576.515 450.08Z" fill="white"/>
<path d="M64.0046 450.08L142.305 404.9C144.935 403.38 144.935 400.9 142.305 399.37L69.3139 357.23L55.7856 349.42C53.1459 347.9 50.9961 349.15 50.9961 352.18V402.18C50.9823 418.116 53.9848 433.911 59.8451 448.73C60.215 449.73 61.3149 451.63 64.0046 450.08Z" fill="white"/>
<path d="M79.4217 163.09C81.7016 164.39 157.685 208.28 157.685 208.28C160.315 209.8 162.465 208.55 162.465 205.52V105.61C162.465 102.61 160.315 101.33 157.685 102.85L114.419 127.85C100.61 135.809 88.4308 146.306 78.5218 158.79C77.8319 159.64 76.762 161.56 79.4217 163.09Z" fill="white"/>
<path d="M335.684 606.94C335.684 604.32 335.684 516.56 335.684 516.56C335.684 513.56 337.834 512.28 340.464 513.8L413.463 555.94L426.992 563.76C429.622 565.27 429.622 567.76 426.992 569.28L383.723 594.28C369.927 602.258 354.747 607.557 338.984 609.9C337.874 610 335.674 610 335.684 606.94Z" fill="white"/>
<path d="M304.84 33C304.84 35.62 304.84 123.38 304.84 123.38C304.84 126.38 302.69 127.66 300.06 126.14L227.061 84L213.531 76.18C210.901 74.67 210.901 72.18 213.531 70.66L256.8 45.66C270.595 37.6628 285.779 32.3493 301.55 30C302.65 29.85 304.85 29.88 304.84 33Z" fill="white"/>
<path d="M561.101 476.8C558.82 475.5 482.809 431.61 482.809 431.61C480.178 430.09 478.027 431.34 478.027 434.37V534.28C478.027 537.28 480.178 538.56 482.809 537.04L526.091 512.04C539.905 504.081 552.089 493.584 562.001 481.1C562.691 480.25 563.762 478.33 561.101 476.8Z" fill="white"/>
</svg>
