<svg width="2350" height="365" viewBox="0 0 2350 365" fill="none" xmlns="http://www.w3.org/2000/svg">
<path d="M525.925 76.1724V84.0254C522.302 84.4134 518.709 85.0449 515.17 85.9155C510.498 87.1667 508.635 88.5776 507.623 89.6823C504.961 92.6505 505.201 104.324 505.201 114.759V231.77C505.201 254.397 499.371 274.096 486.7 290.814C474.028 307.532 457.896 316.104 438.303 315.877C422.251 315.731 421 305.722 421 301.596C421 297.469 422.531 291.719 430.65 289.257C437.119 287.3 445.438 290.854 448.632 293.915C452.625 297.775 455.86 299.705 458.202 299.705C460.545 299.705 463.273 298.441 465.882 295.925C469.013 292.674 471.605 288.945 473.562 284.878C476.879 278.387 479.207 271.438 480.47 264.26C482.175 254.241 482.986 244.089 482.893 233.926V113.641C482.893 102.5 483.332 92.5307 481.003 89.6823C480.47 88.2448 477.902 86.9404 473.323 85.7691C469.672 84.9518 465.973 84.3694 462.249 84.0254V76.1724H525.925Z" fill="#1A1A1A"/>
<path d="M627.642 78.5814L680.883 219.045C684.118 227.497 686.727 236.055 688.71 240.554C689.788 243.216 692.57 245.453 697.056 247.21C700.301 248.354 703.642 249.21 707.038 249.765L707.571 255.502H646.743L647.009 249.765C649.735 249.519 652.44 249.074 655.101 248.434C658.336 247.542 659.933 246.225 660.758 244.933C664.525 239.037 657.524 219.923 657.524 219.923L646.463 189.31H589.122L577.143 219.391C574.082 228.375 572.564 236.694 572.564 240.075C572.462 241.081 572.605 242.097 572.981 243.035C573.356 243.974 573.953 244.808 574.721 245.466C577.079 247.036 579.741 248.093 582.534 248.567C585.114 249.112 587.722 249.517 590.347 249.778L590.893 255.515H535.136V249.778C537.949 249.527 540.742 249.082 543.495 248.447C546.915 247.556 549.245 246.291 550.509 244.667C554.276 239.822 558.495 229.281 563.181 217.248L610.086 96.7366C610.445 95.8448 617.3 80.0987 617.926 79.0605C618.536 77.9317 619.488 77.0258 620.646 76.4732C621.804 75.9206 623.107 75.7499 624.368 75.9858C625.075 76.1404 625.738 76.4546 626.306 76.9044C626.873 77.3543 627.33 77.9278 627.642 78.5814V78.5814ZM640.553 172.991L618.405 112.842L595.218 172.951L640.553 172.991Z" fill="#1A1A1A"/>
<path d="M931.184 78.5815L984.425 219.045C987.66 227.497 990.268 236.282 992.252 240.767C993.325 243.43 996.112 245.648 1000.61 247.423C1003.85 248.577 1007.19 249.436 1010.58 249.991L1011.11 255.502H950.191L950.471 249.991C953.192 249.738 955.891 249.293 958.55 248.66C961.784 247.755 963.382 246.451 964.207 245.147C967.987 239.263 960.973 219.924 960.973 219.924L949.925 189.31H892.571L880.592 219.391C877.53 228.376 876.013 236.881 876.013 240.302C875.911 241.307 876.054 242.323 876.429 243.262C876.805 244.2 877.402 245.034 878.169 245.692C880.53 247.257 883.191 248.313 885.982 248.794C888.563 249.339 891.171 249.743 893.795 250.005L894.341 255.515H838.651V250.005C841.459 249.747 844.247 249.302 846.996 248.674C850.417 247.769 852.746 246.517 854.011 244.894C857.778 240.035 861.997 229.281 866.682 217.248L913.588 96.7367C913.947 95.8449 920.815 80.0989 921.441 79.0607C922.047 77.9315 922.996 77.0248 924.152 76.472C925.308 75.9191 926.611 75.7489 927.87 75.986C928.585 76.1349 929.255 76.4466 929.83 76.8967C930.405 77.3468 930.868 77.9233 931.184 78.5815V78.5815ZM944.095 172.991L921.947 112.842L898.76 172.951L944.095 172.991Z" fill="#1A1A1A"/>
<path d="M1657.19 78.5815L1710.44 219.045C1713.68 227.497 1717.22 236.056 1719.19 240.555C1720.28 243.217 1722.12 245.453 1726.62 247.21C1729.86 248.355 1733.2 249.21 1736.59 249.765L1737.14 255.502H1676.2L1676.48 249.765C1679.2 249.519 1681.9 249.074 1684.56 248.434C1686.77 247.884 1688.75 246.661 1690.23 244.934C1695.01 239.889 1686.98 219.924 1686.98 219.924L1675.93 189.31H1618.58L1606.6 219.391C1603.54 228.376 1602.02 236.694 1602.02 240.075C1601.92 241.081 1602.06 242.097 1602.44 243.035C1602.81 243.974 1603.41 244.808 1604.18 245.466C1606.54 247.036 1609.2 248.093 1611.99 248.567C1614.57 249.112 1617.18 249.517 1619.81 249.779L1620.35 255.515H1564.69V249.779C1567.5 249.528 1570.29 249.083 1573.03 248.447C1576.45 247.556 1578.78 246.291 1580.05 244.667C1583.81 239.822 1588.03 229.281 1592.72 217.248L1639.62 96.7367C1639.98 95.8449 1646.85 80.0989 1647.48 79.0607C1648.08 77.9315 1649.03 77.0248 1650.19 76.472C1651.35 75.9191 1652.65 75.7489 1653.91 75.986C1654.62 76.1387 1655.28 76.452 1655.85 76.902C1656.42 77.3519 1656.88 77.9264 1657.19 78.5815V78.5815ZM1670.12 172.991L1647.96 112.842L1624.77 172.951L1670.12 172.991Z" fill="#1A1A1A"/>
<path d="M721.986 77.2505C721.986 77.2505 787.207 76.8644 792.371 77.104C811.937 78.0091 822.133 83.9056 827.79 87.4994C833.667 91.334 838.45 96.626 841.672 102.859C845.483 109.978 847.343 117.977 847.063 126.046C846.863 134.911 842.657 162.17 816.449 174.442C804.47 180.033 793.822 179.234 783.626 175.986C778.999 174.619 774.77 172.153 771.301 168.799C769.97 166.696 771.9 165.285 773.058 166.057C778.362 168.032 783.998 168.963 789.656 168.799C794.116 168.854 798.539 167.984 802.646 166.246C806.753 164.507 810.456 161.936 813.521 158.696C820.336 151.868 826.272 139.436 826.272 129.014C826.272 116.25 822.825 108.543 817.248 101.063C811.671 93.5822 799.692 88.5509 787.965 88.5509C779.873 88.5509 773.581 89.1809 769.091 90.441C768.616 90.5586 768.184 90.8128 767.851 91.1722C767.517 91.5317 767.296 91.9807 767.215 92.4641C766.65 95.167 766.334 97.916 766.27 100.677C765.986 104.989 765.848 111.462 765.857 120.096V216.33C765.857 228.376 766.576 238.278 768.013 241.872C768.918 244.215 772.1 246.092 777.583 247.529C781.445 248.485 785.361 249.205 789.31 249.685L789.856 255.422H721.973V249.872C725.507 249.548 729.019 249.01 732.488 248.261C736.974 247.183 739.676 245.133 740.568 243.523C741.832 241.353 742.458 230.825 742.458 216.09V114.187C742.458 103.538 742.205 94.5671 740.568 91C740.035 89.5625 737.187 86.6342 732.581 84.7974C729.2 83.4314 725.579 82.757 721.933 82.8142L721.986 77.2505Z" fill="#1A1A1A"/>
<path d="M1164.81 113.375C1164.81 102.416 1164.18 94.5095 1162.92 89.6557C1162.2 87.1667 1159.35 85.6626 1153.69 84.265C1149.73 83.4051 1145.69 82.9017 1141.63 82.7609V76.1724H1203.63L1203.53 82.7609C1199.43 82.9964 1195.36 83.5707 1191.36 84.478C1185.34 85.9155 1182.71 87.3131 1181.79 89.6557C1180.35 95.2283 1179.63 103.587 1179.63 114.732V255.928H1170.4L1165.83 249.725L1061.82 101.515V216.623C1061.82 228.482 1062.02 236.841 1063.29 241.686C1064.62 245.426 1067.14 246.052 1072.75 247.582C1076.6 248.591 1080.51 249.342 1084.45 249.832V255.449H1022.45V249.792C1022.45 249.792 1029.11 248.927 1034.71 247.582C1040.32 246.238 1043.03 245.32 1044.57 241.686C1046.37 237.014 1046.7 228.043 1046.7 215.811V109.874C1046.7 101.072 1046.08 94.3321 1044.83 89.6557C1044.28 88.2182 1041.22 86.9138 1035.66 85.7425C1030.08 84.5845 1023.53 83.9988 1023.53 83.9988V76.1724H1072.59C1072.59 76.1724 1109.69 132.435 1163.97 208.264C1164.56 204.612 1164.83 200.915 1164.78 197.216L1164.81 113.375Z" fill="#1A1A1A"/>
<path d="M1294.13 124.156C1294.43 110.193 1299.45 97.7482 1310.21 88.7771C1320.96 79.8059 1333.34 76.2388 1347.48 76.2388C1352.88 76.3583 1358.27 76.8028 1363.62 77.5698C1372.06 79.191 1380.4 81.2975 1388.59 83.8789L1391.85 122.812L1384.29 122.652C1382.78 113.776 1378.73 105.528 1372.63 98.9062C1365.88 91.3326 1357.02 87.9119 1345.57 87.4194C1334.7 86.9536 1326.07 90.6006 1321.61 96.0445C1317.16 101.488 1315.88 107.744 1315.88 115.73C1315.88 130.558 1325.19 138.052 1328.55 140.78C1331.9 143.509 1334.35 145.412 1335.9 146.491C1337.44 147.569 1340.53 149.592 1345.15 152.48C1349.77 155.368 1352.72 157.205 1354 157.924L1363.53 163.781C1368.97 167.144 1372.69 169.504 1374.7 170.862C1377.94 173.131 1381.05 175.584 1384.01 178.209C1398.72 191.027 1401.32 206.161 1401.32 210.473C1401.32 224.995 1395.99 237.52 1384.67 246.863C1373.34 256.207 1359.67 260.294 1344.41 260.294C1339.77 260.272 1335.14 259.956 1330.53 259.349C1325.63 258.71 1321.55 258.071 1318.29 257.432C1315.02 256.793 1310.89 255.906 1305.89 254.77C1300.9 253.585 1295.41 252.454 1295.41 252.454L1289.28 209.142L1297.18 209.076C1297.18 209.076 1298.51 217.128 1305.16 228.322C1313.15 241.633 1327.95 249.166 1345.09 249.166C1353.55 249.383 1361.79 246.473 1368.24 240.994C1374.59 235.554 1377.77 227.843 1377.76 217.86C1377.64 213.28 1376.58 208.773 1374.64 204.624C1372.7 200.475 1369.92 196.774 1366.47 193.755C1364.29 191.904 1361.96 190.222 1359.52 188.724C1357.88 187.633 1354.89 185.916 1350.54 183.546C1346.19 181.177 1343.19 179.553 1341.55 178.648C1336.28 175.56 1332.61 173.382 1330.53 172.113C1328.59 170.928 1325.13 168.719 1320.19 165.458C1316.36 163.089 1312.84 160.255 1309.7 157.019C1307.48 154.57 1293.72 143.522 1294.13 124.156Z" fill="#1A1A1A"/>
<path d="M1440.66 241.433V89.7755C1440.77 89.1765 1437.64 86.6875 1431.48 84.6776C1428.01 83.6752 1424.44 83.0461 1420.83 82.8009V77.2505L1540.62 77.4767L1547.82 112.296H1539.84C1537.66 105.209 1533.54 98.8755 1527.94 94.0215C1523.66 90.4144 1516.44 89.842 1507.97 89.842H1463.32L1463.4 158.284H1506.43C1515.75 158.284 1518.13 155.768 1519.25 153.585C1521.03 150.111 1523.11 141.752 1523.11 141.752H1528.99V190.508H1523.11C1522.64 186.743 1521.57 183.078 1519.92 179.66C1517.65 174.815 1513.27 172.792 1506.2 172.792H1463.4V241.153L1498.56 241.393C1498.56 241.393 1526.51 241.3 1532.4 238.252C1535.06 236.814 1537.35 234.259 1540.61 227.856C1543.07 222.359 1545.24 216.739 1547.12 211.019H1555.74L1545.37 255.728L1420.83 255.462V249.952C1429.71 248.727 1437.03 245.08 1440.66 241.433Z" fill="#1A1A1A"/>
<path d="M1821.58 77.1306C1841.9 77.1306 1853.07 83.9055 1859.19 87.4993C1865.45 91.2471 1870.65 96.535 1874.28 102.859C1878.34 109.903 1880.39 117.922 1880.21 126.046C1880.21 133.597 1877.38 141.504 1871.72 149.765C1866.06 158.044 1856.29 165.192 1846.59 169.73C1844.79 170.462 1844.24 171.354 1844.98 172.392C1853.96 191.266 1863.7 209.275 1875.39 222.026C1895.25 246.544 1908.59 252.361 1923.15 258.443C1926 259.628 1925.09 261.438 1922.88 261.491C1918.02 261.561 1913.16 261.164 1908.37 260.307C1884.59 256.154 1864.59 240.461 1847.94 217.182C1845.07 213.233 1841.79 208.512 1838.09 203.019C1834.42 197.549 1822.72 178.182 1821.02 176.745C1819.31 175.307 1819.1 174.083 1815.49 173.231C1811.04 172.536 1806.54 172.176 1802.04 172.153C1800.96 172.141 1799.88 172.185 1798.8 172.286C1797.97 172.45 1797.21 172.879 1796.65 173.51C1796.26 173.951 1795.97 174.463 1795.78 175.019C1795.59 175.574 1795.52 176.161 1795.57 176.745C1795.57 176.745 1796.29 237.067 1797.72 240.634C1798.63 242.977 1802.02 245.466 1807.51 246.903C1812.99 248.341 1819.49 249.712 1819.49 249.712V255.449H1750.73V249.739C1750.73 249.739 1757.38 248.341 1761.75 247.143C1768.99 245.146 1771.41 243.549 1771.77 239.876V90.9999C1771.77 90.9999 1770.44 87.14 1762.19 84.7441C1758.69 83.8215 1755.13 83.1893 1751.54 82.854V77.2504L1821.58 77.1306ZM1817.68 88.5775C1809.58 88.5775 1806.19 88.4976 1802.09 89.2297C1801.37 89.4027 1795.57 89.6689 1795.57 98.7332V152.733C1795.57 157.951 1803.38 160.555 1819.02 160.546H1825.76C1832.06 160.546 1838.57 157.405 1845.31 151.123C1852.04 144.84 1855.41 136.481 1855.41 126.046C1855.37 101.076 1842.76 88.5864 1817.58 88.5775H1817.68Z" fill="#1A1A1A"/>
<path d="M2068.07 206.826L2059.03 245.36C2055.38 247.279 2051.63 248.99 2047.78 250.484C2034.99 254.863 2021.28 258.217 1995.53 257.046C1972.16 255.994 1952.24 248.461 1935.87 231.277C1927.92 223.181 1921.65 213.587 1917.43 203.053C1913.21 192.518 1911.12 181.251 1911.29 169.903C1911.29 144.747 1920.38 122.812 1936.74 104.39C1947.69 92.0382 1970.84 78.2222 1998.44 78.2222C2035.53 78.2222 2057.77 89.11 2057.77 89.11L2062.48 123.131L2053.45 125.793C2053.45 125.793 2052.26 121.148 2051.46 118.752C2050.66 116.356 2045.88 101.941 2021.7 92.4508C2015.23 89.9086 2007.56 89.3895 1999.24 89.3895C1986.86 89.3895 1969.11 97.0562 1956.89 112.376C1944.93 127.338 1938.51 145.972 1938.71 165.125C1938.49 178.409 1940.95 191.601 1945.95 203.911C1950.91 215.957 1956.93 225.314 1967.64 233.194C1978.58 241.383 1991.91 245.751 2005.58 245.626C2023.12 245.626 2035.23 241.313 2044.8 230.984C2047.9 227.637 2050.44 223.818 2052.34 219.671C2054.2 215.332 2059.26 204.39 2059.26 204.39L2068.07 206.826Z" fill="#1A1A1A"/>
<path d="M2236.48 90.1614V242.658C2236.7 244.361 2239.41 246.93 2244.98 248.062C2249.64 249.007 2255.09 249.792 2255.09 249.792V255.249H2192.44V249.792C2192.44 249.792 2198.14 249.1 2202.7 248.195C2208.69 247.01 2212.29 245.759 2212.33 242.658L2212.17 170.782L2131.12 170.928V242.591V242.711C2131.12 244.654 2134.04 246.983 2139.6 248.115C2144.26 249.06 2149.71 249.845 2149.71 249.845V255.302H2087.06V249.845C2087.06 249.845 2092.76 249.153 2097.33 248.248C2103.31 247.063 2106.84 245.812 2106.88 242.711V90.0949C2106.88 87.4328 2103.24 85.9155 2098.47 84.5711C2095.1 83.7183 2091.67 83.1396 2088.21 82.8408V77.9692H2151.13V82.8408C2147.45 83.0742 2143.8 83.5635 2140.2 84.3049C2136.2 85.3964 2131.12 87.0868 2131.12 90.0949L2131.28 156.646H2212.07L2212.37 90.2014V90.1348C2212.37 87.4728 2208.65 85.9554 2203.89 84.6111C2200.52 83.7582 2197.09 83.1796 2193.63 82.8807V78.0092H2256.54V82.8807C2252.87 83.1142 2249.22 83.6034 2245.62 84.3448C2241.62 85.4363 2236.54 87.1267 2236.54 90.1348L2236.48 90.1614Z" fill="#1A1A1A"/>
<path d="M177.33 261.72C177.33 263.53 178.61 264.27 180.18 263.37L241 228.28C241.829 227.737 242.518 227.007 243.013 226.149C243.508 225.291 243.795 224.329 243.85 223.34V153.17C243.85 151.36 242.57 150.61 241 151.52L180.23 186.61C179.4 187.151 178.709 187.881 178.214 188.739C177.719 189.597 177.433 190.561 177.38 191.55L177.33 261.72Z" fill="#1A1A1A"/>
<path d="M92.46 212.72C92.46 214.53 93.75 215.27 95.31 214.37L156.09 179.28C156.92 178.738 157.61 178.009 158.105 177.15C158.6 176.292 158.886 175.329 158.94 174.34V104.17C158.94 102.36 157.66 101.62 156.09 102.52L95.31 137.61C94.4832 138.155 93.795 138.885 93.3002 139.743C92.8054 140.6 92.5177 141.562 92.46 142.55V212.72Z" fill="#1A1A1A"/>
<path d="M320.9 105.36L274.24 132.3C272.67 133.21 272.67 134.69 274.24 135.59L317.75 160.72L325.82 165.37C327.38 166.28 328.67 165.54 328.67 163.73V133.94C328.678 124.44 326.886 115.024 323.39 106.19C323.33 105.934 323.206 105.697 323.028 105.502C322.851 105.308 322.627 105.162 322.377 105.079C322.127 104.995 321.86 104.977 321.602 105.027C321.343 105.076 321.102 105.191 320.9 105.36Z" fill="#1A1A1A"/>
<path d="M15.3701 105.36C16.7201 106.15 62.0301 132.3 62.0301 132.3C63.6001 133.21 63.6001 134.69 62.0301 135.59L18.5201 160.72L10.4501 165.37C8.88011 166.28 7.60011 165.54 7.60011 163.73V133.94C7.59375 124.441 9.38175 115.026 12.8701 106.19C12.9315 105.934 13.0573 105.697 13.2356 105.503C13.4139 105.308 13.6389 105.163 13.8892 105.08C14.1395 104.997 14.4069 104.979 14.666 105.028C14.9252 105.077 15.1675 105.191 15.3701 105.36V105.36Z" fill="#1A1A1A"/>
<path d="M320.9 260.53L274.24 233.59C272.67 232.68 272.67 231.2 274.24 230.3L317.75 205.17L325.82 200.52C327.38 199.61 328.67 200.35 328.67 202.16V232C328.678 241.501 326.886 250.916 323.39 259.75C323.324 260.002 323.195 260.234 323.015 260.422C322.835 260.611 322.61 260.751 322.361 260.829C322.112 260.907 321.847 260.92 321.592 260.868C321.336 260.816 321.098 260.7 320.9 260.53Z" fill="#1A1A1A"/>
<path d="M15.3701 260.53C16.7201 259.74 62.0301 233.59 62.0301 233.59C63.6001 232.68 63.6001 231.2 62.0301 230.3L18.5201 205.17L10.4501 200.52C8.88011 199.61 7.60011 200.35 7.60011 202.16V232C7.59375 241.499 9.38175 250.915 12.8701 259.75C12.9378 260.003 13.0683 260.234 13.2493 260.422C13.4303 260.611 13.656 260.75 13.9055 260.828C14.1549 260.906 14.42 260.919 14.6761 260.867C14.9321 260.815 15.1709 260.699 15.3701 260.53V260.53Z" fill="#1A1A1A"/>
<path d="M24.5703 89.4402L71.2203 116.38C72.7903 117.28 74.0703 116.54 74.0703 114.73V55.1702C74.0703 53.3602 72.7903 52.6202 71.2203 53.5302L45.4303 68.4202C37.1876 73.1599 29.9164 79.4166 24.0003 86.8602C23.8096 87.0443 23.6693 87.2742 23.5928 87.5279C23.5163 87.7817 23.5062 88.0509 23.5634 88.3097C23.6205 88.5685 23.7431 88.8083 23.9194 89.0062C24.0957 89.2041 24.3198 89.3536 24.5703 89.4402V89.4402Z" fill="#1A1A1A"/>
<path d="M177.33 354V300.16C177.33 298.34 178.61 297.6 180.18 298.51L223.69 323.63L231.76 328.29C233.32 329.19 233.32 330.67 231.76 331.58L206 346.47C197.778 351.229 188.728 354.388 179.33 355.78C178.64 355.88 177.32 355.86 177.33 354Z" fill="#1A1A1A"/>
<path d="M158.94 11.8601C158.94 13.4201 158.94 65.7301 158.94 65.7301C158.94 67.5401 157.65 68.2901 156.09 67.3801L112.58 42.2601L104.51 37.6001C102.94 36.7001 102.94 35.2101 104.51 34.3101L130.3 19.4201C138.532 14.6584 147.592 11.4993 157 10.1101C157.63 10.0001 158.94 10.0001 158.94 11.8601Z" fill="#1A1A1A"/>
<path d="M311.7 276.45L265 249.51C263.43 248.61 262.15 249.35 262.15 251.16V310.72C262.15 312.53 263.44 313.27 265 312.36L290.8 297.47C299.047 292.72 306.322 286.453 312.24 279C312.425 278.818 312.56 278.592 312.635 278.343C312.709 278.095 312.72 277.832 312.666 277.578C312.612 277.324 312.496 277.088 312.327 276.891C312.158 276.694 311.943 276.542 311.7 276.45Z" fill="#1A1A1A"/>
<path d="M241 312.36C242.57 313.27 243.85 312.53 243.85 310.72V251.16C243.85 249.35 242.57 248.61 241 249.51L189.42 279.29C187.86 280.2 187.86 281.68 189.42 282.58L241 312.36Z" fill="#1A1A1A"/>
<path d="M265 151.52C263.44 150.61 262.15 151.36 262.15 153.17V212.72C262.15 214.53 263.44 215.27 265 214.37L316.58 184.59C318.15 183.69 318.15 182.2 316.58 181.3L265 151.52Z" fill="#1A1A1A"/>
<path d="M180.18 102.52C178.61 101.62 177.33 102.36 177.33 104.17V163.73C177.33 165.54 178.61 166.28 180.18 165.37L231.76 135.59C233.32 134.69 233.32 133.21 231.76 132.3L180.18 102.52Z" fill="#1A1A1A"/>
<path d="M95.31 53.5302C93.75 52.6202 92.46 53.3602 92.46 55.1702V114.73C92.46 116.54 93.75 117.28 95.31 116.38L146.89 86.6002C148.46 85.6902 148.46 84.2102 146.89 83.3102L95.31 53.5302Z" fill="#1A1A1A"/>
<path d="M156.09 263.37C157.66 264.27 158.94 263.53 158.94 261.72V202.16C158.94 200.35 157.66 199.61 156.09 200.52L104.51 230.3C102.94 231.2 102.94 232.68 104.51 233.59L156.09 263.37Z" fill="#1A1A1A"/>
<path d="M71.2202 214.37C72.7902 215.27 74.0702 214.53 74.0702 212.72V153.17C74.0702 151.36 72.7902 150.61 71.2202 151.52L19.6502 181.3C18.0802 182.2 18.0802 183.69 19.6502 184.59L71.2202 214.37Z" fill="#1A1A1A"/>
<path d="M158.94 354C158.94 352.44 158.94 300.13 158.94 300.13C158.94 298.31 157.65 297.57 156.09 298.48L112.58 323.6L104.51 328.26C102.94 329.16 102.94 330.64 104.51 331.55L130.3 346.44C138.53 351.212 147.59 354.382 157 355.78C157.63 355.88 158.94 355.86 158.94 354Z" fill="#1A1A1A"/>
<path d="M177.33 11.8601V65.7301C177.33 67.5401 178.61 68.2901 180.18 67.3801L223.69 42.2601L231.76 37.6001C233.32 36.7001 233.32 35.2101 231.76 34.3101L206 19.4201C197.778 14.661 188.728 11.502 179.33 10.1101C178.64 10.0001 177.32 10.0001 177.33 11.8601Z" fill="#1A1A1A"/>
<path d="M311.7 89.4401C312.87 88.7701 312.83 87.9701 312.56 87.3901C307.215 80.5441 300.738 74.6627 293.41 70.0001L292.61 69.5101C291.69 68.9401 290.77 68.3901 289.83 67.8601L275.43 59.5401L255.85 48.2401C254.967 47.7913 253.991 47.5574 253 47.5574C252.01 47.5574 251.033 47.7913 250.15 48.2401L189.37 83.3301C187.81 84.2301 187.81 85.7101 189.37 86.6201L219.76 104.16L250.15 121.71C251.035 122.154 252.011 122.386 253 122.386C253.99 122.386 254.966 122.154 255.85 121.71L275.43 110.4L311.65 89.4901L311.7 89.4401Z" fill="#1A1A1A"/>
<path d="M146.89 279.29L86.12 244.2C85.2356 243.756 84.2596 243.525 83.27 243.525C82.2803 243.525 81.3044 243.756 80.42 244.2L61.14 255.33C47.84 263.02 25.96 275.65 24.63 276.41H24.56C23.28 277.15 23.46 278.03 23.79 278.62C24.12 279.21 24.6299 279.71 25.0799 280.25C27.3972 283.039 29.9102 285.659 32.6 288.09V288.09C33.44 288.85 34.3 289.58 35.17 290.3L35.48 290.56C36.24 291.17 37 291.76 37.78 292.35L38.53 292.91C39.16 293.37 39.8 293.81 40.44 294.26C40.86 294.54 41.27 294.83 41.7 295.11C42.13 295.39 42.7 295.75 43.2 296.06C43.92 296.51 44.64 296.96 45.38 297.39L61.09 306.46L80.37 317.59C81.253 318.039 82.2295 318.273 83.22 318.273C84.2105 318.273 85.187 318.039 86.07 317.59L146.84 282.5C148.46 281.68 148.46 280.2 146.89 279.29Z" fill="#1A1A1A"/>
</svg>
