<svg width="843" height="842" viewBox="0 0 843 842" fill="none" xmlns="http://www.w3.org/2000/svg">
<path d="M175.489 598.79V601.16C174.391 601.277 173.302 601.468 172.229 601.73C171.37 601.867 170.574 602.265 169.949 602.87C169.139 603.77 169.219 607.3 169.219 610.45V645.84C169.219 652.69 167.449 658.64 163.619 663.7C159.789 668.76 154.899 671.34 148.979 671.28C144.119 671.28 143.759 668.21 143.759 666.96C143.733 666.095 144.01 665.248 144.544 664.566C145.077 663.885 145.833 663.412 146.679 663.23C147.633 663.037 148.618 663.063 149.56 663.306C150.502 663.548 151.377 664.001 152.119 664.63C153.339 665.8 154.309 666.39 155.019 666.39C155.912 666.328 156.745 665.919 157.339 665.25C158.284 664.262 159.067 663.132 159.659 661.9C160.664 659.94 161.368 657.84 161.749 655.67C162.265 652.638 162.509 649.566 162.479 646.49V610.13C162.479 606.76 162.619 603.74 161.909 602.87C161.749 602.43 160.969 602.04 159.589 601.69C158.486 601.438 157.366 601.261 156.239 601.16V598.79H175.489Z" fill="white"/>
<path d="M206.269 599.52L222.419 642C223.419 644.55 224.189 647.14 224.789 648.5C225.052 648.989 225.411 649.419 225.847 649.763C226.282 650.107 226.783 650.358 227.319 650.5C228.294 650.847 229.298 651.105 230.319 651.27L230.489 653.01H212.039L212.119 651.27C212.945 651.196 213.763 651.062 214.569 650.87C215.25 650.738 215.858 650.361 216.279 649.81C217.419 648.02 215.279 642.24 215.279 642.24L211.949 633H194.609L190.999 642.1C190.267 644.117 189.803 646.222 189.619 648.36C189.589 648.664 189.632 648.971 189.745 649.255C189.858 649.538 190.038 649.791 190.269 649.99C190.983 650.463 191.786 650.783 192.629 650.93C193.412 651.091 194.204 651.211 194.999 651.29L195.159 653.03H178.279V651.29C179.131 651.214 179.976 651.08 180.809 650.89C181.619 650.738 182.361 650.336 182.929 649.74C184.069 648.28 185.349 645.09 186.759 641.45L200.949 605C201.059 604.73 203.129 600 203.319 599.65C203.504 599.308 203.792 599.034 204.142 598.867C204.493 598.699 204.888 598.648 205.269 598.72C205.487 598.766 205.69 598.863 205.864 599.002C206.037 599.141 206.176 599.318 206.269 599.52ZM210.179 628.07L203.479 609.88L196.479 628.06L210.179 628.07Z" fill="white"/>
<path d="M298.069 599.52L314.199 642C315.199 644.55 315.959 647.21 316.559 648.57C316.819 649.061 317.178 649.492 317.614 649.836C318.049 650.181 318.552 650.431 319.089 650.57C320.064 650.918 321.068 651.179 322.089 651.35L322.249 653.02H303.839L303.919 651.35C304.744 651.27 305.563 651.133 306.369 650.94C307.053 650.815 307.663 650.437 308.079 649.88C309.219 648.1 307.079 642.25 307.079 642.25L303.759 633H286.419L282.809 642.1C282.075 644.137 281.612 646.262 281.429 648.42C281.398 648.725 281.44 649.034 281.553 649.32C281.667 649.605 281.847 649.859 282.079 650.06C282.785 650.533 283.582 650.853 284.419 651C285.198 651.168 285.986 651.292 286.779 651.37L286.939 653.04H270.079V651.37C270.931 651.289 271.776 651.152 272.609 650.96C273.419 650.815 274.162 650.416 274.729 649.82C275.869 648.35 277.149 645.1 278.559 641.46L292.749 605C292.859 604.73 294.939 600 295.129 599.65C295.31 599.308 295.597 599.033 295.946 598.865C296.295 598.698 296.689 598.647 297.069 598.72C297.287 598.766 297.491 598.862 297.664 599.001C297.838 599.14 297.977 599.318 298.069 599.52V599.52ZM301.979 628.07L295.279 609.88L288.279 628.06L301.979 628.07Z" fill="white"/>
<path d="M517.679 599.52L533.799 642C534.799 644.55 535.799 647.14 536.449 648.5C536.644 648.983 536.947 649.415 537.335 649.762C537.724 650.108 538.187 650.361 538.689 650.5C539.663 650.847 540.668 651.105 541.689 651.27L541.849 653.01H523.419L523.499 651.27C524.324 651.196 525.143 651.062 525.949 650.87C526.613 650.697 527.209 650.328 527.659 649.81C529.109 648.28 526.659 642.24 526.659 642.24L523.359 633H506.009L502.409 642.1C501.67 644.116 501.203 646.221 501.019 648.36C500.99 648.664 501.034 648.97 501.147 649.254C501.26 649.537 501.439 649.79 501.669 649.99C502.386 650.463 503.193 650.783 504.039 650.93C504.819 651.092 505.606 651.212 506.399 651.29L506.559 653.03H489.689V651.29C490.537 651.214 491.379 651.081 492.209 650.89C493.02 650.741 493.762 650.338 494.329 649.74C495.469 648.28 496.749 645.09 498.169 641.45L512.349 605C512.459 604.73 514.539 600 514.729 599.65C514.91 599.308 515.197 599.033 515.546 598.865C515.895 598.698 516.289 598.647 516.669 598.72C516.888 598.766 517.093 598.863 517.268 599.002C517.443 599.14 517.584 599.318 517.679 599.52V599.52ZM521.579 628.07L514.879 609.88L507.879 628.06L521.579 628.07Z" fill="white"/>
<path d="M234.799 599.12C234.799 599.12 254.509 599 256.089 599.12C262.009 599.4 265.089 601.18 266.799 602.27C268.577 603.427 270.025 605.025 270.999 606.91C272.147 609.06 272.71 611.474 272.629 613.91C272.569 616.59 271.299 624.83 263.379 628.54C261.832 629.272 260.155 629.69 258.445 629.769C256.735 629.848 255.027 629.586 253.419 629C252.018 628.59 250.738 627.845 249.689 626.83C249.279 626.19 249.869 625.77 250.219 626C251.817 626.594 253.514 626.876 255.219 626.83C256.567 626.846 257.904 626.583 259.145 626.056C260.386 625.529 261.504 624.751 262.429 623.77C264.748 621.327 266.117 618.134 266.289 614.77C266.416 611.721 265.447 608.727 263.559 606.33C261.879 604.07 258.249 602.54 254.709 602.54C252.792 602.482 250.876 602.674 249.009 603.11C248.865 603.145 248.734 603.221 248.633 603.33C248.531 603.438 248.464 603.574 248.439 603.72C248.268 604.54 248.171 605.373 248.149 606.21C248.069 607.52 248.029 609.47 248.029 612.08V641.19C248.029 644.84 248.249 647.83 248.679 648.92C248.949 649.63 249.919 650.2 251.579 650.63C252.744 650.922 253.926 651.139 255.119 651.28L255.289 653.02H234.799V651.33C235.868 651.232 236.93 651.069 237.979 650.84C238.947 650.698 239.822 650.185 240.419 649.41C240.799 648.75 240.989 645.57 240.989 641.11V610.29C240.989 607.08 240.919 604.36 240.419 603.29C239.862 602.403 239.013 601.738 238.019 601.41C236.996 600.997 235.901 600.793 234.799 600.81V599.12Z" fill="white"/>
<path d="M368.739 610C368.821 607.596 368.629 605.191 368.169 602.83C367.949 602.07 367.089 601.61 365.379 601.2C364.179 600.937 362.957 600.783 361.729 600.74V598.74H380.479V600.74C379.24 600.814 378.01 600.988 376.799 601.26C374.979 601.7 374.189 602.12 373.909 602.83C373.395 605.322 373.177 607.867 373.259 610.41V653.12H370.469L369.079 651.24L337.629 606.4V641.21C337.513 643.748 337.661 646.292 338.069 648.8C338.469 649.93 339.239 650.12 340.939 650.58C342.099 650.886 343.278 651.113 344.469 651.26V653H325.689V651.3C325.689 651.3 327.689 651.05 329.399 650.64C331.109 650.23 331.919 649.95 332.399 648.86C332.939 647.44 333.049 644.73 333.049 641.03V609C333.111 606.948 332.92 604.895 332.479 602.89C332.309 602.45 331.389 602.06 329.699 601.71C328.486 601.468 327.261 601.291 326.029 601.18V598.81H340.869C340.869 598.81 352.099 615.81 368.519 638.81C368.693 637.702 368.773 636.581 368.759 635.46L368.739 610Z" fill="white"/>
<path d="M407.859 613.3C407.835 611.269 408.258 609.258 409.098 607.409C409.938 605.56 411.174 603.918 412.719 602.6C415.889 600 419.902 598.652 423.999 598.81C425.632 598.848 427.262 598.981 428.879 599.21C431.43 599.7 433.951 600.338 436.429 601.12L437.429 612.89H435.139C434.684 610.207 433.462 607.713 431.619 605.71C429.569 603.42 426.899 602.39 423.429 602.24C420.139 602.1 417.529 603.24 416.189 604.85C414.889 606.567 414.272 608.705 414.459 610.85C414.454 612.326 414.798 613.782 415.464 615.1C416.129 616.417 417.098 617.559 418.289 618.43C419.289 619.25 420.039 619.83 420.509 620.16C420.979 620.49 421.909 621.09 423.309 621.97C424.709 622.85 425.599 623.4 425.979 623.62C426.359 623.84 427.219 624.37 428.869 625.39C430.519 626.41 431.639 627.12 432.239 627.53C433.231 628.211 434.179 628.952 435.079 629.75C436.554 630.949 437.775 632.43 438.673 634.105C439.571 635.781 440.127 637.618 440.309 639.51C440.374 641.604 439.957 643.685 439.09 645.592C438.223 647.5 436.93 649.182 435.309 650.51C431.861 653.269 427.543 654.709 423.129 654.57C421.724 654.563 420.321 654.466 418.929 654.28C417.449 654.09 416.219 653.9 415.229 653.7C414.239 653.5 412.989 653.24 411.479 652.88C409.969 652.52 408.309 652.18 408.309 652.18L406.419 639H408.809C409.267 641.067 410.086 643.037 411.229 644.82C413.649 648.82 418.119 651.12 423.289 651.12C425.847 651.186 428.339 650.306 430.289 648.65C431.265 647.775 432.03 646.691 432.529 645.479C433.028 644.267 433.246 642.958 433.169 641.65C433.134 640.266 432.812 638.904 432.223 637.651C431.634 636.398 430.792 635.281 429.749 634.37C429.09 633.806 428.388 633.294 427.649 632.84C427.159 632.51 426.249 631.99 424.929 631.28C423.609 630.57 422.709 630.07 422.219 629.79C420.619 628.86 419.509 628.2 418.879 627.79C418.249 627.38 417.249 626.79 415.749 625.79C414.593 625.072 413.528 624.215 412.579 623.24C411.889 622.49 407.729 619.16 407.859 613.3Z" fill="white"/>
<path d="M452.179 648.78V602.9C452.179 602.72 451.269 601.97 449.399 601.36C448.349 601.056 447.27 600.864 446.179 600.79V599.12L482.409 599.19L484.589 609.72H482.149C481.493 607.578 480.245 605.664 478.549 604.2C477.259 603.11 475.069 602.93 472.549 602.93H459.009V623.63H472.009C474.849 623.63 475.549 622.86 475.889 622.2C476.372 621.039 476.764 619.842 477.059 618.62H478.839V633.35H477.059C476.906 632.21 476.568 631.102 476.059 630.07C475.369 628.61 474.059 627.99 471.899 627.99H458.959V648.67L469.589 648.74C469.589 648.74 478.039 648.74 479.829 647.74C480.639 647.3 481.329 646.54 482.309 644.59C483.064 642.929 483.731 641.23 484.309 639.5H486.919L483.809 653.04L446.179 653V651.33C448.39 651.101 450.48 650.213 452.179 648.78V648.78Z" fill="white"/>
<path d="M567.419 599.08C571.436 598.979 575.393 600.072 578.789 602.22C580.685 603.349 582.259 604.947 583.359 606.86C584.583 608.986 585.202 611.407 585.149 613.86C585.044 616.454 584.151 618.955 582.589 621.03C580.603 623.644 577.984 625.709 574.979 627.03C574.439 627.24 574.279 627.51 574.489 627.84C577.209 633.55 580.159 638.99 583.689 642.84C589.689 650.26 593.689 652.02 598.139 653.84C598.999 654.2 598.729 654.75 598.059 654.76C596.588 654.781 595.118 654.661 593.669 654.4C586.479 653.15 580.429 648.4 575.389 641.4C574.523 640.2 573.523 638.773 572.389 637.12C571.269 635.46 567.739 629.6 567.219 629.17C566.699 628.74 566.639 628.35 565.549 628.11C564.203 627.897 562.842 627.786 561.479 627.78C561.146 627.759 560.812 627.759 560.479 627.78C560.227 627.825 559.997 627.956 559.829 628.15C559.709 628.285 559.617 628.444 559.56 628.616C559.503 628.788 559.483 628.97 559.499 629.15C559.499 629.15 559.719 647.39 560.149 648.48C560.429 649.18 561.449 649.94 563.149 650.37C564.849 650.8 566.789 651.22 566.789 651.22V653H545.989V651.27C545.989 651.27 547.989 650.85 549.319 650.48C551.509 649.88 552.239 649.4 552.319 648.28V603.28C552.319 603.28 551.929 602.11 549.419 601.38C548.363 601.104 547.286 600.913 546.199 600.81V599.12L567.419 599.08ZM566.239 602.54C564.663 602.466 563.083 602.533 561.519 602.74C561.309 602.74 559.519 602.87 559.519 605.61V622C559.519 623.58 561.889 624.36 566.619 624.36H568.619C570.533 624.36 572.503 623.41 574.529 621.51C575.551 620.538 576.353 619.359 576.881 618.052C577.409 616.744 577.65 615.339 577.589 613.93C577.603 606.337 573.806 602.54 566.199 602.54H566.239Z" fill="white"/>
<path d="M641.959 638.31L639.219 650C638.116 650.578 636.981 651.092 635.819 651.54C631.949 652.87 627.819 653.88 620.009 653.54C612.949 653.22 606.919 650.94 602.009 645.75C599.604 643.299 597.708 640.397 596.431 637.209C595.154 634.022 594.521 630.613 594.569 627.18C594.555 619.841 597.304 612.765 602.269 607.36C604.694 604.861 607.596 602.873 610.803 601.515C614.01 600.156 617.456 599.454 620.939 599.45C632.149 599.45 638.879 602.74 638.879 602.74L640.269 613L637.529 613.81C637.529 613.81 637.169 612.4 636.929 611.68C636.689 610.96 635.249 606.59 627.929 603.68C625.742 602.956 623.44 602.641 621.139 602.75C617.389 602.75 612.019 605.07 608.329 609.75C604.704 614.288 602.764 619.942 602.839 625.75C602.774 629.767 603.519 633.757 605.029 637.48C606.308 641.008 608.588 644.087 611.589 646.34C614.902 648.814 618.934 650.135 623.069 650.1C628.369 650.1 632.069 648.79 634.929 645.68C635.868 644.67 636.638 643.515 637.209 642.26C637.769 640.95 639.299 637.64 639.299 637.64L641.959 638.31Z" fill="white"/>
<path d="M692.899 603V649.13C692.959 649.64 693.779 650.42 695.469 650.76C696.879 651.05 698.529 651.28 698.529 651.28V653H679.529V651.3C679.529 651.3 681.249 651.1 682.629 650.82C684.439 650.46 685.529 650.09 685.539 649.15V627.39H661.019V649.11C661.019 649.7 661.909 650.4 663.589 650.74C664.999 651.03 666.649 651.26 666.649 651.26V653H647.649V651.3C647.649 651.3 649.379 651.1 650.759 650.82C652.569 650.46 653.629 650.09 653.649 649.15V603C653.649 602.18 652.539 601.74 651.099 601.33C650.081 601.074 649.045 600.9 647.999 600.81V599.33H666.999V600.81C665.89 600.879 664.787 601.026 663.699 601.25C662.469 601.58 660.949 602.09 660.949 603V623.12H685.389L685.469 603.02C685.469 602.2 684.349 601.76 682.909 601.35C681.891 601.094 680.855 600.92 679.809 600.83V599.35H698.809V600.83C697.7 600.899 696.597 601.046 695.509 601.27C694.279 601.6 692.759 602.11 692.759 603.02L692.899 603Z" fill="white"/>
<path d="M437.329 425.43C437.329 427.29 438.649 428.05 440.259 427.12L502.669 391.12C503.52 390.563 504.228 389.814 504.737 388.934C505.246 388.053 505.541 387.065 505.599 386.05V313.94C505.599 312.08 504.279 311.32 502.669 312.25L440.259 348.25C439.408 348.807 438.7 349.556 438.191 350.436C437.682 351.317 437.387 352.305 437.329 353.32V425.43Z" fill="white"/>
<path d="M350.169 375.11C350.169 376.97 351.489 377.73 353.099 376.8L415.519 340.8C416.369 340.243 417.075 339.493 417.583 338.613C418.09 337.732 418.383 336.745 418.439 335.73V263.62C418.439 261.76 417.129 261 415.519 261.93L353.099 297.93C352.248 298.487 351.54 299.236 351.031 300.116C350.522 300.997 350.227 301.985 350.169 303V375.11Z" fill="white"/>
<path d="M502.669 477.44C504.279 478.37 505.599 477.61 505.599 475.75V414.58C505.599 412.72 504.279 411.96 502.669 412.89L449.669 443.48C448.059 444.41 448.059 445.93 449.669 446.86L502.669 477.44Z" fill="white"/>
<path d="M527.419 312.25C525.809 311.32 524.489 312.08 524.489 313.94V375.11C524.489 376.97 525.809 377.73 527.419 376.8L580.419 346.22C582.029 345.29 582.029 343.77 580.419 342.84L527.419 312.25Z" fill="white"/>
<path d="M440.259 261.93C438.649 261 437.329 261.76 437.329 263.62V324.79C437.329 326.65 438.649 327.41 440.259 326.48L493.259 295.9C494.869 294.97 494.869 293.45 493.259 292.52L440.259 261.93Z" fill="white"/>
<path d="M353.099 211.61C351.489 210.68 350.169 211.44 350.169 213.3V274.47C350.169 276.33 351.489 277.09 353.099 276.16L406.099 245.58C407.709 244.65 407.709 243.13 406.099 242.2L353.099 211.61Z" fill="white"/>
<path d="M415.519 427.12C417.129 428.05 418.439 427.29 418.439 425.43V364.26C418.439 362.4 417.129 361.64 415.519 362.57L362.519 393.16C360.909 394.09 360.909 395.61 362.519 396.54L415.519 427.12Z" fill="white"/>
<path d="M328.359 376.8C329.969 377.73 331.289 376.97 331.289 375.11V313.94C331.289 312.08 329.969 311.32 328.359 312.25L275.359 342.84C273.749 343.77 273.749 345.29 275.359 346.22L328.359 376.8Z" fill="white"/>
<path d="M418.419 520.23V464.9C418.419 463.04 417.109 462.28 415.499 463.21L370.829 489L362.549 493.79C360.929 494.72 360.939 496.24 362.549 497.17L389.039 512.46C397.482 517.339 406.772 520.575 416.419 522C417.099 522.13 418.419 522.11 418.419 520.23Z" fill="white"/>
<path d="M437.329 168.82C437.329 170.42 437.329 224.15 437.329 224.15C437.329 226.01 438.649 226.77 440.259 225.84L484.939 200L493.229 195.22C494.839 194.29 494.839 192.77 493.229 191.84L466.739 176.54C458.291 171.663 448.998 168.427 439.349 167C438.669 166.92 437.329 166.94 437.329 168.82Z" fill="white"/>
<path d="M575.329 248.49C576.529 247.81 576.489 246.99 576.219 246.39C570.727 239.353 564.071 233.309 556.539 228.52C556.269 228.35 555.999 228.18 555.719 228.02C554.779 227.44 553.839 226.86 552.869 226.32L538.069 217.78L517.959 206.17C517.052 205.711 516.05 205.472 515.034 205.472C514.018 205.472 513.016 205.711 512.109 206.17L449.689 242.17C448.079 243.1 448.079 244.62 449.689 245.55L480.899 263.55L512.109 281.55C513.016 282.009 514.018 282.248 515.034 282.248C516.05 282.248 517.052 282.009 517.959 281.55L538.079 270L575.289 248.52L575.329 248.49Z" fill="white"/>
<path d="M406.069 443.48L343.659 407.48C342.751 407.021 341.747 406.782 340.729 406.782C339.711 406.782 338.708 407.021 337.799 407.48L318.009 418.91L280.509 440.56H280.439C279.129 441.31 279.299 442.22 279.639 442.82C279.979 443.42 280.509 443.95 280.969 444.5C283.353 447.347 285.936 450.02 288.699 452.5V452.5C289.559 453.27 290.439 454.03 291.339 454.76L291.659 455.03C292.429 455.66 293.219 456.27 294.019 456.87L294.779 457.44C295.429 457.92 296.089 458.37 296.779 458.83C297.209 459.12 297.629 459.42 298.069 459.7C298.509 459.98 299.069 460.36 299.609 460.7C300.349 461.16 301.089 461.63 301.849 462.06L317.989 471.38L337.779 482.81C338.688 483.269 339.691 483.508 340.709 483.508C341.727 483.508 342.731 483.269 343.639 482.81L406.049 446.81C407.679 445.93 407.679 444.41 406.069 443.48Z" fill="white"/>
<path d="M584.779 264.85L536.859 292.52C535.249 293.45 535.249 294.97 536.859 295.9L581.549 321.7L589.829 326.48C591.439 327.41 592.759 326.65 592.759 324.79V294.2C592.768 284.443 590.928 274.773 587.339 265.7C587.278 265.436 587.15 265.192 586.968 264.992C586.785 264.792 586.554 264.642 586.297 264.557C586.04 264.471 585.766 264.453 585.5 264.505C585.234 264.556 584.986 264.675 584.779 264.85Z" fill="white"/>
<path d="M270.999 264.85L318.919 292.52C320.529 293.45 320.529 294.97 318.919 295.9L274.229 321.7L265.949 326.48C264.329 327.41 263.019 326.65 263.019 324.79V294.2C263.004 284.444 264.836 274.774 268.419 265.7C268.481 265.434 268.61 265.189 268.794 264.987C268.978 264.786 269.211 264.635 269.47 264.55C269.729 264.465 270.006 264.447 270.274 264.5C270.542 264.552 270.791 264.673 270.999 264.85V264.85Z" fill="white"/>
<path d="M584.779 424.2L536.859 396.54C535.249 395.61 535.249 394.09 536.859 393.16L581.549 367.36L589.829 362.57C591.439 361.64 592.759 362.4 592.759 364.26V394.85C592.767 404.61 590.928 414.284 587.339 423.36C587.276 423.623 587.148 423.866 586.965 424.065C586.782 424.264 586.551 424.413 586.294 424.497C586.037 424.581 585.763 424.598 585.498 424.546C585.232 424.494 584.985 424.375 584.779 424.2Z" fill="white"/>
<path d="M270.999 424.2L318.919 396.54C320.529 395.61 320.529 394.09 318.919 393.16L274.229 367.36L265.949 362.57C264.329 361.64 263.019 362.4 263.019 364.26V394.85C263.005 404.609 264.837 414.282 268.419 423.36C268.482 423.625 268.612 423.869 268.797 424.069C268.982 424.27 269.215 424.419 269.474 424.503C269.733 424.588 270.009 424.604 270.276 424.551C270.543 424.498 270.792 424.377 270.999 424.2Z" fill="white"/>
<path d="M280.419 248.49L328.339 276.16C329.949 277.09 331.269 276.33 331.269 274.47V213.3C331.269 211.44 329.949 210.68 328.339 211.61L301.849 226.91C293.386 231.779 285.921 238.205 279.849 245.85C279.655 246.038 279.511 246.272 279.433 246.531C279.354 246.79 279.343 247.064 279.4 247.328C279.457 247.593 279.581 247.838 279.759 248.041C279.937 248.245 280.164 248.399 280.419 248.49V248.49Z" fill="white"/>
<path d="M437.329 520.23C437.329 518.63 437.329 464.9 437.329 464.9C437.329 463.04 438.649 462.28 440.259 463.21L484.939 489L493.229 493.79C494.839 494.72 494.839 496.24 493.229 497.17L466.739 512.46C458.291 517.337 448.998 520.573 439.349 522C438.669 522.13 437.329 522.11 437.329 520.23Z" fill="white"/>
<path d="M418.419 168.82V224.15C418.419 226.01 417.109 226.77 415.499 225.84L370.829 200L362.549 195.22C360.929 194.29 360.939 192.77 362.549 191.84L389.039 176.54C397.482 171.661 406.772 168.425 416.419 167C417.099 166.92 418.419 166.94 418.419 168.82Z" fill="white"/>
<path d="M575.329 440.56L527.419 412.89C525.799 411.96 524.489 412.72 524.489 414.58V475.75C524.489 477.61 525.809 478.37 527.419 477.44L553.909 462.14C562.372 457.272 569.837 450.845 575.909 443.2C576.103 443.011 576.246 442.776 576.324 442.517C576.402 442.258 576.412 441.983 576.354 441.719C576.296 441.454 576.171 441.209 575.992 441.006C575.813 440.804 575.585 440.65 575.329 440.56V440.56Z" fill="white"/>
</svg>
