<svg width="640" height="640" viewBox="0 0 640 640" fill="none" xmlns="http://www.w3.org/2000/svg">
<path d="M335.37 452.09C335.37 455.09 337.52 456.37 340.15 454.85L442.1 396C443.489 395.09 444.645 393.866 445.475 392.428C446.305 390.99 446.786 389.378 446.88 387.72V270C446.88 267 444.73 265.72 442.1 267.24L340.1 326.1C338.711 327.009 337.554 328.232 336.724 329.67C335.894 331.109 335.413 332.722 335.32 334.38L335.37 452.09Z" fill="black"/>
<path d="M193 369.901C193 372.901 195.15 374.181 197.78 372.661L299.74 313.801C301.129 312.89 302.284 311.667 303.114 310.229C303.945 308.791 304.426 307.179 304.52 305.521V187.801C304.52 184.801 302.37 183.521 299.74 185.041L197.79 243.901C196.4 244.81 195.244 246.033 194.413 247.471C193.583 248.91 193.102 250.523 193.01 252.181L193 369.901Z" fill="black"/>
<path d="M442.1 536.999C444.73 538.519 446.88 537.279 446.88 534.239V434.369C446.88 431.369 444.73 430.089 442.1 431.609L355.58 481.559C352.95 483.079 352.95 485.559 355.58 487.089L442.1 536.999Z" fill="black"/>
<path d="M482.51 267.23C479.88 265.71 477.73 266.95 477.73 269.99V369.9C477.73 372.9 479.88 374.18 482.51 372.66L569.029 322.66C571.659 321.14 571.659 318.66 569.029 317.13L482.51 267.23Z" fill="black"/>
<path d="M340.149 184.999C337.519 183.479 335.369 184.719 335.369 187.759V287.669C335.369 290.669 337.519 291.949 340.149 290.429L426.669 240.429C429.299 238.909 429.299 236.429 426.669 234.899L340.149 184.999Z" fill="black"/>
<path d="M197.79 102.851C195.16 101.331 193.01 102.571 193.01 105.611V205.521C193.01 208.521 195.16 209.801 197.79 208.281L284.31 158.331C286.94 156.811 286.94 154.331 284.31 152.801L197.79 102.851Z" fill="black"/>
<path d="M299.74 454.85C302.37 456.37 304.52 455.13 304.52 452.09V352.18C304.52 349.18 302.37 347.9 299.74 349.42L213.221 399.37C210.591 400.89 210.591 403.37 213.221 404.9L299.74 454.85Z" fill="black"/>
<path d="M157.379 372.66C160.009 374.18 162.159 372.93 162.159 369.9V270C162.159 267 160.009 265.72 157.379 267.24L70.8592 317.19C68.2292 318.71 68.2292 321.19 70.8592 322.72L157.379 372.66Z" fill="black"/>
<path d="M304.519 606.941C304.519 604.321 304.519 516.561 304.519 516.561C304.519 513.561 302.37 512.281 299.74 513.801L226.741 555.941L213.211 563.761C210.581 565.271 210.581 567.761 213.211 569.281L256.48 594.281C270.277 602.258 285.456 607.558 301.22 609.901C302.33 610.001 304.529 610.001 304.519 606.941Z" fill="black"/>
<path d="M335.369 32.9997C335.369 35.6197 335.369 123.38 335.369 123.38C335.369 126.38 337.519 127.66 340.149 126.14L413.149 83.9997L426.679 76.1797C429.309 74.6697 429.309 72.1798 426.679 70.6598L383.409 45.6597C369.614 37.6626 354.43 32.349 338.659 29.9997C337.559 29.8497 335.359 29.8797 335.369 32.9997Z" fill="black"/>
<path d="M560.78 163.089C562.78 161.969 562.67 160.629 562.22 159.649C553.249 148.162 542.383 138.29 530.09 130.459C529.65 130.179 529.19 129.919 528.75 129.639C527.21 128.689 525.67 127.759 524.09 126.869L499.92 112.869L467.07 93.8693C465.587 93.1243 463.95 92.7363 462.29 92.7363C460.631 92.7363 458.994 93.1243 457.51 93.8693L355.57 152.799C352.95 154.319 352.95 156.799 355.57 158.329L406.57 187.749L457.57 217.179C459.054 217.929 460.693 218.32 462.355 218.32C464.018 218.32 465.657 217.929 467.14 217.179L499.98 198.179C522.4 185.239 558.7 164.269 560.75 163.099L560.78 163.089Z" fill="black"/>
<path d="M284.31 481.561L182.37 422.711C180.886 421.961 179.247 421.57 177.585 421.57C175.923 421.57 174.284 421.961 172.8 422.711L140.47 441.381L79.22 476.741L79.11 476.801C76.96 478.031 77.25 479.521 77.8 480.501C78.52 481.411 79.23 482.341 79.97 483.231L80.02 483.301C83.919 487.969 88.1392 492.36 92.65 496.441V496.441C94.05 497.711 95.49 498.941 96.96 500.151L97.48 500.581C98.75 501.581 100.03 502.581 101.34 503.581C101.75 503.901 102.17 504.211 102.59 504.521C103.59 505.291 104.72 506.041 105.8 506.781C106.5 507.261 107.2 507.781 107.91 508.211C108.62 508.641 109.59 509.281 110.43 509.811C111.64 510.561 112.84 511.321 114.08 512.041L140.44 527.261L172.77 545.921C174.254 546.67 175.893 547.061 177.555 547.061C179.217 547.061 180.856 546.67 182.34 545.921L284.28 487.071C286.94 485.571 286.94 483.081 284.31 481.561Z" fill="black"/>
<path d="M576.2 189.811L497.93 235.001C495.3 236.521 495.3 239.001 497.93 240.531L570.93 282.671L584.46 290.481C587.09 292.001 589.25 290.751 589.25 287.721V237.721C589.263 221.785 586.261 205.99 580.4 191.171C580 190.151 578.86 188.261 576.2 189.811Z" fill="black"/>
<path d="M63.6897 189.811L142 235.001C144.63 236.521 144.63 239.001 142 240.531L68.9997 282.671L55.4697 290.481C52.8297 292.001 50.6797 290.751 50.6797 287.721V237.721C50.6658 221.785 53.6687 205.99 59.5297 191.171C59.8997 190.151 60.9997 188.261 63.6897 189.811Z" fill="black"/>
<path d="M576.2 450.079L497.93 404.899C495.3 403.379 495.3 400.899 497.93 399.369L570.93 357.229L584.46 349.419C587.09 347.899 589.25 349.149 589.25 352.179V402.179C589.263 418.115 586.261 433.91 580.4 448.729C580 449.729 578.86 451.629 576.2 450.079Z" fill="black"/>
<path d="M63.6897 450.079L142 404.899C144.63 403.379 144.63 400.899 142 399.369L68.9997 357.229L55.4697 349.419C52.8297 347.899 50.6797 349.149 50.6797 352.179V402.179C50.6658 418.115 53.6687 433.91 59.5297 448.729C59.8997 449.729 60.9997 451.629 63.6897 450.079Z" fill="black"/>
<path d="M79.1094 163.089C81.3894 164.389 157.379 208.279 157.379 208.279C160.009 209.799 162.159 208.549 162.159 205.519V105.609C162.159 102.609 160.009 101.329 157.379 102.849L114.109 127.849C100.3 135.808 88.1191 146.306 78.2094 158.789C77.5194 159.639 76.4494 161.559 79.1094 163.089Z" fill="black"/>
<path d="M335.369 606.941C335.369 604.321 335.369 516.561 335.369 516.561C335.369 513.561 337.519 512.281 340.149 513.801L413.149 555.941L426.679 563.761C429.309 565.271 429.309 567.761 426.679 569.281L383.409 594.281C369.613 602.258 354.433 607.558 338.669 609.901C337.559 610.001 335.359 610.001 335.369 606.941Z" fill="black"/>
<path d="M304.519 32.9997C304.519 35.6197 304.519 123.38 304.519 123.38C304.519 126.38 302.37 127.66 299.74 126.14L226.741 83.9998L213.211 76.1797C210.581 74.6697 210.581 72.1798 213.211 70.6598L256.48 45.6598C270.275 37.6626 285.459 32.349 301.23 29.9997C302.33 29.8497 304.529 29.8797 304.519 32.9997Z" fill="black"/>
<path d="M560.779 476.801C558.499 475.501 482.51 431.611 482.51 431.611C479.88 430.091 477.73 431.341 477.73 434.371V534.281C477.73 537.281 479.88 538.561 482.51 537.041L525.78 512.041C539.589 504.082 551.77 493.584 561.679 481.101C562.369 480.251 563.439 478.331 560.779 476.801Z" fill="black"/>
</svg>
