<svg width="36" height="39" viewBox="0 0 36 39" fill="none" xmlns="http://www.w3.org/2000/svg">
<path fill-rule="evenodd" clip-rule="evenodd" d="M19.031 28.2158C19.031 28.419 19.1748 28.5021 19.3508 28.4005L26.1647 24.4664C26.3405 24.3648 26.4843 24.1158 26.4843 23.9127V16.0445C26.4843 15.8413 26.3405 15.7582 26.1647 15.8598L19.3508 19.7939C19.1748 19.8955 19.031 20.1447 19.031 20.3476V28.2158Z" fill="#D30C2F"/>
<path fill-rule="evenodd" clip-rule="evenodd" d="M9.51538 22.7222C9.51538 22.9251 9.65941 23.0084 9.83521 22.9066L16.6494 18.9727C16.8249 18.8712 16.9689 18.6219 16.9689 18.419V10.5506C16.9689 10.3474 16.8249 10.2646 16.6494 10.3662L9.83521 14.3C9.65941 14.4018 9.51538 14.6508 9.51538 14.8537V22.7222Z" fill="#D30C2F"/>
<path fill-rule="evenodd" clip-rule="evenodd" d="M26.1646 33.8941C26.3407 33.9959 26.4845 33.9126 26.4845 33.7097V27.0317C26.4845 26.8289 26.3407 26.7458 26.1646 26.8471L20.3816 30.1863C20.2058 30.2876 20.2058 30.4538 20.3816 30.5554L26.1646 33.8941Z" fill="#D30C2F" fill-opacity="0.5"/>
<path fill-rule="evenodd" clip-rule="evenodd" d="M28.866 15.8598C28.6902 15.7582 28.5461 15.8415 28.5461 16.0444V22.7224C28.5461 22.9253 28.6902 23.0083 28.866 22.9068L34.649 19.5678C34.8251 19.4665 34.8251 19.3003 34.649 19.1987L28.866 15.8598Z" fill="#D30C2F" fill-opacity="0.5"/>
<path fill-rule="evenodd" clip-rule="evenodd" d="M19.3508 10.3661C19.1748 10.2645 19.031 10.3476 19.031 10.5505V17.2284C19.031 17.4315 19.1748 17.5144 19.3508 17.4131L25.1339 14.0741C25.3097 13.9725 25.3097 13.8063 25.1339 13.7048L19.3508 10.3661Z" fill="#D30C2F" fill-opacity="0.8"/>
<path fill-rule="evenodd" clip-rule="evenodd" d="M9.83497 4.87223C9.65917 4.77065 9.51514 4.854 9.51514 5.05689V11.7348C9.51514 11.9377 9.65917 12.0208 9.83497 11.9192L15.6183 8.58026C15.7941 8.47894 15.7941 8.31277 15.6183 8.2112L9.83497 4.87223Z" fill="#D30C2F" fill-opacity="0.5"/>
<path fill-rule="evenodd" clip-rule="evenodd" d="M16.6492 28.4005C16.825 28.5021 16.969 28.419 16.969 28.2158V21.5379C16.969 21.335 16.825 21.2522 16.6492 21.3535L10.8662 24.6925C10.6901 24.7938 10.6901 24.9599 10.8662 25.0618L16.6492 28.4005Z" fill="#D30C2F" fill-opacity="0.3"/>
<path fill-rule="evenodd" clip-rule="evenodd" d="M7.13389 22.9067C7.3097 23.0085 7.45347 22.9251 7.45347 22.7223V16.0443C7.45347 15.8414 7.3097 15.7583 7.13389 15.8597L1.3506 19.1989C1.1748 19.3002 1.1748 19.4664 1.3506 19.568L7.13389 22.9067Z" fill="#D30C2F" fill-opacity="0.5"/>
<path fill-rule="evenodd" clip-rule="evenodd" d="M16.9691 38.5664C16.9686 38.3911 16.9691 32.5255 16.9691 32.5255C16.9691 32.3224 16.8251 32.2396 16.6493 32.3411L11.7708 35.1576L10.8662 35.6798C10.6904 35.7814 10.6904 35.9473 10.8662 36.0492L13.7585 37.7189C14.7102 38.2682 15.7244 38.611 16.749 38.7631C16.8225 38.7737 16.9696 38.7716 16.9691 38.5664Z" fill="#D30C2F" fill-opacity="0.5"/>
<path fill-rule="evenodd" clip-rule="evenodd" d="M19.031 0.20015C19.0315 0.375433 19.031 6.24103 19.031 6.24103C19.031 6.44418 19.1748 6.527 19.3508 6.42543L24.2293 3.60892L25.1339 3.08672C25.3094 2.98488 25.3094 2.81897 25.1339 2.7174L22.2416 1.04765C21.2899 0.498365 20.2757 0.155613 19.2511 0.00351011C19.1776 -0.00742878 19.0302 -0.00508473 19.031 0.20015Z" fill="#D30C2F" fill-opacity="0.5"/>
<path fill-rule="evenodd" clip-rule="evenodd" d="M34.0977 8.8988C34.2284 8.82379 34.224 8.73445 34.1943 8.66908C33.5948 7.90335 32.8702 7.24025 32.0461 6.71779C32.0167 6.69929 31.9865 6.68132 31.9565 6.66309C31.8542 6.5998 31.7508 6.53729 31.645 6.47817L31.6458 6.47713L30.0302 5.54446L27.8349 4.27711C27.6591 4.17553 27.3716 4.17553 27.1958 4.27711L20.3816 8.21121C20.2058 8.31278 20.2058 8.47895 20.3816 8.58026L23.7886 10.5474L27.1958 12.5146C27.3716 12.6159 27.6591 12.6159 27.8349 12.5146L30.0302 11.2473C31.5289 10.3815 33.9552 8.98058 34.0922 8.90192L34.0977 8.8988Z" fill="#D30C2F"/>
<path fill-rule="evenodd" clip-rule="evenodd" d="M15.6185 30.1862L8.80435 26.2521C8.62828 26.1506 8.34075 26.1506 8.16494 26.2521L6.00373 27.5C4.51187 28.3613 2.05921 29.7776 1.90971 29.8635L1.90242 29.8677C1.75865 29.9503 1.77793 30.0492 1.81491 30.1151C1.86309 30.1761 1.90997 30.2378 1.95972 30.2977C1.96102 30.2993 1.96206 30.3003 1.96311 30.3019C2.2233 30.6147 2.50536 30.908 2.80722 31.1801C2.80775 31.1806 2.80827 31.1812 2.80905 31.1819C2.90307 31.2666 2.99944 31.3489 3.09737 31.4294C3.10909 31.4393 3.12055 31.4492 3.13253 31.4585C3.21665 31.527 3.30286 31.5937 3.38985 31.6591C3.41772 31.6802 3.44559 31.7013 3.47372 31.7219C3.5443 31.7737 3.61592 31.8234 3.68781 31.8732C3.73495 31.9052 3.78157 31.9375 3.82923 31.9688C3.88471 32.0052 3.94122 32.0404 3.99774 32.0755C4.07822 32.1258 4.1587 32.1766 4.24152 32.2243L6.00373 33.2416L8.16494 34.4894C8.34075 34.591 8.62828 34.591 8.80435 34.4894L15.6185 30.5553C15.7943 30.4537 15.7943 30.2878 15.6185 30.1862Z" fill="#D30C2F"/>
<path fill-rule="evenodd" clip-rule="evenodd" d="M35.1284 10.6845C34.9768 10.7726 29.8967 13.705 29.8967 13.705C29.7209 13.8063 29.7209 13.9725 29.8967 14.074L34.7758 16.8908L35.68 17.413C35.8558 17.5146 35.9999 17.4312 35.9999 17.2283V13.8888C35.9996 12.7897 35.7894 11.7404 35.4086 10.7767C35.3816 10.708 35.3058 10.5814 35.1284 10.6845Z" fill="#D30C2F" fill-opacity="0.5"/>
<path fill-rule="evenodd" clip-rule="evenodd" d="M0.871466 10.6845C1.02279 10.7726 6.10286 13.705 6.10286 13.705C6.27867 13.8063 6.27867 13.9725 6.10286 14.074L1.22412 16.8908L0.319833 17.413C0.143768 17.5146 0 17.4312 0 17.2283V13.8888C0 12.7897 0.210444 11.7404 0.591222 10.7767C0.618308 10.708 0.693839 10.5814 0.871466 10.6845Z" fill="#D30C2F" fill-opacity="0.5"/>
<path fill-rule="evenodd" clip-rule="evenodd" d="M35.1284 28.0821C34.9768 27.994 29.8967 25.0614 29.8967 25.0614C29.7209 24.96 29.7209 24.7939 29.8967 24.6923L34.7758 21.8758L35.68 21.3536C35.8558 21.252 35.9999 21.3351 35.9999 21.5383V24.8777C35.9996 25.9768 35.7894 27.0262 35.4086 27.9899C35.3816 28.0586 35.3058 28.1852 35.1284 28.0821Z" fill="#D30C2F" fill-opacity="0.5"/>
<path fill-rule="evenodd" clip-rule="evenodd" d="M0.871466 28.0821C1.02279 27.994 6.10286 25.0614 6.10286 25.0614C6.27867 24.96 6.27867 24.7939 6.10286 24.6923L1.22412 21.8758L0.319833 21.3536C0.143768 21.252 0 21.3351 0 21.5383V24.8777C0 25.9768 0.210444 27.0262 0.591222 27.9899C0.618308 28.0586 0.693839 28.1852 0.871466 28.0821Z" fill="#D30C2F" fill-opacity="0.5"/>
<path fill-rule="evenodd" clip-rule="evenodd" d="M1.90232 8.89872C2.05442 8.98598 7.13398 11.9194 7.13398 11.9194C7.30978 12.0207 7.45329 11.9377 7.45329 11.7348V6.10123V5.05683C7.45329 4.85394 7.30978 4.77059 7.13372 4.87217L4.24142 6.54217C3.28973 7.09172 2.48625 7.79832 1.84215 8.61015C1.79605 8.66797 1.72417 8.79663 1.90232 8.89872Z" fill="#D30C2F" fill-opacity="0.5"/>
<path fill-rule="evenodd" clip-rule="evenodd" d="M19.031 38.5664C19.0315 38.3911 19.031 32.5255 19.031 32.5255C19.031 32.3224 19.1748 32.2396 19.3508 32.3411L24.2293 35.1576L25.1339 35.6798C25.3094 35.7814 25.3094 35.9473 25.1339 36.0492L22.2416 37.7189C21.2899 38.2682 20.2757 38.611 19.2511 38.7631C19.1776 38.7737 19.0302 38.7716 19.031 38.5664Z" fill="#D30C2F" fill-opacity="0.5"/>
<path fill-rule="evenodd" clip-rule="evenodd" d="M16.9691 0.20015C16.9686 0.375433 16.9691 6.24103 16.9691 6.24103C16.9691 6.44418 16.8251 6.527 16.6493 6.42543L11.7708 3.60892L10.8662 3.08672C10.6904 2.98488 10.6904 2.81897 10.8662 2.7174L13.7585 1.04765C14.7102 0.498365 15.7244 0.155613 16.749 0.00351011C16.8225 -0.00742878 16.9696 -0.00508473 16.9691 0.20015Z" fill="#D30C2F" fill-opacity="0.5"/>
<path fill-rule="evenodd" clip-rule="evenodd" d="M34.0974 29.8675C33.9455 29.7805 28.866 26.8471 28.866 26.8471C28.6902 26.7458 28.5464 26.8289 28.5464 27.0317V32.6653V33.7097C28.5464 33.9126 28.6902 33.9959 28.866 33.8941L31.7583 32.2243C32.7099 31.6748 33.5137 30.9679 34.1575 30.1564C34.2036 30.0985 34.2755 29.9699 34.0974 29.8675Z" fill="#D30C2F" fill-opacity="0.5"/>
</svg>
