<svg width="640" height="640" viewBox="0 0 640 640" fill="none" xmlns="http://www.w3.org/2000/svg">
<path d="M335.37 452.09C335.37 455.09 337.52 456.37 340.15 454.85L442.1 396C443.488 395.09 444.644 393.866 445.474 392.428C446.304 390.99 446.786 389.378 446.88 387.72V270C446.88 267 444.73 265.72 442.1 267.24L340.1 326.1C338.71 327.009 337.554 328.232 336.723 329.67C335.893 331.109 335.412 332.722 335.32 334.38L335.37 452.09Z" fill="#E6C620"/>
<path d="M193 369.9C193 372.9 195.15 374.18 197.78 372.66L299.74 313.8C301.129 312.89 302.284 311.666 303.114 310.228C303.945 308.79 304.426 307.178 304.52 305.52V187.8C304.52 184.8 302.37 183.52 299.74 185.04L197.79 243.9C196.4 244.809 195.244 246.032 194.413 247.471C193.583 248.909 193.102 250.522 193.01 252.18L193 369.9Z" fill="#6941A0"/>
<path d="M442.1 537C444.73 538.52 446.88 537.28 446.88 534.24V434.37C446.88 431.37 444.73 430.09 442.1 431.61L355.58 481.56C352.95 483.08 352.95 485.56 355.58 487.09L442.1 537Z" fill="#CA1B4D"/>
<path d="M482.51 267.23C479.88 265.71 477.729 266.95 477.729 269.99V369.9C477.729 372.9 479.88 374.18 482.51 372.66L569.03 322.66C571.66 321.14 571.66 318.66 569.03 317.13L482.51 267.23Z" fill="#CA1B4D"/>
<path d="M340.15 185C337.52 183.48 335.37 184.72 335.37 187.76V287.67C335.37 290.67 337.52 291.95 340.15 290.43L426.67 240.43C429.3 238.91 429.3 236.43 426.67 234.9L340.15 185Z" fill="#E6E6E6"/>
<path d="M197.79 102.85C195.16 101.33 193.01 102.57 193.01 105.61V205.52C193.01 208.52 195.16 209.8 197.79 208.28L284.31 158.33C286.94 156.81 286.94 154.33 284.31 152.8L197.79 102.85Z" fill="#CA1B4D"/>
<path d="M299.74 454.85C302.37 456.37 304.52 455.13 304.52 452.09V352.18C304.52 349.18 302.37 347.9 299.74 349.42L213.22 399.37C210.59 400.89 210.59 403.37 213.22 404.9L299.74 454.85Z" fill="#2B2B2B"/>
<path d="M157.38 372.66C160.01 374.18 162.16 372.93 162.16 369.9V270C162.16 267 160.01 265.72 157.38 267.24L70.8597 317.19C68.2297 318.71 68.2297 321.19 70.8597 322.72L157.38 372.66Z" fill="#CA1B4D"/>
<path d="M304.52 606.94C304.52 604.32 304.52 516.56 304.52 516.56C304.52 513.56 302.37 512.28 299.74 513.8L226.74 555.94L213.21 563.76C210.58 565.27 210.58 567.76 213.21 569.28L256.48 594.28C270.276 602.258 285.456 607.558 301.22 609.9C302.33 610 304.53 610 304.52 606.94Z" fill="#CA1B4D"/>
<path d="M335.37 33C335.37 35.62 335.37 123.38 335.37 123.38C335.37 126.38 337.52 127.66 340.15 126.14L413.15 84L426.68 76.18C429.31 74.67 429.31 72.18 426.68 70.66L383.41 45.66C369.615 37.6628 354.431 32.3493 338.66 30C337.56 29.85 335.36 29.88 335.37 33Z" fill="#CA1B4D"/>
<path d="M560.78 163.09C562.78 161.97 562.669 160.63 562.219 159.65C553.248 148.163 542.382 138.291 530.09 130.46C529.65 130.18 529.189 129.92 528.749 129.64C527.209 128.69 525.67 127.76 524.09 126.87L499.919 112.87L467.069 93.87C465.586 93.125 463.949 92.7371 462.289 92.7371C460.63 92.7371 458.993 93.125 457.509 93.87L355.569 152.8C352.949 154.32 352.949 156.8 355.569 158.33L406.569 187.75L457.569 217.18C459.053 217.93 460.692 218.32 462.354 218.32C464.017 218.32 465.656 217.93 467.139 217.18L499.979 198.18C522.399 185.24 558.699 164.27 560.749 163.1L560.78 163.09Z" fill="#E6C620"/>
<path d="M284.31 481.56L182.37 422.71C180.886 421.96 179.247 421.57 177.585 421.57C175.923 421.57 174.284 421.96 172.8 422.71L140.47 441.38L79.22 476.74L79.11 476.8C76.96 478.03 77.25 479.52 77.8 480.5C78.52 481.41 79.23 482.34 79.97 483.23L80.02 483.3C83.919 487.969 88.1392 492.359 92.65 496.44V496.44C94.05 497.71 95.49 498.94 96.96 500.15L97.48 500.58C98.75 501.58 100.03 502.58 101.34 503.58C101.75 503.9 102.17 504.21 102.59 504.52C103.59 505.29 104.72 506.04 105.8 506.78C106.5 507.26 107.2 507.78 107.91 508.21C108.62 508.64 109.59 509.28 110.43 509.81C111.64 510.56 112.84 511.32 114.08 512.04L140.44 527.26L172.77 545.92C174.254 546.67 175.893 547.06 177.555 547.06C179.217 547.06 180.856 546.67 182.34 545.92L284.28 487.07C286.94 485.57 286.94 483.08 284.31 481.56Z" fill="#6941A0"/>
<path d="M576.2 189.81L497.93 235C495.3 236.52 495.3 239 497.93 240.53L570.93 282.67L584.46 290.48C587.09 292 589.25 290.75 589.25 287.72V237.72C589.263 221.784 586.261 205.989 580.4 191.17C580 190.15 578.86 188.26 576.2 189.81Z" fill="#CA1B4D"/>
<path d="M63.6897 189.81L142 235C144.63 236.52 144.63 239 142 240.53L68.9997 282.67L55.4697 290.48C52.8297 292 50.6797 290.75 50.6797 287.72V237.72C50.6658 221.784 53.6687 205.989 59.5297 191.17C59.8997 190.15 60.9997 188.26 63.6897 189.81Z" fill="#CA1B4D"/>
<path d="M576.2 450.08L497.93 404.9C495.3 403.38 495.3 400.9 497.93 399.37L570.93 357.23L584.46 349.42C587.09 347.9 589.25 349.15 589.25 352.18V402.18C589.263 418.116 586.261 433.911 580.4 448.73C580 449.73 578.86 451.63 576.2 450.08Z" fill="#CA1B4D"/>
<path d="M63.6897 450.08L142 404.9C144.63 403.38 144.63 400.9 142 399.37L68.9997 357.23L55.4697 349.42C52.8297 347.9 50.6797 349.15 50.6797 352.18V402.18C50.6658 418.116 53.6687 433.911 59.5297 448.73C59.8997 449.73 60.9997 451.63 63.6897 450.08Z" fill="#CA1B4D"/>
<path d="M79.1099 163.09C81.3899 164.39 157.38 208.28 157.38 208.28C160.01 209.8 162.16 208.55 162.16 205.52V105.61C162.16 102.61 160.01 101.33 157.38 102.85L114.11 127.85C100.3 135.809 88.1196 146.306 78.2099 158.79C77.5199 159.64 76.4499 161.56 79.1099 163.09Z" fill="#CA1B4D"/>
<path d="M335.37 606.94C335.37 604.32 335.37 516.56 335.37 516.56C335.37 513.56 337.52 512.28 340.15 513.8L413.15 555.94L426.68 563.76C429.31 565.27 429.31 567.76 426.68 569.28L383.41 594.28C369.613 602.258 354.434 607.558 338.67 609.9C337.56 610 335.36 610 335.37 606.94Z" fill="#CA1B4D"/>
<path d="M304.52 33C304.52 35.62 304.52 123.38 304.52 123.38C304.52 126.38 302.37 127.66 299.74 126.14L226.74 84L213.21 76.18C210.58 74.67 210.58 72.18 213.21 70.66L256.48 45.66C270.275 37.6628 285.459 32.3493 301.23 30C302.33 29.85 304.53 29.88 304.52 33Z" fill="#CA1B4D"/>
<path d="M560.78 476.8C558.5 475.5 482.51 431.61 482.51 431.61C479.88 430.09 477.729 431.34 477.729 434.37V534.28C477.729 537.28 479.88 538.56 482.51 537.04L525.78 512.04C539.589 504.081 551.77 493.584 561.68 481.1C562.37 480.25 563.44 478.33 560.78 476.8Z" fill="#CA1B4D"/>
</svg>
