<svg width="842" height="842" viewBox="0 0 842 842" fill="none" xmlns="http://www.w3.org/2000/svg">
<path d="M175.07 598.79V601.16C173.972 601.277 172.883 601.468 171.81 601.73C170.951 601.867 170.155 602.265 169.53 602.87C168.72 603.77 168.8 607.3 168.8 610.45V645.84C168.8 652.69 167.03 658.64 163.2 663.7C159.37 668.76 154.48 671.34 148.56 671.28C143.7 671.28 143.34 668.21 143.34 666.96C143.314 666.095 143.591 665.248 144.125 664.567C144.658 663.885 145.414 663.412 146.26 663.23C147.214 663.037 148.199 663.063 149.141 663.306C150.083 663.548 150.958 664.001 151.7 664.63C152.92 665.8 153.89 666.39 154.6 666.39C155.493 666.328 156.326 665.919 156.92 665.25C157.865 664.262 158.648 663.132 159.24 661.9C160.245 659.94 160.949 657.84 161.33 655.67C161.846 652.638 162.09 649.566 162.06 646.49V610.13C162.06 606.76 162.2 603.74 161.49 602.87C161.33 602.43 160.55 602.04 159.17 601.69C158.067 601.438 156.947 601.261 155.82 601.16V598.79H175.07Z" fill="black"/>
<path d="M205.85 599.52L222 642C223 644.55 223.77 647.14 224.37 648.5C224.633 648.989 224.992 649.419 225.428 649.763C225.863 650.107 226.364 650.358 226.9 650.5C227.875 650.848 228.879 651.105 229.9 651.27L230.07 653.01H211.62L211.7 651.27C212.526 651.196 213.344 651.062 214.15 650.87C214.831 650.738 215.439 650.361 215.86 649.81C217 648.02 214.86 642.24 214.86 642.24L211.53 633H194.19L190.58 642.1C189.849 644.117 189.385 646.222 189.2 648.36C189.17 648.664 189.213 648.971 189.326 649.255C189.439 649.538 189.619 649.791 189.85 649.99C190.564 650.463 191.367 650.783 192.21 650.93C192.994 651.092 193.785 651.212 194.58 651.29L194.74 653.03H177.86V651.29C178.712 651.214 179.557 651.08 180.39 650.89C181.2 650.739 181.942 650.336 182.51 649.74C183.65 648.28 184.93 645.09 186.34 641.45L200.53 605C200.64 604.73 202.71 600 202.9 599.65C203.085 599.308 203.373 599.034 203.723 598.867C204.074 598.7 204.469 598.648 204.85 598.72C205.068 598.767 205.271 598.863 205.445 599.002C205.619 599.141 205.757 599.318 205.85 599.52ZM209.76 628.07L203.06 609.88L196.06 628.06L209.76 628.07Z" fill="black"/>
<path d="M297.65 599.52L313.78 642C314.78 644.55 315.54 647.21 316.14 648.57C316.4 649.061 316.759 649.492 317.195 649.836C317.63 650.181 318.133 650.431 318.67 650.57C319.645 650.918 320.649 651.179 321.67 651.35L321.83 653.02H303.42L303.5 651.35C304.325 651.27 305.144 651.133 305.95 650.94C306.634 650.815 307.245 650.437 307.66 649.88C308.8 648.1 306.66 642.25 306.66 642.25L303.34 633H286L282.39 642.1C281.657 644.138 281.193 646.262 281.01 648.42C280.979 648.726 281.021 649.034 281.134 649.32C281.248 649.605 281.428 649.859 281.66 650.06C282.366 650.533 283.163 650.853 284 651C284.779 651.168 285.567 651.292 286.36 651.37L286.52 653.04H269.66V651.37C270.512 651.289 271.357 651.152 272.19 650.96C273 650.815 273.743 650.416 274.31 649.82C275.45 648.35 276.73 645.1 278.14 641.46L292.33 605C292.44 604.73 294.52 600 294.71 599.65C294.891 599.308 295.178 599.033 295.527 598.866C295.876 598.698 296.27 598.647 296.65 598.72C296.868 598.766 297.072 598.862 297.245 599.001C297.419 599.14 297.558 599.318 297.65 599.52V599.52ZM301.56 628.07L294.86 609.88L287.86 628.06L301.56 628.07Z" fill="black"/>
<path d="M517.26 599.52L533.38 642C534.38 644.55 535.38 647.14 536.03 648.5C536.225 648.983 536.528 649.415 536.916 649.762C537.305 650.109 537.768 650.361 538.27 650.5C539.245 650.848 540.249 651.105 541.27 651.27L541.43 653.01H523L523.08 651.27C523.905 651.196 524.724 651.062 525.53 650.87C526.194 650.697 526.79 650.328 527.24 649.81C528.69 648.28 526.24 642.24 526.24 642.24L522.94 633H505.59L501.99 642.1C501.251 644.116 500.784 646.221 500.6 648.36C500.571 648.664 500.615 648.97 500.728 649.254C500.841 649.537 501.02 649.79 501.25 649.99C501.967 650.463 502.774 650.783 503.62 650.93C504.4 651.092 505.188 651.212 505.98 651.29L506.14 653.03H489.27V651.29C490.118 651.214 490.96 651.081 491.79 650.89C492.601 650.741 493.343 650.338 493.91 649.74C495.05 648.28 496.33 645.09 497.75 641.45L511.93 605C512.04 604.73 514.12 600 514.31 599.65C514.491 599.308 514.778 599.033 515.127 598.866C515.476 598.698 515.87 598.647 516.25 598.72C516.469 598.767 516.674 598.863 516.849 599.002C517.024 599.141 517.165 599.318 517.26 599.52V599.52ZM521.16 628.07L514.46 609.88L507.46 628.06L521.16 628.07Z" fill="black"/>
<path d="M234.38 599.12C234.38 599.12 254.09 599 255.67 599.12C261.59 599.4 264.67 601.18 266.38 602.27C268.158 603.427 269.606 605.025 270.58 606.91C271.728 609.06 272.291 611.474 272.21 613.91C272.15 616.59 270.88 624.83 262.96 628.54C261.413 629.272 259.736 629.69 258.026 629.769C256.316 629.848 254.608 629.586 253 629C251.599 628.59 250.319 627.845 249.27 626.83C248.86 626.19 249.45 625.77 249.8 626C251.398 626.594 253.095 626.876 254.8 626.83C256.148 626.846 257.485 626.583 258.726 626.056C259.967 625.529 261.085 624.751 262.01 623.77C264.329 621.327 265.698 618.134 265.87 614.77C265.997 611.721 265.028 608.727 263.14 606.33C261.46 604.07 257.83 602.54 254.29 602.54C252.373 602.482 250.457 602.674 248.59 603.11C248.446 603.145 248.315 603.221 248.214 603.33C248.112 603.438 248.045 603.574 248.02 603.72C247.849 604.54 247.752 605.373 247.73 606.21C247.65 607.52 247.61 609.47 247.61 612.08V641.19C247.61 644.84 247.83 647.83 248.26 648.92C248.53 649.63 249.5 650.2 251.16 650.63C252.325 650.922 253.507 651.139 254.7 651.28L254.87 653.02H234.38V651.33C235.449 651.232 236.511 651.069 237.56 650.84C238.528 650.698 239.403 650.185 240 649.41C240.38 648.75 240.57 645.57 240.57 641.11V610.29C240.57 607.08 240.5 604.36 240 603.29C239.443 602.403 238.594 601.738 237.6 601.41C236.577 600.997 235.483 600.793 234.38 600.81V599.12Z" fill="black"/>
<path d="M368.32 610C368.402 607.596 368.21 605.191 367.75 602.83C367.53 602.07 366.67 601.61 364.96 601.2C363.76 600.937 362.538 600.783 361.31 600.74V598.74H380.06V600.74C378.821 600.814 377.591 600.988 376.38 601.26C374.56 601.7 373.77 602.12 373.49 602.83C372.976 605.322 372.758 607.867 372.84 610.41V653.12H370.05L368.66 651.24L337.21 606.4V641.21C337.095 643.748 337.242 646.292 337.65 648.8C338.05 649.93 338.82 650.12 340.52 650.58C341.68 650.886 342.859 651.113 344.05 651.26V653H325.27V651.3C325.27 651.3 327.27 651.05 328.98 650.64C330.69 650.23 331.5 649.95 331.98 648.86C332.52 647.44 332.63 644.73 332.63 641.03V609C332.692 606.948 332.501 604.895 332.06 602.89C331.89 602.45 330.97 602.06 329.28 601.71C328.067 601.468 326.842 601.291 325.61 601.18V598.81H340.45C340.45 598.81 351.68 615.81 368.1 638.81C368.274 637.702 368.354 636.581 368.34 635.46L368.32 610Z" fill="black"/>
<path d="M407.44 613.3C407.416 611.269 407.839 609.258 408.679 607.409C409.519 605.56 410.755 603.918 412.3 602.6C415.47 600 419.483 598.652 423.58 598.81C425.213 598.848 426.843 598.981 428.46 599.21C431.011 599.7 433.532 600.338 436.01 601.12L437.01 612.89H434.72C434.265 610.207 433.043 607.713 431.2 605.71C429.15 603.42 426.48 602.39 423.01 602.24C419.72 602.1 417.11 603.24 415.77 604.85C414.47 606.567 413.853 608.705 414.04 610.85C414.035 612.326 414.379 613.783 415.045 615.1C415.71 616.417 416.679 617.559 417.87 618.43C418.87 619.25 419.62 619.83 420.09 620.16C420.56 620.49 421.49 621.09 422.89 621.97C424.29 622.85 425.18 623.4 425.56 623.62C425.94 623.84 426.8 624.37 428.45 625.39C430.1 626.41 431.22 627.12 431.82 627.53C432.812 628.211 433.76 628.952 434.66 629.75C436.135 630.949 437.356 632.43 438.254 634.105C439.152 635.781 439.708 637.618 439.89 639.51C439.955 641.604 439.538 643.685 438.671 645.592C437.804 647.5 436.511 649.182 434.89 650.51C431.442 653.269 427.124 654.709 422.71 654.57C421.305 654.563 419.902 654.466 418.51 654.28C417.03 654.09 415.8 653.9 414.81 653.7C413.82 653.5 412.57 653.24 411.06 652.88C409.55 652.52 407.89 652.18 407.89 652.18L406 639H408.39C408.848 641.067 409.667 643.038 410.81 644.82C413.23 648.82 417.7 651.12 422.87 651.12C425.428 651.186 427.92 650.306 429.87 648.65C430.846 647.775 431.611 646.691 432.11 645.479C432.609 644.267 432.828 642.958 432.75 641.65C432.715 640.266 432.393 638.904 431.804 637.651C431.215 636.398 430.373 635.281 429.33 634.37C428.671 633.806 427.969 633.294 427.23 632.84C426.74 632.51 425.83 631.99 424.51 631.28C423.19 630.57 422.29 630.07 421.8 629.79C420.2 628.86 419.09 628.2 418.46 627.79C417.83 627.38 416.83 626.79 415.33 625.79C414.174 625.072 413.109 624.215 412.16 623.24C411.47 622.49 407.31 619.16 407.44 613.3Z" fill="black"/>
<path d="M451.76 648.78V602.9C451.76 602.72 450.85 601.97 448.98 601.36C447.93 601.056 446.851 600.865 445.76 600.79V599.12L481.99 599.19L484.17 609.72H481.73C481.074 607.578 479.826 605.664 478.13 604.2C476.84 603.11 474.65 602.93 472.13 602.93H458.59V623.63H471.59C474.43 623.63 475.13 622.86 475.47 622.2C475.953 621.039 476.345 619.842 476.64 618.62H478.42V633.35H476.64C476.487 632.21 476.149 631.102 475.64 630.07C474.95 628.61 473.64 627.99 471.48 627.99H458.54V648.67L469.17 648.74C469.17 648.74 477.62 648.74 479.41 647.74C480.22 647.3 480.91 646.54 481.89 644.59C482.645 642.929 483.312 641.23 483.89 639.5H486.5L483.39 653.04L445.76 653V651.33C447.971 651.101 450.061 650.213 451.76 648.78V648.78Z" fill="black"/>
<path d="M567 599.08C571.017 598.98 574.974 600.072 578.37 602.22C580.266 603.349 581.84 604.947 582.94 606.86C584.164 608.986 584.783 611.407 584.73 613.86C584.625 616.455 583.732 618.955 582.17 621.03C580.184 623.644 577.565 625.709 574.56 627.03C574.02 627.24 573.86 627.51 574.07 627.84C576.79 633.55 579.74 638.99 583.27 642.84C589.27 650.26 593.27 652.02 597.72 653.84C598.58 654.2 598.31 654.75 597.64 654.76C596.169 654.781 594.699 654.661 593.25 654.4C586.06 653.15 580.01 648.4 574.97 641.4C574.104 640.2 573.104 638.773 571.97 637.12C570.85 635.46 567.32 629.6 566.8 629.17C566.28 628.74 566.22 628.35 565.13 628.11C563.784 627.897 562.423 627.786 561.06 627.78C560.727 627.759 560.393 627.759 560.06 627.78C559.808 627.825 559.578 627.956 559.41 628.15C559.29 628.285 559.198 628.444 559.141 628.616C559.085 628.788 559.064 628.97 559.08 629.15C559.08 629.15 559.3 647.39 559.73 648.48C560.01 649.18 561.03 649.94 562.73 650.37C564.43 650.8 566.37 651.22 566.37 651.22V653H545.57V651.27C545.57 651.27 547.57 650.85 548.9 650.48C551.09 649.88 551.82 649.4 551.9 648.28V603.28C551.9 603.28 551.51 602.11 549 601.38C547.944 601.104 546.867 600.913 545.78 600.81V599.12L567 599.08ZM565.82 602.54C564.244 602.466 562.665 602.533 561.1 602.74C560.89 602.74 559.1 602.87 559.1 605.61V622C559.1 623.58 561.47 624.36 566.2 624.36H568.2C570.114 624.36 572.084 623.41 574.11 621.51C575.132 620.539 575.934 619.359 576.462 618.052C576.99 616.744 577.231 615.339 577.17 613.93C577.184 606.337 573.387 602.54 565.78 602.54H565.82Z" fill="black"/>
<path d="M641.54 638.31L638.8 650C637.697 650.578 636.562 651.092 635.4 651.54C631.53 652.87 627.4 653.88 619.59 653.54C612.53 653.22 606.5 650.94 601.59 645.75C599.185 643.299 597.289 640.397 596.012 637.209C594.735 634.022 594.102 630.613 594.15 627.18C594.136 619.841 596.885 612.765 601.85 607.36C604.275 604.861 607.177 602.873 610.384 601.515C613.591 600.156 617.037 599.454 620.52 599.45C631.73 599.45 638.46 602.74 638.46 602.74L639.85 613L637.11 613.81C637.11 613.81 636.75 612.4 636.51 611.68C636.27 610.96 634.83 606.59 627.51 603.68C625.323 602.956 623.021 602.641 620.72 602.75C616.97 602.75 611.6 605.07 607.91 609.75C604.285 614.288 602.345 619.943 602.42 625.75C602.355 629.768 603.1 633.757 604.61 637.48C605.889 641.008 608.169 644.087 611.17 646.34C614.483 648.814 618.515 650.135 622.65 650.1C627.95 650.1 631.65 648.79 634.51 645.68C635.449 644.67 636.219 643.515 636.79 642.26C637.35 640.95 638.88 637.64 638.88 637.64L641.54 638.31Z" fill="black"/>
<path d="M692.48 603V649.13C692.54 649.64 693.36 650.42 695.05 650.76C696.46 651.05 698.11 651.28 698.11 651.28V653H679.11V651.3C679.11 651.3 680.83 651.1 682.21 650.82C684.02 650.46 685.11 650.09 685.12 649.15V627.39H660.6V649.11C660.6 649.7 661.49 650.4 663.17 650.74C664.58 651.03 666.23 651.26 666.23 651.26V653H647.23V651.3C647.23 651.3 648.96 651.1 650.34 650.82C652.15 650.46 653.21 650.09 653.23 649.15V603C653.23 602.18 652.12 601.74 650.68 601.33C649.662 601.074 648.626 600.9 647.58 600.81V599.33H666.58V600.81C665.471 600.879 664.368 601.026 663.28 601.25C662.05 601.58 660.53 602.09 660.53 603V623.12H684.97L685.05 603.02C685.05 602.2 683.93 601.76 682.49 601.35C681.472 601.094 680.436 600.92 679.39 600.83V599.35H698.39V600.83C697.281 600.899 696.178 601.046 695.09 601.27C693.86 601.6 692.34 602.11 692.34 603.02L692.48 603Z" fill="black"/>
<path d="M436.91 425.43C436.91 427.29 438.23 428.05 439.84 427.12L502.25 391.12C503.101 390.563 503.81 389.814 504.318 388.934C504.827 388.053 505.122 387.066 505.18 386.05V313.94C505.18 312.08 503.86 311.32 502.25 312.25L439.84 348.25C438.989 348.807 438.281 349.556 437.772 350.437C437.263 351.317 436.968 352.305 436.91 353.32V425.43Z" fill="black"/>
<path d="M349.75 375.11C349.75 376.97 351.07 377.73 352.68 376.8L415.1 340.8C415.95 340.243 416.657 339.493 417.164 338.613C417.671 337.732 417.964 336.745 418.02 335.73V263.62C418.02 261.76 416.71 261 415.1 261.93L352.68 297.93C351.829 298.487 351.121 299.236 350.612 300.116C350.103 300.997 349.808 301.985 349.75 303V375.11Z" fill="black"/>
<path d="M502.25 477.44C503.86 478.37 505.18 477.61 505.18 475.75V414.58C505.18 412.72 503.86 411.96 502.25 412.89L449.25 443.48C447.64 444.41 447.64 445.93 449.25 446.86L502.25 477.44Z" fill="black"/>
<path d="M527 312.25C525.39 311.32 524.07 312.08 524.07 313.94V375.11C524.07 376.97 525.39 377.73 527 376.8L580 346.22C581.61 345.29 581.61 343.77 580 342.84L527 312.25Z" fill="black"/>
<path d="M439.84 261.93C438.23 261 436.91 261.76 436.91 263.62V324.79C436.91 326.65 438.23 327.41 439.84 326.48L492.84 295.9C494.45 294.97 494.45 293.45 492.84 292.52L439.84 261.93Z" fill="black"/>
<path d="M352.68 211.61C351.07 210.68 349.75 211.44 349.75 213.3V274.47C349.75 276.33 351.07 277.09 352.68 276.16L405.68 245.58C407.29 244.65 407.29 243.13 405.68 242.2L352.68 211.61Z" fill="black"/>
<path d="M415.1 427.12C416.71 428.05 418.02 427.29 418.02 425.43V364.26C418.02 362.4 416.71 361.64 415.1 362.57L362.1 393.16C360.49 394.09 360.49 395.61 362.1 396.54L415.1 427.12Z" fill="black"/>
<path d="M327.94 376.8C329.55 377.73 330.87 376.97 330.87 375.11V313.94C330.87 312.08 329.55 311.32 327.94 312.25L274.94 342.84C273.33 343.77 273.33 345.29 274.94 346.22L327.94 376.8Z" fill="black"/>
<path d="M418 520.23V464.9C418 463.04 416.69 462.28 415.08 463.21L370.41 489L362.13 493.79C360.51 494.72 360.52 496.24 362.13 497.17L388.62 512.46C397.063 517.339 406.353 520.576 416 522C416.68 522.13 418 522.11 418 520.23Z" fill="black"/>
<path d="M436.91 168.82C436.91 170.42 436.91 224.15 436.91 224.15C436.91 226.01 438.23 226.77 439.84 225.84L484.52 200L492.81 195.22C494.42 194.29 494.42 192.77 492.81 191.84L466.32 176.54C457.872 171.663 448.579 168.427 438.93 167C438.25 166.92 436.91 166.94 436.91 168.82Z" fill="black"/>
<path d="M574.91 248.49C576.11 247.81 576.07 246.99 575.8 246.39C570.308 239.353 563.652 233.309 556.12 228.52C555.85 228.35 555.58 228.18 555.3 228.02C554.36 227.44 553.42 226.86 552.45 226.32L537.65 217.78L517.54 206.17C516.633 205.711 515.631 205.472 514.615 205.472C513.599 205.472 512.597 205.711 511.69 206.17L449.27 242.17C447.66 243.1 447.66 244.62 449.27 245.55L480.48 263.55L511.69 281.55C512.597 282.009 513.599 282.248 514.615 282.248C515.631 282.248 516.633 282.009 517.54 281.55L537.66 270L574.87 248.52L574.91 248.49Z" fill="black"/>
<path d="M405.65 443.48L343.24 407.48C342.332 407.021 341.328 406.782 340.31 406.782C339.292 406.782 338.289 407.021 337.38 407.48L317.59 418.91L280.09 440.56H280.02C278.71 441.31 278.88 442.22 279.22 442.82C279.56 443.42 280.09 443.95 280.55 444.5C282.934 447.347 285.517 450.02 288.28 452.5V452.5C289.14 453.27 290.02 454.03 290.92 454.76L291.24 455.03C292.01 455.66 292.8 456.27 293.6 456.87L294.36 457.44C295.01 457.92 295.67 458.37 296.36 458.83C296.79 459.12 297.21 459.42 297.65 459.7C298.09 459.98 298.65 460.36 299.19 460.7C299.93 461.16 300.67 461.63 301.43 462.06L317.57 471.38L337.36 482.81C338.269 483.269 339.272 483.508 340.29 483.508C341.308 483.508 342.312 483.269 343.22 482.81L405.63 446.81C407.26 445.93 407.26 444.41 405.65 443.48Z" fill="black"/>
<path d="M584.36 264.85L536.44 292.52C534.83 293.45 534.83 294.97 536.44 295.9L581.13 321.7L589.41 326.48C591.02 327.41 592.34 326.65 592.34 324.79V294.2C592.349 284.443 590.51 274.773 586.92 265.7C586.859 265.436 586.731 265.192 586.549 264.992C586.366 264.792 586.135 264.642 585.878 264.557C585.621 264.471 585.347 264.453 585.081 264.505C584.815 264.556 584.567 264.675 584.36 264.85Z" fill="black"/>
<path d="M270.58 264.85L318.5 292.52C320.11 293.45 320.11 294.97 318.5 295.9L273.81 321.7L265.53 326.48C263.91 327.41 262.6 326.65 262.6 324.79V294.2C262.585 284.444 264.417 274.774 268 265.7C268.062 265.434 268.191 265.189 268.375 264.987C268.559 264.786 268.792 264.635 269.051 264.55C269.31 264.465 269.587 264.447 269.855 264.5C270.123 264.553 270.372 264.673 270.58 264.85V264.85Z" fill="black"/>
<path d="M584.36 424.2L536.44 396.54C534.83 395.61 534.83 394.09 536.44 393.16L581.13 367.36L589.41 362.57C591.02 361.64 592.34 362.4 592.34 364.26V394.85C592.348 404.61 590.509 414.284 586.92 423.36C586.858 423.623 586.729 423.866 586.546 424.065C586.363 424.264 586.132 424.413 585.875 424.497C585.618 424.581 585.344 424.598 585.079 424.546C584.813 424.494 584.566 424.375 584.36 424.2Z" fill="black"/>
<path d="M270.58 424.2L318.5 396.54C320.11 395.61 320.11 394.09 318.5 393.16L273.81 367.36L265.53 362.57C263.91 361.64 262.6 362.4 262.6 364.26V394.85C262.586 404.609 264.418 414.283 268 423.36C268.063 423.625 268.193 423.869 268.378 424.07C268.563 424.27 268.796 424.419 269.055 424.504C269.314 424.588 269.59 424.604 269.857 424.551C270.124 424.498 270.373 424.377 270.58 424.2Z" fill="black"/>
<path d="M280 248.49L327.92 276.16C329.53 277.09 330.85 276.33 330.85 274.47V213.3C330.85 211.44 329.53 210.68 327.92 211.61L301.43 226.91C292.967 231.779 285.502 238.205 279.43 245.85C279.236 246.038 279.092 246.272 279.014 246.531C278.935 246.79 278.924 247.064 278.981 247.328C279.038 247.593 279.162 247.838 279.34 248.041C279.518 248.245 279.745 248.399 280 248.49V248.49Z" fill="black"/>
<path d="M436.91 520.23C436.91 518.63 436.91 464.9 436.91 464.9C436.91 463.04 438.23 462.28 439.84 463.21L484.52 489L492.81 493.79C494.42 494.72 494.42 496.24 492.81 497.17L466.32 512.46C457.872 517.337 448.579 520.573 438.93 522C438.25 522.13 436.91 522.11 436.91 520.23Z" fill="black"/>
<path d="M418 168.82V224.15C418 226.01 416.69 226.77 415.08 225.84L370.41 200L362.13 195.22C360.51 194.29 360.52 192.77 362.13 191.84L388.62 176.54C397.063 171.662 406.353 168.425 416 167C416.68 166.92 418 166.94 418 168.82Z" fill="black"/>
<path d="M574.91 440.56L527 412.89C525.38 411.96 524.07 412.72 524.07 414.58V475.75C524.07 477.61 525.39 478.37 527 477.44L553.49 462.14C561.953 457.272 569.418 450.845 575.49 443.2C575.684 443.011 575.827 442.776 575.905 442.517C575.983 442.258 575.993 441.983 575.935 441.719C575.877 441.454 575.752 441.209 575.573 441.006C575.394 440.804 575.166 440.65 574.91 440.56V440.56Z" fill="black"/>
</svg>
