<svg width="312" height="480" viewBox="0 0 312 480" fill="none" xmlns="http://www.w3.org/2000/svg">
<g opacity="0.3">
<path fill-rule="evenodd" clip-rule="evenodd" d="M28 0H32V32H28V4H18V32H14V4H11V32H7V0H11H28ZM21 7H25V32H21V7ZM0 0H4V32H0V0Z" fill="#646464"/>
<path fill-rule="evenodd" clip-rule="evenodd" d="M84 0H88V32H84V0ZM77 0H81V32H77V0ZM70 0H74V32H70V0ZM63 0H67V32H63V0ZM56 0H60V32H56V0Z" fill="#646464"/>
<path fill-rule="evenodd" clip-rule="evenodd" d="M140 0H144V32H140V4H137V32H133V0H137H140ZM126 0H130V32H126V0ZM119 0H123V32H119V0ZM112 0H116V32H112V0Z" fill="#646464"/>
<path fill-rule="evenodd" clip-rule="evenodd" d="M189 0H193V32H189V4H186V32H182V0H186H189ZM196 0H200V32H196V0ZM175 0H179V32H175V0ZM168 0H172V32H168V0Z" fill="#646464"/>
<path fill-rule="evenodd" clip-rule="evenodd" d="M252 0H256V32H252V4H249V32H245V0H249H252ZM238 0H242V32H238V4H235V32H231V0H235H238ZM224 0H228V32H224V0Z" fill="#646464"/>
<path fill-rule="evenodd" clip-rule="evenodd" d="M301 0H305V32H301V4H298V32H294V4H291V32H287V4H284V32H280V0H284H301ZM308 0H312V32H308V0Z" fill="#646464"/>
<path fill-rule="evenodd" clip-rule="evenodd" d="M28 56H32V88H28V60H18V88H14V60H11V88H7V56H11H28ZM21 63H25V88H21V63ZM0 56H4V88H0V56Z" fill="#646464"/>
<path fill-rule="evenodd" clip-rule="evenodd" d="M84 56H88V88H84V60H74V88H70V56H74H84ZM77 63H81V88H77V63ZM63 56H67V88H63V56ZM56 56H60V88H56V56Z" fill="#646464"/>
<path fill-rule="evenodd" clip-rule="evenodd" d="M119 56H123V88H119V60H116V88H112V56H116H119ZM140 56H144V88H140V56ZM133 56H137V88H133V56ZM126 56H130V88H126V56Z" fill="#646464"/>
<path fill-rule="evenodd" clip-rule="evenodd" d="M196 56H200V88H196V60H193V88H189V56H193H196ZM182 56H186V88H182V60H179V88H175V60H172V88H168V56H172H182Z" fill="#646464"/>
<path fill-rule="evenodd" clip-rule="evenodd" d="M249 63H252H256V88H252V67H249V88H245V67H242V88H238V63H242H245V60H235V88H231V56H235H245H249V63ZM224 56H228V88H224V56Z" fill="#646464"/>
<path fill-rule="evenodd" clip-rule="evenodd" d="M291 63H301H305V88H301V67H298V88H294V67H291V88H287V67H284V88H280V63H284H287V56H291H308H312V88H308V60H291V63Z" fill="#646464"/>
<path fill-rule="evenodd" clip-rule="evenodd" d="M14 112H18V144H14V116H11V144H7V112H11H14ZM28 112H32V144H28V112ZM21 112H25V144H21V112ZM0 112H4V144H0V112Z" fill="#646464"/>
<path fill-rule="evenodd" clip-rule="evenodd" d="M84 112H88V144H84V116H81V144H77V116H67V144H63V112H67H84ZM70 119H74V144H70V119ZM56 112H60V144H56V112Z" fill="#646464"/>
<path fill-rule="evenodd" clip-rule="evenodd" d="M126 112H130V144H126V116H123V144H119V116H116V144H112V112H116H126ZM140 112H144V144H140V112ZM133 112H137V144H133V112Z" fill="#646464"/>
<path fill-rule="evenodd" clip-rule="evenodd" d="M189 112H193V144H189V116H186V144H182V116H179V144H175V112H179H189ZM196 112H200V144H196V112ZM168 112H172V144H168V112Z" fill="#646464"/>
<path fill-rule="evenodd" clip-rule="evenodd" d="M235 112H252H256V144H252V116H235V119H238H242V144H238V123H235V144H231V123H228V144H224V119H228H231V112H235ZM245 119H249V144H245V119Z" fill="#646464"/>
<path fill-rule="evenodd" clip-rule="evenodd" d="M301 112H305V144H301V116H298V144H294V112H298H301ZM287 112H291V144H287V116H284V144H280V112H284H287ZM308 112H312V144H308V112Z" fill="#646464"/>
<path fill-rule="evenodd" clip-rule="evenodd" d="M28 168H32V200H28V172H25V200H21V172H18V200H14V172H11V200H7V168H11H28ZM0 168H4V200H0V168Z" fill="#646464"/>
<path fill-rule="evenodd" clip-rule="evenodd" d="M77 168H81V200H77V172H74V200H70V172H60V200H56V168H60H77ZM84 168H88V200H84V168ZM63 175H67V200H63V175Z" fill="#646464"/>
<path fill-rule="evenodd" clip-rule="evenodd" d="M126 168H130V200H126V172H116V200H112V168H116H126ZM140 168H144V200H140V168ZM133 168H137V200H133V168ZM119 175H123V200H119V175Z" fill="#646464"/>
<path fill-rule="evenodd" clip-rule="evenodd" d="M175 168H179V200H175V172H172V200H168V168H172H175ZM196 168H200V200H196V172H193V200H189V172H186V200H182V168H186H196Z" fill="#646464"/>
<path fill-rule="evenodd" clip-rule="evenodd" d="M235 175H238H242V200H238V179H235V200H231V179H228V200H224V175H228H231V168H235H245H249V200H245V172H235V175ZM252 168H256V200H252V168Z" fill="#646464"/>
<path fill-rule="evenodd" clip-rule="evenodd" d="M305 175H308H312V200H308V179H305V200H301V179H298V200H294V179H291V200H287V175H291H301V172H284V200H280V168H284H301H305V175Z" fill="#646464"/>
<path fill-rule="evenodd" clip-rule="evenodd" d="M21 224H25V256H21V228H11V256H7V228H4V256H0V224H4H21ZM28 224H32V256H28V224ZM14 231H18V256H14V231Z" fill="#646464"/>
<path fill-rule="evenodd" clip-rule="evenodd" d="M84 224H88V256H84V228H81V256H77V228H74V256H70V224H74H84ZM63 224H67V256H63V224ZM56 224H60V256H56V224Z" fill="#646464"/>
<path fill-rule="evenodd" clip-rule="evenodd" d="M133 224H137V256H133V228H123V256H119V224H123H133ZM140 224H144V256H140V224ZM126 231H130V256H126V231ZM112 224H116V256H112V224Z" fill="#646464"/>
<path fill-rule="evenodd" clip-rule="evenodd" d="M196 224H200V256H196V228H193V256H189V224H193H196ZM175 224H179V256H175V228H172V256H168V224H172H175ZM182 224H186V256H182V224Z" fill="#646464"/>
<path fill-rule="evenodd" clip-rule="evenodd" d="M242 231H252H256V256H252V235H249V256H245V235H242V256H238V235H235V256H231V231H235H238V228H228V256H224V224H228H238H242V231Z" fill="#646464"/>
<path fill-rule="evenodd" clip-rule="evenodd" d="M301 224H305V256H301V228H284V256H280V224H284H301ZM308 224H312V256H308V224ZM294 231H298V256H294V231ZM287 231H291V256H287V231Z" fill="#646464"/>
<path fill-rule="evenodd" clip-rule="evenodd" d="M21 287H25V312H21V291H11V312H7V287H11H21ZM28 280H32V312H28V284H4V312H0V280H4H28ZM14 294H18V312H14V294Z" fill="#646464"/>
<path fill-rule="evenodd" clip-rule="evenodd" d="M84 280H88V312H84V284H74V312H70V284H67V312H63V284H60V312H56V280H60H84ZM77 287H81V312H77V287Z" fill="#646464"/>
<path fill-rule="evenodd" clip-rule="evenodd" d="M133 287H137V312H133V291H130V312H126V287H130H133ZM140 280H144V312H140V284H123V312H119V280H123H140ZM112 280H116V312H112V280Z" fill="#646464"/>
<path fill-rule="evenodd" clip-rule="evenodd" d="M189 287H193V312H189V291H186V312H182V287H186H189ZM196 280H200V312H196V284H179V312H175V284H172V312H168V280H172H196Z" fill="#646464"/>
<path fill-rule="evenodd" clip-rule="evenodd" d="M252 280H256V312H252V284H249V312H245V280H249H252ZM238 280H242V312H238V284H228V312H224V280H228H238ZM231 287H235V312H231V287Z" fill="#646464"/>
<path fill-rule="evenodd" clip-rule="evenodd" d="M308 280H312V312H308V284H298V312H294V284H284V312H280V280H284H308ZM301 287H305V312H301V287ZM287 287H291V312H287V287Z" fill="#646464"/>
<path fill-rule="evenodd" clip-rule="evenodd" d="M28 336H32V368H28V340H25V368H21V340H4V368H0V336H4H28ZM14 343H18V368H14V343ZM7 343H11V368H7V343Z" fill="#646464"/>
<path fill-rule="evenodd" clip-rule="evenodd" d="M77 343H81V368H77V347H74V368H70V343H74H77ZM84 336H88V368H84V340H60V368H56V336H60H84ZM63 343H67V368H63V343Z" fill="#646464"/>
<path fill-rule="evenodd" clip-rule="evenodd" d="M130 343H133H137V368H133V347H130V368H126V347H116V368H112V343H116H126V336H130H140H144V368H140V340H130V343ZM119 350H123V368H119V350Z" fill="#646464"/>
<path fill-rule="evenodd" clip-rule="evenodd" d="M193 343H196H200V368H196V347H193V368H189V347H179V368H175V343H179H189V340H172V368H168V336H172H189H193V343ZM182 350H186V368H182V350Z" fill="#646464"/>
<path fill-rule="evenodd" clip-rule="evenodd" d="M252 336H256V368H252V340H228V368H224V336H228H252ZM245 343H249V368H245V343ZM238 343H242V368H238V343ZM231 343H235V368H231V343Z" fill="#646464"/>
<path fill-rule="evenodd" clip-rule="evenodd" d="M298 343H301H305V368H301V347H298V368H294V347H291V368H287V347H284V368H280V343H284H294V336H298H308H312V368H308V340H298V343Z" fill="#646464"/>
<path fill-rule="evenodd" clip-rule="evenodd" d="M28 392H32V424H28V396H11V424H7V392H11H28ZM21 399H25V424H21V399ZM14 399H18V424H14V399ZM0 392H4V424H0V392Z" fill="#646464"/>
<path fill-rule="evenodd" clip-rule="evenodd" d="M77 399H81V424H77V403H74V424H70V403H67V424H63V399H67H77ZM84 392H88V424H84V396H60V424H56V392H60H84Z" fill="#646464"/>
<path fill-rule="evenodd" clip-rule="evenodd" d="M140 392H144V424H140V396H137V424H133V396H130V424H126V396H116V424H112V392H116H140ZM119 399H123V424H119V399Z" fill="#646464"/>
<path fill-rule="evenodd" clip-rule="evenodd" d="M182 399H186V424H182V403H179V424H175V399H179H182ZM189 392H193V424H189V396H172V424H168V392H172H189ZM196 392H200V424H196V392Z" fill="#646464"/>
<path fill-rule="evenodd" clip-rule="evenodd" d="M238 399H242V424H238V403H235V424H231V399H235H238ZM252 392H256V424H252V396H249V424H245V396H228V424H224V392H228H252Z" fill="#646464"/>
<path fill-rule="evenodd" clip-rule="evenodd" d="M287 392H291V424H287V396H284V424H280V392H284H287ZM308 392H312V424H308V396H298V424H294V392H298H308ZM301 399H305V424H301V399Z" fill="#646464"/>
<path fill-rule="evenodd" clip-rule="evenodd" d="M28 448H32V480H28V452H25V480H21V452H11V480H7V452H4V480H0V448H4H28ZM14 455H18V480H14V455Z" fill="#646464"/>
<path fill-rule="evenodd" clip-rule="evenodd" d="M84 448H88V480H84V452H67V480H63V452H60V480H56V448H60H84ZM77 455H81V480H77V455ZM70 455H74V480H70V455Z" fill="#646464"/>
<path fill-rule="evenodd" clip-rule="evenodd" d="M126 455H130V480H126V459H123V480H119V455H123H126ZM140 448H144V480H140V452H116V480H112V448H116H140ZM133 455H137V480H133V455Z" fill="#646464"/>
<path fill-rule="evenodd" clip-rule="evenodd" d="M186 455H193V457V480H189V459H186V480H182V459H179V480H175V455H179H182V452H172V480H168V448H172H196H200V480H196V452H186V455Z" fill="#646464"/>
<path fill-rule="evenodd" clip-rule="evenodd" d="M252 448H256V480H252V452H249V480H245V452H242V480H238V452H235V480H231V452H228V480H224V448H228H252Z" fill="#646464"/>
<path fill-rule="evenodd" clip-rule="evenodd" d="M291 448H308H312V480H308V452H305V480H301V452H291V455H294H298V480H294V459H291V480H287V459H284V480H280V455H284H287V448H291Z" fill="#646464"/>
</g>
</svg>
