<svg width="135" height="72" viewBox="0 0 135 72" fill="none" xmlns="http://www.w3.org/2000/svg">
<g clip-path="url(#clip0_7726_77648)">
<path fill-rule="evenodd" clip-rule="evenodd" d="M39.891 51.4442V55.1592C39.267 54.2872 38.684 53.3842 38.145 52.4532C38.145 52.4532 38.145 52.4522 38.144 52.4522C38.143 52.4502 38.141 52.4472 38.14 52.4442L67.061 35.7472L67.056 35.7452L66.06 35.1702L37.645 51.5752C37.343 51.0152 37.061 50.4442 36.79 49.8652L64.153 34.0692L63.153 33.4912L36.376 48.9502C36.122 48.3612 35.882 47.7652 35.662 47.1602L61.245 32.3902L60.245 31.8122L35.334 46.1942C35.13 45.5752 34.941 44.9502 34.772 44.3172L58.338 30.7112L57.338 30.1332L34.527 43.3042C34.375 42.6522 34.243 41.9952 34.13 41.3302L55.431 29.0322L55.083 28.8312L54.431 28.4552L33.969 40.2682C33.876 39.5822 33.805 38.8892 33.754 38.1902L52.524 27.3542L51.524 26.7762H51.523L33.69 37.0722C33.673 36.6352 33.657 36.1992 33.657 35.7582C33.657 35.4622 33.671 35.1702 33.679 34.8762L49.617 25.6752L48.617 25.0972L48.616 25.0982L33.727 33.6942C33.775 32.9082 33.853 32.1302 33.955 31.3602L46.708 23.9962H46.709L45.708 23.4192L34.147 30.0942C34.291 29.2492 34.463 28.4122 34.67 27.5902L43.801 22.3182H43.802L42.802 21.7402H42.801L35.053 26.2142C35.332 25.2772 35.655 24.3592 36.012 23.4582L40.894 20.6392H40.895L39.895 20.0622H39.894L36.666 21.9252C37.116 20.9422 37.611 19.9852 38.15 19.0542C38.152 19.0512 38.153 19.0482 38.155 19.0462L67.073 35.7422V35.7382V34.5872L38.666 18.1862C39.002 17.6442 39.357 17.1152 39.723 16.5942L67.073 32.3852V31.2302L40.305 15.7752C40.691 15.2602 41.096 14.7602 41.51 14.2692L67.073 29.0272V27.8732L42.177 13.4992C42.613 13.0112 43.061 12.5352 43.524 12.0742L67.073 25.6712V24.5162L44.279 11.3552C44.768 10.8972 45.267 10.4492 45.784 10.0222L67.074 22.3142V21.1592L46.627 9.35421C47.176 8.92821 47.734 8.51421 48.309 8.12321L67.074 18.9562V18.9572V17.8012L49.251 7.51221C49.867 7.12221 50.491 6.74521 51.132 6.39521L67.074 15.5992V14.4442L52.19 5.85121C52.886 5.50321 53.594 5.17721 54.317 4.87721L67.074 12.2422V11.0882V11.0872L55.505 4.40821C56.305 4.11221 57.122 3.85321 57.951 3.61721L67.074 8.88421V8.88521V7.73021L59.328 3.25721C60.265 3.03421 61.215 2.84521 62.181 2.70321L67.074 5.52721V5.52821V4.37321L63.831 2.50121C64.899 2.39821 65.98 2.34121 67.074 2.34121H67.083V35.7512L67.087 35.7482L68.083 35.1732V2.36721C68.724 2.38621 69.36 2.42221 69.991 2.47621V34.0722L70.991 33.4952V2.57921C71.633 2.65421 72.268 2.74921 72.899 2.86021V32.3932L73.899 31.8162V3.04521C74.542 3.17821 75.176 3.33621 75.806 3.50621L75.805 30.7152L76.805 30.1382L76.806 3.79121C77.451 3.98721 78.086 4.20221 78.713 4.43621V29.0372L79.226 28.7402L79.713 28.4592V4.83121C80.359 5.09621 80.996 5.37621 81.62 5.67921V27.3582L82.62 26.7812V6.19221C83.269 6.53421 83.906 6.89321 84.528 7.27621V25.6792V25.6802L85.528 25.1032V25.1022V7.91821C86.181 8.35221 86.816 8.81021 87.435 9.28821V24.0012L88.435 23.4242V23.4232V10.0842C89.094 10.6332 89.728 11.2102 90.343 11.8072V22.3222V22.3232L91.343 21.7462V21.7452V12.8232C92.01 13.5282 92.646 14.2622 93.25 15.0232V20.6442L94.25 20.0672V16.3492C94.875 17.2222 95.458 18.1252 95.998 19.0572L96.004 19.0662L67.081 35.7642L67.085 35.7662L68.081 36.3412L96.498 19.9352C96.8 20.4952 97.082 21.0662 97.353 21.6442L69.989 37.4432L70.989 38.0202L97.768 22.5602C98.022 23.1482 98.262 23.7442 98.483 24.3492L72.896 39.1212L73.896 39.6992L98.81 25.3152C99.014 25.9342 99.204 26.5582 99.372 27.1932L75.803 40.8002L76.803 41.3782L99.619 28.2052C99.77 28.8562 99.903 29.5132 100.015 30.1782L78.71 42.4792L79.71 43.0562L100.176 31.2402C100.27 31.9272 100.34 32.6202 100.391 33.3192L81.618 44.1572L82.618 44.7352L100.456 34.4362C100.474 34.8752 100.49 35.3152 100.49 35.7582C100.49 36.0512 100.475 36.3402 100.468 36.6322L84.526 45.8362H84.525L85.526 46.4142V46.4132L100.42 37.8142C100.372 38.6002 100.294 39.3772 100.193 40.1482L87.432 47.5142L88.432 48.0922H88.433L100.001 41.4132C99.857 42.2582 99.686 43.0942 99.478 43.9172L90.34 49.1932V49.1942L91.34 49.7712L99.096 45.2932C98.817 46.2302 98.495 47.1482 98.138 48.0482L93.247 50.8722L94.247 51.4492L97.485 49.5802C97.035 50.5672 96.538 51.5272 95.998 52.4602H95.997C95.996 52.4632 95.995 52.4652 95.993 52.4682L67.069 35.7692V35.7732V36.9232L95.481 53.3282C95.145 53.8702 94.791 54.4002 94.425 54.9212L67.069 39.1262V40.2812L93.842 55.7392C93.456 56.2552 93.052 56.7542 92.638 57.2462L67.069 42.4832V43.6382L91.971 58.0162C91.535 58.5032 91.087 58.9792 90.623 59.4402L67.069 45.8402V46.9952L89.87 60.1602C89.379 60.6172 88.881 61.0652 88.365 61.4932L67.068 49.1972V50.3522L87.52 62.1612C86.972 62.5872 86.413 63.0012 85.838 63.3922L67.068 52.5542V53.7092V53.7102L84.897 64.0032C84.282 64.3932 83.658 64.7702 83.016 65.1192L67.068 55.9122V57.0672L81.958 65.6642C81.262 66.0112 80.554 66.3382 79.831 66.6382L67.068 59.2692V60.4232V60.4242L78.643 67.1072C77.843 67.4032 77.026 67.6622 76.198 67.8982L67.068 62.6262V63.7812L74.822 68.2572C73.884 68.4812 72.934 68.6702 71.968 68.8132L67.068 65.9842V65.9832V67.1382L70.317 69.0142C69.249 69.1182 68.168 69.1742 67.074 69.1742C67.072 69.1742 67.07 69.1742 67.068 69.1742H67.057L67.058 35.7602L67.054 35.7622L66.058 36.3382L66.057 69.1492C65.417 69.1292 64.781 69.0942 64.15 69.0392L64.151 37.4392L63.151 38.0162L63.15 68.9362C62.508 68.8612 61.873 68.7662 61.243 68.6542V39.1172L60.243 39.6952V68.4702C59.599 68.3362 58.965 68.1782 58.335 68.0072V40.7962L57.335 41.3732V67.7232C56.691 67.5272 56.055 67.3112 55.428 67.0772V42.4742L54.428 43.0512V66.6822C53.783 66.4172 53.145 66.1372 52.521 65.8342V44.1532L51.521 44.7302V65.3212C50.872 64.9792 50.236 64.6192 49.614 64.2362V45.8322V45.8312L48.614 46.4082V46.4092V63.5942C47.96 63.1602 47.326 62.7012 46.706 62.2232V47.5102V47.5092L45.706 48.0872V61.4272C45.047 60.8782 44.413 60.3002 43.798 59.7032V49.1892V49.1882L42.798 49.7652V49.7662V58.6872C42.131 57.9812 41.495 57.2472 40.891 56.4862V50.8672V50.8662L39.891 51.4442ZM67.074 70.1742C48.096 70.1742 32.657 54.7362 32.657 35.7582C32.657 16.7802 48.096 1.34121 67.074 1.34121C86.051 1.34121 101.49 16.7802 101.49 35.7582C101.49 54.7362 86.051 70.1742 67.074 70.1742ZM9.7474 5.61121L8.7464 5.03421L17.4664 0.000211719H19.4664L9.7474 5.61121ZM14.5609 8.39101L29.0959 1.17188e-05H31.0959L15.5619 8.96901H15.5609L14.5609 8.39101ZM3.932 2.25381L2.932 1.67681L5.836 -0.000188281H7.836L3.932 2.25381ZM34.433 -8.82812e-05C34.429 18.9739 18.992 34.4079 0.017 34.4079C0.012 34.4079 0.006 34.4079 0 34.4079V-8.82812e-05H0.001V33.4079C0.004 33.4079 0.007 33.4079 0.011 33.4079H0.017C1.112 33.4079 2.193 33.3519 3.261 33.2479L0.011 31.3719V30.2169H0.012L4.912 33.0459C5.877 32.9039 6.828 32.7149 7.765 32.4919L0.012 28.0149H0.011V26.8599H0.012L9.142 32.1309C9.969 31.8959 10.787 31.6369 11.587 31.3409L0.012 24.6579H0.011V23.5029H0.012L12.775 30.8719C13.497 30.5719 14.205 30.2459 14.902 29.8969L0.012 21.3009L0.011 21.2999V20.1459H0.012L15.959 29.3539C16.601 29.0039 17.225 28.6269 17.84 28.2369L0.012 17.9429H0.011L0.012 16.7889L18.783 27.6259C19.357 27.2339 19.915 26.8199 20.464 26.3949L0.012 14.5859V13.4319L21.308 25.7269C21.825 25.2989 22.324 24.8519 22.813 24.3939L0.012 11.2289V10.0739L23.568 23.6739C24.031 23.2129 24.478 22.7369 24.914 22.2499L0.012 7.87191V6.71691L25.581 21.4799C25.995 20.9879 26.401 20.4879 26.786 19.9729L0.012 4.51491V3.35991L27.369 19.1539C27.735 18.6339 28.088 18.1039 28.425 17.5619L0.012 1.15791V0.00691172V0.00191172L28.937 16.7029C28.938 16.6999 28.94 16.6969 28.941 16.6939C28.942 16.6939 28.942 16.6939 28.942 16.6939C29.482 15.7609 29.979 14.8009 30.428 13.8139L27.192 15.6829L27.191 15.6839L26.191 15.1059L31.081 12.2819C31.439 11.3819 31.76 10.4629 32.04 9.52591L24.284 14.0039V14.0049L23.284 13.4269L32.422 8.15091C32.629 7.32891 32.8 6.49191 32.946 5.64591L21.376 12.3259H21.375L20.375 11.7489H20.376L33.136 4.38191C33.238 3.61091 33.316 2.83391 33.364 2.04791L18.469 10.6469L17.469 10.0699L33.412 0.865912C33.419 0.576912 33.433 0.290912 33.433 -8.82812e-05H34.433ZM2.0219 -8.82812e-05L1.0249 0.574912L0.0289 -8.82812e-05H2.0219ZM12.6537 7.28991L11.6537 6.71191L23.2797 -8.82812e-05H25.2807L12.6537 7.28991ZM6.8392 3.93251L5.8392 3.35451L11.6512 -0.000488281H13.6512L6.8392 3.93251ZM0.0004 71.6459L0.0044 71.6469L0.0004 71.6489V71.6459ZM0.017 60.4159V61.5709L0 61.5619V60.4069L0.017 60.4159ZM0.017 54.8568L0 54.8478V53.6928L0.017 53.7018V54.8568ZM0.017 48.1429L0 48.1339V46.9779L0.017 46.9879V48.1429ZM0.017 51.4999L0 51.4909V50.3359L0.017 50.3449V51.4999ZM0.017 38.2421H0V37.2421H0.017C18.993 37.2421 34.43 52.6781 34.434 71.6521H33.434C33.433 71.2111 33.417 70.7741 33.4 70.3361L31.121 71.6521H29.121L33.335 69.2191C33.285 68.5201 33.213 67.8271 33.12 67.1401L25.305 71.6521H23.305L32.958 66.0791C32.846 65.4141 32.713 64.7571 32.562 64.1061L19.491 71.6521H17.491L32.316 63.0931C32.148 62.4591 31.957 61.8341 31.753 61.2161L13.675 71.6521H11.675L31.426 60.2501C31.205 59.6441 30.965 59.0491 30.711 58.4601L7.862 71.6521H5.861L30.297 57.5451C30.026 56.9671 29.745 56.3951 29.442 55.8361L2.046 71.6521H0.045L28.948 54.9671C28.946 54.9641 28.944 54.9611 28.943 54.9581L28.942 54.9571C28.402 54.0261 27.819 53.1221 27.194 52.2501V55.9671V55.9681L26.194 56.5451V56.5441V50.9241C25.589 50.1621 24.954 49.4291 24.287 48.7231V57.6451V57.6461L23.287 58.2231V47.7081C22.672 47.1111 22.038 46.5341 21.379 45.9841V59.3241V59.3251L20.379 59.9021V59.9011V45.1891C19.759 44.7111 19.124 44.2521 18.472 43.8181L18.471 61.0031L17.471 61.5801L17.472 43.1771C16.85 42.7941 16.212 42.4341 15.565 42.0921L15.564 62.6811L14.564 63.2591L14.565 41.5791C13.94 41.2761 13.302 40.9961 12.657 40.7321V64.3601L12.169 64.6411L11.657 64.9371V40.3371C11.03 40.1031 10.394 39.8881 9.749 39.6921V66.0381L8.749 66.6161V39.4071C8.121 39.2361 7.486 39.0791 6.842 38.9451V67.7171L5.842 68.2941V38.7611C5.212 38.6491 4.577 38.5541 3.935 38.4791L3.934 69.3951L2.934 69.9721L2.935 38.3771C2.304 38.3221 1.667 38.2861 1.028 38.2671L1.027 71.0741L0.031 71.6491L0.027 71.6511L0.028 38.2421H0.018H0.017ZM0.017 41.4286L0 41.4186V40.2636L0.017 40.2736V41.4286ZM0.017 44.7855L0 44.7755V43.6205L0.017 43.6305V44.7855ZM0.016 67.1307V68.2857L0 68.2767V67.1217L0.016 67.1307ZM0.016 71.6385L0.017 71.6425L0 71.6335V70.4785L0.016 70.4875V71.6385ZM0.017 63.7733L0.016 64.9283L0 64.9193V63.7643L0.017 63.7733ZM0.017 57.0594V58.2144L0 58.2054V57.0504L0.017 57.0594ZM134.114 34.4076C115.147 34.3986 99.7177 18.9686 99.7137 -0.000388281H100.714C100.714 0.438612 100.73 0.872612 100.747 1.30661L103.01 -0.000388281H105.01L100.811 2.42361C100.862 3.12261 100.933 3.81561 101.026 4.50161L108.824 -0.000388281H110.824L101.187 5.56361C101.299 6.22861 101.432 6.88661 101.583 7.53761L114.639 -0.000388281H116.639L101.829 8.55061C101.997 9.18461 102.187 9.80961 102.391 10.4286L120.454 -0.000388281H122.454L102.718 11.3936C102.939 11.9996 103.178 12.5956 103.433 13.1836L126.268 -0.000388281H128.269L103.847 14.0996C104.118 14.6776 104.4 15.2486 104.702 15.8086L132.084 -0.000388281H134.084L105.196 16.6786C105.198 16.6806 105.2 16.6836 105.201 16.6866H105.202C105.741 17.6176 106.324 18.5206 106.948 19.3926V15.6786V15.6776L107.948 15.1006V20.7196C108.552 21.4806 109.188 22.2156 109.855 22.9216V13.9996L110.855 13.4216V13.4226V23.9366C111.469 24.5346 112.104 25.1116 112.762 25.6606L112.763 12.3216V12.3206L113.763 11.7436L113.762 26.4566C114.383 26.9346 115.017 27.3936 115.67 27.8286L115.671 10.6426L116.671 10.0656L116.67 28.4706C117.292 28.8526 117.929 29.2126 118.578 29.5546V8.96461V8.96361L119.578 8.38661V30.0676C120.202 30.3716 120.84 30.6516 121.485 30.9156V7.28561L122.485 6.70761V31.3106C123.112 31.5446 123.748 31.7606 124.392 31.9566V5.60761L125.392 5.02961V32.2416C126.021 32.4116 126.656 32.5696 127.3 32.7036V3.92861L128.3 3.35161V32.8886C128.93 32.9996 129.565 33.0946 130.207 33.1706L130.208 2.24961L131.208 1.67261L131.207 33.2726C131.838 33.3276 132.474 33.3636 133.114 33.3826L133.115 0.571612L134.105 -0.000388281H134.114V34.4076ZM127.302 67.7128L128.302 68.2898L122.478 71.6518H120.478L127.302 67.7128ZM99.7133 71.6522C99.7163 52.6832 115.146 37.2512 134.113 37.2422V38.2422C133.026 38.2432 131.95 38.2982 130.888 38.4022L134.113 40.2642V41.4192L129.237 38.6032C128.272 38.7462 127.32 38.9342 126.383 39.1582L134.113 43.6212V44.7762L125.007 39.5182C124.179 39.7532 123.361 40.0122 122.561 40.3082L134.113 46.9782V48.1332L121.373 40.7772C120.65 41.0772 119.942 41.4032 119.246 41.7522L134.113 50.3362V51.4902L118.189 42.2962C117.547 42.6462 116.923 43.0222 116.308 43.4122L134.113 53.6932V54.8472L115.365 44.0232C114.79 44.4152 114.233 44.8292 113.684 45.2552L134.113 57.0502V58.2052L112.839 45.9222C112.323 46.3502 111.824 46.7982 111.335 47.2552L134.113 60.4072V61.5622L110.58 47.9742C110.116 48.4352 109.669 48.9122 109.233 49.3992L134.113 63.7642V64.9192L108.566 50.1692C108.151 50.6612 107.747 51.1602 107.361 51.6752L134.113 67.1222V68.2772L106.778 52.4942C106.412 53.0152 106.059 53.5452 105.723 54.0872L134.113 70.4792V71.6332L105.211 54.9462C105.209 54.9492 105.207 54.9522 105.206 54.9542C105.206 54.9552 105.205 54.9552 105.205 54.9552C104.666 55.8852 104.172 56.8422 103.723 57.8262L106.95 55.9622L107.95 56.5392V56.5402L103.068 59.3582C102.711 60.2592 102.389 61.1772 102.109 62.1142L109.858 57.6412L110.859 58.2182H110.858L101.727 63.4902C101.519 64.3132 101.348 65.1492 101.202 65.9942L112.765 59.3192L113.765 59.8972L101.012 67.2602C100.909 68.0302 100.831 68.8082 100.783 69.5942L115.672 60.9982L116.673 61.5752H116.672L100.735 70.7772C100.728 71.0692 100.713 71.3592 100.713 71.6522H99.7133ZM133.117 71.0702L134.113 71.6452L134.114 71.6462V71.6492L134.109 71.6522H132.108L133.117 71.0702ZM119.58 63.2543H119.579L105.034 71.6523H103.034L118.579 62.6763L119.58 63.2543ZM122.139 64.7318L122.488 64.9328L110.848 71.6518H108.848L121.487 64.3558L122.139 64.7318ZM124.395 66.0341L125.395 66.6121L116.664 71.6521H114.664L124.395 66.0341Z" fill="white" fill-opacity="0.1"/>
</g>
<defs>
<clipPath id="clip0_7726_77648">
<rect width="135" height="72" fill="white"/>
</clipPath>
</defs>
</svg>
